<svg width="28" height="28" viewBox="0 0 28 28" fill="none" xmlns="http://www.w3.org/2000/svg">
<g clip-path="url(#clip0_2516_8685)">
<path d="M28 14C28 21.7319 21.7319 28 14 28C6.26889 28 0 21.7319 0 14C0 6.26889 6.26889 0 14 0C21.7319 0 28 6.26889 28 14Z" fill="#DA2F47"/>
<g filter="url(#filter0_iiii_2516_8685)">
<path d="M28 14C28 21.7319 21.7319 28 14 28C6.26889 28 0 21.7319 0 14C0 6.26889 6.26889 0 14 0C21.7319 0 28 6.26889 28 14Z" fill="url(#paint0_radial_2516_8685)"/>
<path d="M28 14C28 21.7319 21.7319 28 14 28C6.26889 28 0 21.7319 0 14C0 6.26889 6.26889 0 14 0C21.7319 0 28 6.26889 28 14Z" fill="url(#paint1_radial_2516_8685)" fill-opacity="0.4"/>
<path d="M28 14C28 21.7319 21.7319 28 14 28C6.26889 28 0 21.7319 0 14C0 6.26889 6.26889 0 14 0C21.7319 0 28 6.26889 28 14Z" fill="url(#paint2_radial_2516_8685)" fill-opacity="0.4"/>
</g>
<g filter="url(#filter1_ddii_2516_8685)">
<path d="M19.8217 23.2392C19.7867 23.1 18.9133 19.8333 14 19.8333C9.08604 19.8333 8.21337 23.1 8.17837 23.2392C8.13559 23.408 8.21182 23.583 8.3627 23.6701C8.51437 23.7549 8.70415 23.7316 8.82937 23.6102C8.84415 23.5955 10.3491 22.1667 14 22.1667C17.6509 22.1667 19.1567 23.5955 19.1707 23.6095C19.2454 23.6833 19.3449 23.7222 19.4445 23.7222C19.5098 23.7222 19.5759 23.7059 19.6358 23.6725C19.7883 23.5853 19.8645 23.4088 19.8217 23.2392ZM12.2166 11.8946C9.68493 9.3629 5.61637 9.33334 5.44448 9.33334C5.01515 9.33334 4.66748 9.68101 4.66748 10.1096C4.6667 10.5389 5.01437 10.8873 5.4437 10.8889C5.46626 10.8889 6.94093 10.9068 8.54159 11.4621C8.08037 11.9599 7.77782 12.733 7.77782 13.6111C7.77782 15.1153 8.64815 16.3333 9.72226 16.3333C10.7964 16.3333 11.6667 15.1153 11.6667 13.6111C11.6667 13.4758 11.6519 13.3467 11.6379 13.2168C11.648 13.2168 11.6574 13.2222 11.6667 13.2222C11.8658 13.2222 12.0649 13.146 12.2166 12.9943C12.5207 12.6902 12.5207 12.1987 12.2166 11.8946ZM22.5556 9.33334C22.3837 9.33334 18.3159 9.3629 15.7835 11.8946C15.4794 12.1987 15.4794 12.6902 15.7835 12.9943C15.9351 13.146 16.1343 13.2222 16.3334 13.2222C16.3435 13.2222 16.352 13.2168 16.3614 13.2168C16.3489 13.3467 16.3334 13.4758 16.3334 13.6111C16.3334 15.1153 17.2037 16.3333 18.2778 16.3333C19.3519 16.3333 20.2223 15.1153 20.2223 13.6111C20.2223 12.733 19.9197 11.9599 19.4585 11.4621C21.0592 10.9068 22.5338 10.8889 22.5572 10.8889C22.9857 10.8873 23.3334 10.5389 23.3326 10.1096C23.3318 9.68101 22.9849 9.33334 22.5556 9.33334Z" fill="#5F1340"/>
<path d="M19.8217 23.2392C19.7867 23.1 18.9133 19.8333 14 19.8333C9.08604 19.8333 8.21337 23.1 8.17837 23.2392C8.13559 23.408 8.21182 23.583 8.3627 23.6701C8.51437 23.7549 8.70415 23.7316 8.82937 23.6102C8.84415 23.5955 10.3491 22.1667 14 22.1667C17.6509 22.1667 19.1567 23.5955 19.1707 23.6095C19.2454 23.6833 19.3449 23.7222 19.4445 23.7222C19.5098 23.7222 19.5759 23.7059 19.6358 23.6725C19.7883 23.5853 19.8645 23.4088 19.8217 23.2392ZM12.2166 11.8946C9.68493 9.3629 5.61637 9.33334 5.44448 9.33334C5.01515 9.33334 4.66748 9.68101 4.66748 10.1096C4.6667 10.5389 5.01437 10.8873 5.4437 10.8889C5.46626 10.8889 6.94093 10.9068 8.54159 11.4621C8.08037 11.9599 7.77782 12.733 7.77782 13.6111C7.77782 15.1153 8.64815 16.3333 9.72226 16.3333C10.7964 16.3333 11.6667 15.1153 11.6667 13.6111C11.6667 13.4758 11.6519 13.3467 11.6379 13.2168C11.648 13.2168 11.6574 13.2222 11.6667 13.2222C11.8658 13.2222 12.0649 13.146 12.2166 12.9943C12.5207 12.6902 12.5207 12.1987 12.2166 11.8946ZM22.5556 9.33334C22.3837 9.33334 18.3159 9.3629 15.7835 11.8946C15.4794 12.1987 15.4794 12.6902 15.7835 12.9943C15.9351 13.146 16.1343 13.2222 16.3334 13.2222C16.3435 13.2222 16.352 13.2168 16.3614 13.2168C16.3489 13.3467 16.3334 13.4758 16.3334 13.6111C16.3334 15.1153 17.2037 16.3333 18.2778 16.3333C19.3519 16.3333 20.2223 15.1153 20.2223 13.6111C20.2223 12.733 19.9197 11.9599 19.4585 11.4621C21.0592 10.9068 22.5338 10.8889 22.5572 10.8889C22.9857 10.8873 23.3334 10.5389 23.3326 10.1096C23.3318 9.68101 22.9849 9.33334 22.5556 9.33334Z" fill="url(#paint3_radial_2516_8685)" style="mix-blend-mode:soft-light"/>
</g>
<path d="M23.1306 25.6667H4.86988C3.90233 25.6667 3.11133 24.8757 3.11133 23.9081V19.4444C3.11133 18.4769 3.90233 17.6859 4.86988 17.6859H23.1306C24.0981 17.6859 24.8891 18.4769 24.8891 19.4444V23.9081C24.8891 24.8757 24.0981 25.6667 23.1306 25.6667Z" fill="#292F33"/>
<path d="M6.09879 21.1781H5.46256C5.21834 21.1781 5.10712 21 5.10712 20.8227C5.10712 20.6453 5.21834 20.468 5.46256 20.468H6.20145L6.36401 19.278C6.40056 19.012 6.51179 18.9233 6.73345 18.9233C6.91079 18.9233 7.07412 19.0408 7.07412 19.2189C7.07412 19.3301 7.07412 19.278 7.05934 19.397L6.91156 20.4688H7.62168L7.78423 19.2788C7.82079 19.0128 7.93201 18.9241 8.15368 18.9241C8.33101 18.9241 8.49434 19.0416 8.49434 19.2197C8.49434 19.3309 8.49434 19.2788 8.47956 19.3978L8.33101 20.4696H8.96723C9.21145 20.4696 9.3219 20.6477 9.3219 20.8242C9.3219 21.0016 9.21068 21.1797 8.96723 21.1797H8.22756L8.10934 22.022H8.74556C8.98979 22.022 9.10023 22.2001 9.10023 22.3774C9.10023 22.5548 8.98901 22.7321 8.74556 22.7321H8.0059L7.84334 23.9221C7.80601 24.1889 7.69479 24.2768 7.47312 24.2768C7.29579 24.2768 7.13245 24.1593 7.13245 23.9812C7.13245 23.87 7.13245 23.9221 7.14723 23.8031L7.29579 22.7313H6.58645L6.4239 23.9213C6.38656 24.1881 6.27612 24.276 6.05367 24.276C5.87634 24.276 5.71301 24.1586 5.71301 23.9804C5.71301 23.8692 5.71301 23.9213 5.72779 23.8023L5.87556 22.7306H5.2409C4.99745 22.7306 4.88623 22.5524 4.88623 22.3759C4.88623 22.1978 4.99745 22.0204 5.2409 22.0204H5.98056L6.09879 21.1781ZM6.69768 22.0204H7.40001L7.51823 21.1781H6.8159L6.69768 22.0204ZM10.2879 20.076C10.2879 19.4328 10.7686 18.8782 11.4266 18.8782C12.0846 18.8782 12.5652 19.4328 12.5652 20.076C12.5652 20.7192 12.0846 21.2668 11.4266 21.2668C10.7678 21.2676 10.2879 20.72 10.2879 20.076ZM11.8108 20.076C11.8108 19.8396 11.67 19.6327 11.4266 19.6327C11.1823 19.6327 11.0416 19.8403 11.0416 20.076C11.0416 20.3132 11.1823 20.5131 11.4266 20.5131C11.67 20.5131 11.8108 20.3132 11.8108 20.076ZM13.6075 19.0711C13.7039 18.8868 13.7778 18.8347 13.9481 18.8347C14.1776 18.8347 14.3845 19.019 14.3845 19.2484C14.3845 19.3076 14.3845 19.3597 14.3253 19.4701L11.8411 24.1204C11.7299 24.2752 11.6856 24.3639 11.5082 24.3639C11.3161 24.3639 11.0867 24.1796 11.0867 23.9579C11.0867 23.8467 11.131 23.744 11.1606 23.6841L13.6075 19.0711ZM12.8903 23.1303C12.8903 22.4871 13.371 21.9326 14.029 21.9326C14.687 21.9326 15.1677 22.4871 15.1677 23.1303C15.1677 23.7728 14.687 24.3203 14.029 24.3203C13.3702 24.3211 12.8903 23.7728 12.8903 23.1303ZM14.4132 23.1303C14.4132 22.8931 14.2725 22.687 14.0282 22.687C13.784 22.687 13.6432 22.8939 13.6432 23.1303C13.6432 23.3668 13.784 23.5667 14.0282 23.5667C14.2725 23.5667 14.4132 23.3668 14.4132 23.1303ZM16.3468 23.744C16.3468 23.4259 16.6058 23.1669 16.9231 23.1669C17.2412 23.1669 17.5002 23.4259 17.5002 23.744C17.5002 24.0613 17.2412 24.3203 16.9231 24.3203C16.6058 24.3211 16.3468 24.0621 16.3468 23.744ZM16.3911 19.3814C16.3911 19.0711 16.6198 18.879 16.9231 18.879C17.2195 18.879 17.4559 19.0789 17.4559 19.3814V22.2281C17.4559 22.5314 17.2195 22.7306 16.9231 22.7306C16.6198 22.7306 16.3911 22.5384 16.3911 22.2281V19.3814ZM22.674 24.3647C22.5286 24.3647 22.4376 24.3234 22.3388 24.2122L21.7757 23.5978L21.7197 23.6491C21.1737 24.1508 20.7023 24.3639 20.1455 24.3639C19.2829 24.3639 18.4118 23.8723 18.4118 22.7741C18.4118 21.9131 19.0861 21.3982 19.4882 21.168L19.5792 21.1159L19.5053 21.0397C19.1748 20.6936 19.0395 20.4073 19.0395 20.0527C19.0395 19.215 19.804 18.8339 20.5141 18.8339C21.1083 18.8339 21.9452 19.1862 21.9452 19.9679C21.9452 20.7076 21.2585 21.1353 21.0485 21.2489L20.959 21.2971L21.862 22.3401L22.2073 21.9232C22.3995 21.6922 22.5115 21.595 22.7098 21.595C22.8692 21.595 23.0396 21.7381 23.0396 22.0018C23.0396 22.1993 22.8436 22.4568 22.6515 22.6823L22.4205 22.9429L22.9696 23.5947C23.0715 23.716 23.1135 23.7806 23.1135 23.9276C23.1142 24.157 22.9042 24.3647 22.674 24.3647ZM19.993 21.6627C19.6601 21.8859 19.321 22.1799 19.321 22.6668C19.321 23.177 19.6531 23.506 20.168 23.506C20.5973 23.506 20.875 23.3178 21.1597 23.0347L21.2149 22.981L20.0482 21.6253L19.993 21.6627ZM20.5149 19.5541C20.2971 19.5541 19.9938 19.7322 19.9938 20.0223C19.9938 20.293 20.1268 20.4579 20.4091 20.7449L20.4488 20.7853L20.4978 20.7597C20.8843 20.5574 21.0803 20.3296 21.0803 20.0838C21.0811 19.7198 20.7879 19.5541 20.5149 19.5541Z" fill="white"/>
</g>
<defs>
<filter id="filter0_iiii_2516_8685" x="0" y="-10" width="28" height="38" filterUnits="userSpaceOnUse" color-interpolation-filters="sRGB">
<feFlood flood-opacity="0" result="BackgroundImageFix"/>
<feBlend mode="normal" in="SourceGraphic" in2="BackgroundImageFix" result="shape"/>
<feColorMatrix in="SourceAlpha" type="matrix" values="0 0 0 0 0 0 0 0 0 0 0 0 0 0 0 0 0 0 127 0" result="hardAlpha"/>
<feOffset dy="-10"/>
<feGaussianBlur stdDeviation="5"/>
<feComposite in2="hardAlpha" operator="arithmetic" k2="-1" k3="1"/>
<feColorMatrix type="matrix" values="0 0 0 0 0.52549 0 0 0 0 0.223529 0 0 0 0 0.223529 0 0 0 1 0"/>
<feBlend mode="normal" in2="shape" result="effect1_innerShadow_2516_8685"/>
<feColorMatrix in="SourceAlpha" type="matrix" values="0 0 0 0 0 0 0 0 0 0 0 0 0 0 0 0 0 0 127 0" result="hardAlpha"/>
<feOffset dy="-3"/>
<feGaussianBlur stdDeviation="1.5"/>
<feComposite in2="hardAlpha" operator="arithmetic" k2="-1" k3="1"/>
<feColorMatrix type="matrix" values="0 0 0 0 0.52549 0 0 0 0 0.223529 0 0 0 0 0.223529 0 0 0 0.25 0"/>
<feBlend mode="normal" in2="effect1_innerShadow_2516_8685" result="effect2_innerShadow_2516_8685"/>
<feColorMatrix in="SourceAlpha" type="matrix" values="0 0 0 0 0 0 0 0 0 0 0 0 0 0 0 0 0 0 127 0" result="hardAlpha"/>
<feOffset/>
<feGaussianBlur stdDeviation="3"/>
<feComposite in2="hardAlpha" operator="arithmetic" k2="-1" k3="1"/>
<feColorMatrix type="matrix" values="0 0 0 0 0.52549 0 0 0 0 0.223529 0 0 0 0 0.223529 0 0 0 0.75 0"/>
<feBlend mode="normal" in2="effect2_innerShadow_2516_8685" result="effect3_innerShadow_2516_8685"/>
<feColorMatrix in="SourceAlpha" type="matrix" values="0 0 0 0 0 0 0 0 0 0 0 0 0 0 0 0 0 0 127 0" result="hardAlpha"/>
<feOffset dy="-3"/>
<feGaussianBlur stdDeviation="1.5"/>
<feComposite in2="hardAlpha" operator="arithmetic" k2="-1" k3="1"/>
<feColorMatrix type="matrix" values="0 0 0 0 1 0 0 0 0 0.400833 0 0 0 0 0.400833 0 0 0 0.5 0"/>
<feBlend mode="normal" in2="effect3_innerShadow_2516_8685" result="effect4_innerShadow_2516_8685"/>
</filter>
<filter id="filter1_ddii_2516_8685" x="2.80886" y="7.88362" width="22.3823" height="18.3942" filterUnits="userSpaceOnUse" color-interpolation-filters="sRGB">
<feFlood flood-opacity="0" result="BackgroundImageFix"/>
<feColorMatrix in="SourceAlpha" type="matrix" values="0 0 0 0 0 0 0 0 0 0 0 0 0 0 0 0 0 0 127 0" result="hardAlpha"/>
<feOffset dy="0.696983"/>
<feGaussianBlur stdDeviation="0.929311"/>
<feColorMatrix type="matrix" values="0 0 0 0 0.520833 0 0 0 0 0.0740885 0 0 0 0 0.0455729 0 0 0 0.45 0"/>
<feBlend mode="normal" in2="BackgroundImageFix" result="effect1_dropShadow_2516_8685"/>
<feColorMatrix in="SourceAlpha" type="matrix" values="0 0 0 0 0 0 0 0 0 0 0 0 0 0 0 0 0 0 127 0" result="hardAlpha"/>
<feOffset dy="0.232328"/>
<feGaussianBlur stdDeviation="0.696983"/>
<feColorMatrix type="matrix" values="0 0 0 0 0.225 0 0 0 0 0.0874875 0 0 0 0 0.0440625 0 0 0 0.25 0"/>
<feBlend mode="normal" in2="effect1_dropShadow_2516_8685" result="effect2_dropShadow_2516_8685"/>
<feBlend mode="normal" in="SourceGraphic" in2="effect2_dropShadow_2516_8685" result="shape"/>
<feColorMatrix in="SourceAlpha" type="matrix" values="0 0 0 0 0 0 0 0 0 0 0 0 0 0 0 0 0 0 127 0" result="hardAlpha"/>
<feOffset dy="-1.39397"/>
<feGaussianBlur stdDeviation="1.39397"/>
<feComposite in2="hardAlpha" operator="arithmetic" k2="-1" k3="1"/>
<feColorMatrix type="matrix" values="0 0 0 0 0.629167 0 0 0 0 0.206786 0 0 0 0 0.0734028 0 0 0 0.11 0"/>
<feBlend mode="normal" in2="shape" result="effect3_innerShadow_2516_8685"/>
<feColorMatrix in="SourceAlpha" type="matrix" values="0 0 0 0 0 0 0 0 0 0 0 0 0 0 0 0 0 0 127 0" result="hardAlpha"/>
<feOffset dy="-1.44972"/>
<feGaussianBlur stdDeviation="1.44972"/>
<feComposite in2="hardAlpha" operator="arithmetic" k2="-1" k3="1"/>
<feColorMatrix type="matrix" values="0 0 0 0 0.956863 0 0 0 0 0.72549 0 0 0 0 0.639216 0 0 0 0.14 0"/>
<feBlend mode="normal" in2="effect3_innerShadow_2516_8685" result="effect4_innerShadow_2516_8685"/>
</filter>
<radialGradient id="paint0_radial_2516_8685" cx="0" cy="0" r="1" gradientUnits="userSpaceOnUse" gradientTransform="translate(13.791 6.47761) rotate(90) scale(8.14925)">
<stop stop-color="#EF929D"/>
<stop offset="1" stop-color="#DA3048"/>
</radialGradient>
<radialGradient id="paint1_radial_2516_8685" cx="0" cy="0" r="1" gradientUnits="userSpaceOnUse" gradientTransform="translate(21.9403 16.5075) rotate(172.648) scale(6.53131)">
<stop stop-color="#D93047"/>
<stop offset="1" stop-color="#FF4B4B" stop-opacity="0"/>
</radialGradient>
<radialGradient id="paint2_radial_2516_8685" cx="0" cy="0" r="1" gradientUnits="userSpaceOnUse" gradientTransform="translate(7.09055 16.8975) rotate(33.6901) scale(5.62538)">
<stop stop-color="#FF4B4B"/>
<stop offset="1" stop-color="#FF4B4B" stop-opacity="0"/>
</radialGradient>
<radialGradient id="paint3_radial_2516_8685" cx="0" cy="0" r="1" gradientUnits="userSpaceOnUse" gradientTransform="translate(11.6255 12.2908) rotate(62.2059) scale(10.3668 11.7792)">
<stop stop-color="white"/>
<stop offset="1" stop-opacity="0"/>
</radialGradient>
<clipPath id="clip0_2516_8685">
<rect width="28" height="28" fill="white"/>
</clipPath>
</defs>
</svg>
