<svg width="28" height="28" viewBox="0 0 28 28" fill="none" xmlns="http://www.w3.org/2000/svg">
<g clip-path="url(#clip0_2516_8661)">
<g filter="url(#filter0_iiii_2516_8661)">
<path d="M13.9375 28.125C21.704 28.125 28 21.829 28 14.0625C28 6.296 21.704 0 13.9375 0C6.171 0 -0.125 6.296 -0.125 14.0625C-0.125 21.829 6.171 28.125 13.9375 28.125Z" fill="url(#paint0_radial_2516_8661)"/>
<path d="M13.9375 28.125C21.704 28.125 28 21.829 28 14.0625C28 6.296 21.704 0 13.9375 0C6.171 0 -0.125 6.296 -0.125 14.0625C-0.125 21.829 6.171 28.125 13.9375 28.125Z" fill="url(#paint1_radial_2516_8661)" fill-opacity="0.4"/>
<path d="M13.9375 28.125C21.704 28.125 28 21.829 28 14.0625C28 6.296 21.704 0 13.9375 0C6.171 0 -0.125 6.296 -0.125 14.0625C-0.125 21.829 6.171 28.125 13.9375 28.125Z" fill="url(#paint2_radial_2516_8661)" fill-opacity="0.4"/>
</g>
<g filter="url(#filter1_ddii_2516_8661)">
<path d="M23.1718 7.08483C23.453 7.22545 23.3124 7.55358 23.078 7.60045C21.8124 7.78795 20.4999 8.02233 19.1874 8.72545C21.0624 9.05358 22.5624 9.99108 23.4062 10.9755C23.5937 11.2098 23.3593 11.4911 23.1718 11.4442C20.9218 10.6473 18.6249 10.1786 15.7655 10.5067C15.5312 10.5067 15.3437 10.413 15.3905 10.1786C16.1405 6.7567 20.4999 5.49108 23.1718 7.08483Z" fill="#5A3A13"/>
<path d="M23.1718 7.08483C23.453 7.22545 23.3124 7.55358 23.078 7.60045C21.8124 7.78795 20.4999 8.02233 19.1874 8.72545C21.0624 9.05358 22.5624 9.99108 23.4062 10.9755C23.5937 11.2098 23.3593 11.4911 23.1718 11.4442C20.9218 10.6473 18.6249 10.1786 15.7655 10.5067C15.5312 10.5067 15.3437 10.413 15.3905 10.1786C16.1405 6.7567 20.4999 5.49108 23.1718 7.08483Z" fill="url(#paint3_radial_2516_8661)" style="mix-blend-mode:soft-light"/>
</g>
<g filter="url(#filter2_ddii_2516_8661)">
<path d="M4.70321 7.08486C4.42196 7.22548 4.56258 7.55361 4.79696 7.60048C6.06258 7.78798 7.37508 8.02236 8.68758 8.72548C6.81258 9.05361 5.31258 9.99111 4.46883 10.9755C4.28133 11.2099 4.51571 11.4911 4.70321 11.4442C6.95321 10.6474 9.25008 10.1786 12.1095 10.5067C12.3438 10.5067 12.5313 10.413 12.4845 10.1786C11.7345 6.75673 7.37508 5.49111 4.70321 7.08486Z" fill="#5A3A13"/>
<path d="M4.70321 7.08486C4.42196 7.22548 4.56258 7.55361 4.79696 7.60048C6.06258 7.78798 7.37508 8.02236 8.68758 8.72548C6.81258 9.05361 5.31258 9.99111 4.46883 10.9755C4.28133 11.2099 4.51571 11.4911 4.70321 11.4442C6.95321 10.6474 9.25008 10.1786 12.1095 10.5067C12.3438 10.5067 12.5313 10.413 12.4845 10.1786C11.7345 6.75673 7.37508 5.49111 4.70321 7.08486Z" fill="url(#paint4_radial_2516_8661)" style="mix-blend-mode:soft-light"/>
</g>
<g filter="url(#filter3_ii_2516_8661)">
<path d="M22.2341 14.1161C22.0466 13.8817 21.7185 13.9286 21.3435 13.9286H6.53096C6.15596 13.9286 5.82783 13.8817 5.64033 14.1161C3.81221 16.4598 5.96846 23.3036 13.9372 23.3036C21.906 23.3036 24.0622 16.4598 22.2341 14.1161Z" fill="#9F5600"/>
<path d="M22.2341 14.1161C22.0466 13.8817 21.7185 13.9286 21.3435 13.9286H6.53096C6.15596 13.9286 5.82783 13.8817 5.64033 14.1161C3.81221 16.4598 5.96846 23.3036 13.9372 23.3036C21.906 23.3036 24.0622 16.4598 22.2341 14.1161Z" fill="url(#paint5_radial_2516_8661)" fill-opacity="0.5"/>
</g>
<path d="M14.7877 18.2437C14.5252 18.2437 14.1314 18.4625 14.3064 19.1187C14.3939 19.425 14.8314 19.8187 14.8314 20.3437C14.8314 21.3937 13.1689 21.3937 13.1689 20.3437C13.1689 19.8187 13.6064 19.4687 13.6939 19.1187C13.8252 18.5062 13.4314 18.2437 13.2127 18.2437C12.5127 18.2437 11.4189 18.9875 11.4189 20.2562C11.4189 21.6562 12.6002 22.7937 14.0439 22.7937C15.4877 22.7937 16.6689 21.6562 16.6689 20.2562C16.6252 19.0312 15.4877 18.2875 14.7877 18.2437Z" fill="#502D04"/>
<g filter="url(#filter4_dddiii_2516_8661)">
<path d="M10.6313 22.1812C11.5938 22.6187 12.7313 22.8375 14.0001 22.8375C15.2688 22.8375 16.4063 22.575 17.3688 22.1812C16.4501 21.7 15.3126 21.4375 14.0001 21.4375C12.6876 21.4375 11.5501 21.7 10.6313 22.1812Z" fill="url(#paint6_linear_2516_8661)"/>
<path d="M10.6313 22.1812C11.5938 22.6187 12.7313 22.8375 14.0001 22.8375C15.2688 22.8375 16.4063 22.575 17.3688 22.1812C16.4501 21.7 15.3126 21.4375 14.0001 21.4375C12.6876 21.4375 11.5501 21.7 10.6313 22.1812Z" fill="url(#paint7_radial_2516_8661)" fill-opacity="0.8"/>
<path d="M10.6313 22.1812C11.5938 22.6187 12.7313 22.8375 14.0001 22.8375C15.2688 22.8375 16.4063 22.575 17.3688 22.1812C16.4501 21.7 15.3126 21.4375 14.0001 21.4375C12.6876 21.4375 11.5501 21.7 10.6313 22.1812Z" fill="url(#paint8_radial_2516_8661)" fill-opacity="0.8"/>
</g>
<g filter="url(#filter5_di_2516_8661)">
<path d="M20.5625 15.75H7.48125C6.5625 15.75 6.5625 17.5 7.4375 17.5H20.5625C21.4375 17.5 21.4375 15.75 20.5625 15.75Z" fill="url(#paint9_radial_2516_8661)"/>
</g>
</g>
<defs>
<filter id="filter0_iiii_2516_8661" x="-0.125" y="-10" width="28.125" height="38.125" filterUnits="userSpaceOnUse" color-interpolation-filters="sRGB">
<feFlood flood-opacity="0" result="BackgroundImageFix"/>
<feBlend mode="normal" in="SourceGraphic" in2="BackgroundImageFix" result="shape"/>
<feColorMatrix in="SourceAlpha" type="matrix" values="0 0 0 0 0 0 0 0 0 0 0 0 0 0 0 0 0 0 127 0" result="hardAlpha"/>
<feOffset dy="-10"/>
<feGaussianBlur stdDeviation="5"/>
<feComposite in2="hardAlpha" operator="arithmetic" k2="-1" k3="1"/>
<feColorMatrix type="matrix" values="0 0 0 0 0.741667 0 0 0 0 0.356 0 0 0 0 0 0 0 0 0.3 0"/>
<feBlend mode="normal" in2="shape" result="effect1_innerShadow_2516_8661"/>
<feColorMatrix in="SourceAlpha" type="matrix" values="0 0 0 0 0 0 0 0 0 0 0 0 0 0 0 0 0 0 127 0" result="hardAlpha"/>
<feOffset dy="-3"/>
<feGaussianBlur stdDeviation="1.5"/>
<feComposite in2="hardAlpha" operator="arithmetic" k2="-1" k3="1"/>
<feColorMatrix type="matrix" values="0 0 0 0 0.741176 0 0 0 0 0.356863 0 0 0 0 0 0 0 0 0.25 0"/>
<feBlend mode="normal" in2="effect1_innerShadow_2516_8661" result="effect2_innerShadow_2516_8661"/>
<feColorMatrix in="SourceAlpha" type="matrix" values="0 0 0 0 0 0 0 0 0 0 0 0 0 0 0 0 0 0 127 0" result="hardAlpha"/>
<feOffset/>
<feGaussianBlur stdDeviation="3"/>
<feComposite in2="hardAlpha" operator="arithmetic" k2="-1" k3="1"/>
<feColorMatrix type="matrix" values="0 0 0 0 0.776471 0 0 0 0 0.278431 0 0 0 0 0 0 0 0 0.75 0"/>
<feBlend mode="normal" in2="effect2_innerShadow_2516_8661" result="effect3_innerShadow_2516_8661"/>
<feColorMatrix in="SourceAlpha" type="matrix" values="0 0 0 0 0 0 0 0 0 0 0 0 0 0 0 0 0 0 127 0" result="hardAlpha"/>
<feOffset dy="-3"/>
<feGaussianBlur stdDeviation="1.5"/>
<feComposite in2="hardAlpha" operator="arithmetic" k2="-1" k3="1"/>
<feColorMatrix type="matrix" values="0 0 0 0 1 0 0 0 0 1 0 0 0 0 1 0 0 0 0.5 0"/>
<feBlend mode="normal" in2="effect3_innerShadow_2516_8661" result="effect4_innerShadow_2516_8661"/>
</filter>
<filter id="filter1_ddii_2516_8661" x="13.5247" y="4.9528" width="11.809" height="9.05217" filterUnits="userSpaceOnUse" color-interpolation-filters="sRGB">
<feFlood flood-opacity="0" result="BackgroundImageFix"/>
<feColorMatrix in="SourceAlpha" type="matrix" values="0 0 0 0 0 0 0 0 0 0 0 0 0 0 0 0 0 0 127 0" result="hardAlpha"/>
<feOffset dy="0.696983"/>
<feGaussianBlur stdDeviation="0.929311"/>
<feColorMatrix type="matrix" values="0 0 0 0 0.520833 0 0 0 0 0.0740885 0 0 0 0 0.0455729 0 0 0 0.45 0"/>
<feBlend mode="normal" in2="BackgroundImageFix" result="effect1_dropShadow_2516_8661"/>
<feColorMatrix in="SourceAlpha" type="matrix" values="0 0 0 0 0 0 0 0 0 0 0 0 0 0 0 0 0 0 127 0" result="hardAlpha"/>
<feOffset dy="0.232328"/>
<feGaussianBlur stdDeviation="0.696983"/>
<feColorMatrix type="matrix" values="0 0 0 0 0.225 0 0 0 0 0.0874875 0 0 0 0 0.0440625 0 0 0 0.25 0"/>
<feBlend mode="normal" in2="effect1_dropShadow_2516_8661" result="effect2_dropShadow_2516_8661"/>
<feBlend mode="normal" in="SourceGraphic" in2="effect2_dropShadow_2516_8661" result="shape"/>
<feColorMatrix in="SourceAlpha" type="matrix" values="0 0 0 0 0 0 0 0 0 0 0 0 0 0 0 0 0 0 127 0" result="hardAlpha"/>
<feOffset dy="-1.39397"/>
<feGaussianBlur stdDeviation="1.39397"/>
<feComposite in2="hardAlpha" operator="arithmetic" k2="-1" k3="1"/>
<feColorMatrix type="matrix" values="0 0 0 0 0.629167 0 0 0 0 0.206786 0 0 0 0 0.0734028 0 0 0 0.11 0"/>
<feBlend mode="normal" in2="shape" result="effect3_innerShadow_2516_8661"/>
<feColorMatrix in="SourceAlpha" type="matrix" values="0 0 0 0 0 0 0 0 0 0 0 0 0 0 0 0 0 0 127 0" result="hardAlpha"/>
<feOffset dy="-1.44972"/>
<feGaussianBlur stdDeviation="1.44972"/>
<feComposite in2="hardAlpha" operator="arithmetic" k2="-1" k3="1"/>
<feColorMatrix type="matrix" values="0 0 0 0 0.956863 0 0 0 0 0.72549 0 0 0 0 0.639216 0 0 0 0.14 0"/>
<feBlend mode="normal" in2="effect3_innerShadow_2516_8661" result="effect4_innerShadow_2516_8661"/>
</filter>
<filter id="filter2_ddii_2516_8661" x="2.54128" y="4.95283" width="11.809" height="9.05217" filterUnits="userSpaceOnUse" color-interpolation-filters="sRGB">
<feFlood flood-opacity="0" result="BackgroundImageFix"/>
<feColorMatrix in="SourceAlpha" type="matrix" values="0 0 0 0 0 0 0 0 0 0 0 0 0 0 0 0 0 0 127 0" result="hardAlpha"/>
<feOffset dy="0.696983"/>
<feGaussianBlur stdDeviation="0.929311"/>
<feColorMatrix type="matrix" values="0 0 0 0 0.520833 0 0 0 0 0.0740885 0 0 0 0 0.0455729 0 0 0 0.45 0"/>
<feBlend mode="normal" in2="BackgroundImageFix" result="effect1_dropShadow_2516_8661"/>
<feColorMatrix in="SourceAlpha" type="matrix" values="0 0 0 0 0 0 0 0 0 0 0 0 0 0 0 0 0 0 127 0" result="hardAlpha"/>
<feOffset dy="0.232328"/>
<feGaussianBlur stdDeviation="0.696983"/>
<feColorMatrix type="matrix" values="0 0 0 0 0.225 0 0 0 0 0.0874875 0 0 0 0 0.0440625 0 0 0 0.25 0"/>
<feBlend mode="normal" in2="effect1_dropShadow_2516_8661" result="effect2_dropShadow_2516_8661"/>
<feBlend mode="normal" in="SourceGraphic" in2="effect2_dropShadow_2516_8661" result="shape"/>
<feColorMatrix in="SourceAlpha" type="matrix" values="0 0 0 0 0 0 0 0 0 0 0 0 0 0 0 0 0 0 127 0" result="hardAlpha"/>
<feOffset dy="-1.39397"/>
<feGaussianBlur stdDeviation="1.39397"/>
<feComposite in2="hardAlpha" operator="arithmetic" k2="-1" k3="1"/>
<feColorMatrix type="matrix" values="0 0 0 0 0.629167 0 0 0 0 0.206786 0 0 0 0 0.0734028 0 0 0 0.11 0"/>
<feBlend mode="normal" in2="shape" result="effect3_innerShadow_2516_8661"/>
<feColorMatrix in="SourceAlpha" type="matrix" values="0 0 0 0 0 0 0 0 0 0 0 0 0 0 0 0 0 0 127 0" result="hardAlpha"/>
<feOffset dy="-1.44972"/>
<feGaussianBlur stdDeviation="1.44972"/>
<feComposite in2="hardAlpha" operator="arithmetic" k2="-1" k3="1"/>
<feColorMatrix type="matrix" values="0 0 0 0 0.956863 0 0 0 0 0.72549 0 0 0 0 0.639216 0 0 0 0.14 0"/>
<feBlend mode="normal" in2="effect3_innerShadow_2516_8661" result="effect4_innerShadow_2516_8661"/>
</filter>
<filter id="filter3_ii_2516_8661" x="5.03174" y="13.9247" width="17.811" height="13.3788" filterUnits="userSpaceOnUse" color-interpolation-filters="sRGB">
<feFlood flood-opacity="0" result="BackgroundImageFix"/>
<feBlend mode="normal" in="SourceGraphic" in2="BackgroundImageFix" result="shape"/>
<feColorMatrix in="SourceAlpha" type="matrix" values="0 0 0 0 0 0 0 0 0 0 0 0 0 0 0 0 0 0 127 0" result="hardAlpha"/>
<feOffset dy="1"/>
<feGaussianBlur stdDeviation="1"/>
<feComposite in2="hardAlpha" operator="arithmetic" k2="-1" k3="1"/>
<feColorMatrix type="matrix" values="0 0 0 0 0 0 0 0 0 0 0 0 0 0 0 0 0 0 0.25 0"/>
<feBlend mode="normal" in2="shape" result="effect1_innerShadow_2516_8661"/>
<feColorMatrix in="SourceAlpha" type="matrix" values="0 0 0 0 0 0 0 0 0 0 0 0 0 0 0 0 0 0 127 0" result="hardAlpha"/>
<feOffset dy="4"/>
<feGaussianBlur stdDeviation="2"/>
<feComposite in2="hardAlpha" operator="arithmetic" k2="-1" k3="1"/>
<feColorMatrix type="matrix" values="0 0 0 0 0 0 0 0 0 0 0 0 0 0 0 0 0 0 0.15 0"/>
<feBlend mode="normal" in2="effect1_innerShadow_2516_8661" result="effect2_innerShadow_2516_8661"/>
</filter>
<filter id="filter4_dddiii_2516_8661" x="-73.3687" y="-44.5625" width="174.737" height="169.4" filterUnits="userSpaceOnUse" color-interpolation-filters="sRGB">
<feFlood flood-opacity="0" result="BackgroundImageFix"/>
<feColorMatrix in="SourceAlpha" type="matrix" values="0 0 0 0 0 0 0 0 0 0 0 0 0 0 0 0 0 0 127 0" result="hardAlpha"/>
<feMorphology radius="6" operator="erode" in="SourceAlpha" result="effect1_dropShadow_2516_8661"/>
<feOffset dx="2" dy="3"/>
<feGaussianBlur stdDeviation="2"/>
<feColorMatrix type="matrix" values="0 0 0 0 0.0941176 0 0 0 0 0.152941 0 0 0 0 0.294118 0 0 0 0.22 0"/>
<feBlend mode="multiply" in2="BackgroundImageFix" result="effect1_dropShadow_2516_8661"/>
<feColorMatrix in="SourceAlpha" type="matrix" values="0 0 0 0 0 0 0 0 0 0 0 0 0 0 0 0 0 0 127 0" result="hardAlpha"/>
<feMorphology radius="4" operator="erode" in="SourceAlpha" result="effect2_dropShadow_2516_8661"/>
<feOffset dy="18"/>
<feGaussianBlur stdDeviation="44"/>
<feColorMatrix type="matrix" values="0 0 0 0 0.0941176 0 0 0 0 0.152941 0 0 0 0 0.294118 0 0 0 0.24 0"/>
<feBlend mode="normal" in2="effect1_dropShadow_2516_8661" result="effect2_dropShadow_2516_8661"/>
<feColorMatrix in="SourceAlpha" type="matrix" values="0 0 0 0 0 0 0 0 0 0 0 0 0 0 0 0 0 0 127 0" result="hardAlpha"/>
<feMorphology radius="6" operator="erode" in="SourceAlpha" result="effect3_dropShadow_2516_8661"/>
<feOffset dy="8"/>
<feGaussianBlur stdDeviation="14"/>
<feColorMatrix type="matrix" values="0 0 0 0 0.0941176 0 0 0 0 0.152941 0 0 0 0 0.294118 0 0 0 0.22 0"/>
<feBlend mode="normal" in2="effect2_dropShadow_2516_8661" result="effect3_dropShadow_2516_8661"/>
<feBlend mode="normal" in="SourceGraphic" in2="effect3_dropShadow_2516_8661" result="shape"/>
<feColorMatrix in="SourceAlpha" type="matrix" values="0 0 0 0 0 0 0 0 0 0 0 0 0 0 0 0 0 0 127 0" result="hardAlpha"/>
<feOffset/>
<feGaussianBlur stdDeviation="1"/>
<feComposite in2="hardAlpha" operator="arithmetic" k2="-1" k3="1"/>
<feColorMatrix type="matrix" values="0 0 0 0 0.441667 0 0 0 0 0 0 0 0 0 0 0 0 0 1 0"/>
<feBlend mode="normal" in2="shape" result="effect4_innerShadow_2516_8661"/>
<feColorMatrix in="SourceAlpha" type="matrix" values="0 0 0 0 0 0 0 0 0 0 0 0 0 0 0 0 0 0 127 0" result="hardAlpha"/>
<feOffset dx="-1" dy="-3"/>
<feGaussianBlur stdDeviation="3.5"/>
<feComposite in2="hardAlpha" operator="arithmetic" k2="-1" k3="1"/>
<feColorMatrix type="matrix" values="0 0 0 0 1 0 0 0 0 1 0 0 0 0 1 0 0 0 0.4 0"/>
<feBlend mode="normal" in2="effect4_innerShadow_2516_8661" result="effect5_innerShadow_2516_8661"/>
<feColorMatrix in="SourceAlpha" type="matrix" values="0 0 0 0 0 0 0 0 0 0 0 0 0 0 0 0 0 0 127 0" result="hardAlpha"/>
<feOffset dx="2" dy="2"/>
<feGaussianBlur stdDeviation="2"/>
<feComposite in2="hardAlpha" operator="arithmetic" k2="-1" k3="1"/>
<feColorMatrix type="matrix" values="0 0 0 0 1 0 0 0 0 0.160784 0 0 0 0 0.160784 0 0 0 1 0"/>
<feBlend mode="normal" in2="effect5_innerShadow_2516_8661" result="effect6_innerShadow_2516_8661"/>
</filter>
<filter id="filter5_di_2516_8661" x="4.78662" y="14.75" width="18.4321" height="6.75" filterUnits="userSpaceOnUse" color-interpolation-filters="sRGB">
<feFlood flood-opacity="0" result="BackgroundImageFix"/>
<feColorMatrix in="SourceAlpha" type="matrix" values="0 0 0 0 0 0 0 0 0 0 0 0 0 0 0 0 0 0 127 0" result="hardAlpha"/>
<feMorphology radius="6" operator="erode" in="SourceAlpha" result="effect1_dropShadow_2516_8661"/>
<feOffset dy="2"/>
<feGaussianBlur stdDeviation="4"/>
<feColorMatrix type="matrix" values="0 0 0 0 0.0941176 0 0 0 0 0.152941 0 0 0 0 0.294118 0 0 0 0.15 0"/>
<feBlend mode="normal" in2="BackgroundImageFix" result="effect1_dropShadow_2516_8661"/>
<feBlend mode="normal" in="SourceGraphic" in2="effect1_dropShadow_2516_8661" result="shape"/>
<feColorMatrix in="SourceAlpha" type="matrix" values="0 0 0 0 0 0 0 0 0 0 0 0 0 0 0 0 0 0 127 0" result="hardAlpha"/>
<feOffset dx="-1" dy="-1"/>
<feGaussianBlur stdDeviation="0.5"/>
<feComposite in2="hardAlpha" operator="arithmetic" k2="-1" k3="1"/>
<feColorMatrix type="matrix" values="0 0 0 0 0.741176 0 0 0 0 0.356863 0 0 0 0 0 0 0 0 0.3 0"/>
<feBlend mode="normal" in2="shape" result="effect2_innerShadow_2516_8661"/>
</filter>
<radialGradient id="paint0_radial_2516_8661" cx="0" cy="0" r="1" gradientUnits="userSpaceOnUse" gradientTransform="translate(13.7276 6.50653) rotate(90) scale(8.18563)">
<stop stop-color="#FDF3DF"/>
<stop offset="1" stop-color="#FFC533"/>
</radialGradient>
<radialGradient id="paint1_radial_2516_8661" cx="0" cy="0" r="1" gradientUnits="userSpaceOnUse" gradientTransform="translate(21.9132 16.5812) rotate(172.648) scale(6.56047)">
<stop stop-color="#FF5C28"/>
<stop offset="1" stop-color="#FF5C28" stop-opacity="0"/>
</radialGradient>
<radialGradient id="paint2_radial_2516_8661" cx="0" cy="0" r="1" gradientUnits="userSpaceOnUse" gradientTransform="translate(6.9972 16.9729) rotate(33.6901) scale(5.65049)">
<stop stop-color="#FF5C28"/>
<stop offset="1" stop-color="#FF5C28" stop-opacity="0"/>
</radialGradient>
<radialGradient id="paint3_radial_2516_8661" cx="0" cy="0" r="1" gradientUnits="userSpaceOnUse" gradientTransform="translate(18.3998 7.43984) rotate(56.9154) scale(3.83905 4.83662)">
<stop stop-color="white"/>
<stop offset="1" stop-opacity="0"/>
</radialGradient>
<radialGradient id="paint4_radial_2516_8661" cx="0" cy="0" r="1" gradientUnits="userSpaceOnUse" gradientTransform="translate(7.41637 7.43987) rotate(56.9154) scale(3.83905 4.83662)">
<stop stop-color="white"/>
<stop offset="1" stop-opacity="0"/>
</radialGradient>
<radialGradient id="paint5_radial_2516_8661" cx="0" cy="0" r="1" gradientUnits="userSpaceOnUse" gradientTransform="translate(13.7 16.0819) rotate(90) scale(7.25296 21.8244)">
<stop/>
<stop offset="1" stop-opacity="0"/>
</radialGradient>
<linearGradient id="paint6_linear_2516_8661" x1="14.0001" y1="21.4375" x2="14.0001" y2="22.8375" gradientUnits="userSpaceOnUse">
<stop stop-color="#FF2929"/>
<stop offset="1" stop-color="#D22626"/>
</linearGradient>
<radialGradient id="paint7_radial_2516_8661" cx="0" cy="0" r="1" gradientUnits="userSpaceOnUse" gradientTransform="translate(11.9878 21.7652) rotate(20.4535) scale(1.99426 1.37826)">
<stop stop-color="#FFD6D6"/>
<stop offset="1" stop-color="#FFDADA" stop-opacity="0"/>
</radialGradient>
<radialGradient id="paint8_radial_2516_8661" cx="0" cy="0" r="1" gradientUnits="userSpaceOnUse" gradientTransform="translate(15.3172 21.746) rotate(91.8776) scale(0.716479 2.96729)">
<stop offset="0.0178721" stop-color="#FFD6D6"/>
<stop offset="1" stop-color="#FFDADA" stop-opacity="0"/>
</radialGradient>
<radialGradient id="paint9_radial_2516_8661" cx="0" cy="0" r="1" gradientUnits="userSpaceOnUse" gradientTransform="translate(13.895 16.1549) rotate(90) scale(0.509328 4.2004)">
<stop stop-color="white"/>
<stop offset="1" stop-color="white"/>
</radialGradient>
<clipPath id="clip0_2516_8661">
<rect width="28" height="28" fill="white"/>
</clipPath>
</defs>
</svg>
