<svg width="28" height="28" viewBox="0 0 28 28" fill="none" xmlns="http://www.w3.org/2000/svg">
<g clip-path="url(#clip0_2516_8657)">
<g filter="url(#filter0_iii_2516_8657)">
<path d="M27.5656 9.87669C24.5821 1.726 14.8857 5.36983 14 9.44518C12.788 5.13011 3.32469 1.91778 0.434435 9.87669C-2.78214 18.7466 12.8812 26.7055 14 28C15.1188 26.9452 30.7821 18.6027 27.5656 9.87669Z" fill="url(#paint0_linear_2516_8657)"/>
<path d="M27.5656 9.87669C24.5821 1.726 14.8857 5.36983 14 9.44518C12.788 5.13011 3.32469 1.91778 0.434435 9.87669C-2.78214 18.7466 12.8812 26.7055 14 28C15.1188 26.9452 30.7821 18.6027 27.5656 9.87669Z" fill="url(#paint1_radial_2516_8657)" fill-opacity="0.8"/>
<path d="M27.5656 9.87669C24.5821 1.726 14.8857 5.36983 14 9.44518C12.788 5.13011 3.32469 1.91778 0.434435 9.87669C-2.78214 18.7466 12.8812 26.7055 14 28C15.1188 26.9452 30.7821 18.6027 27.5656 9.87669Z" fill="url(#paint2_radial_2516_8657)" fill-opacity="0.8"/>
</g>
</g>
<defs>
<filter id="filter0_iii_2516_8657" x="-1" y="2" width="31" height="28" filterUnits="userSpaceOnUse" color-interpolation-filters="sRGB">
<feFlood flood-opacity="0" result="BackgroundImageFix"/>
<feBlend mode="normal" in="SourceGraphic" in2="BackgroundImageFix" result="shape"/>
<feColorMatrix in="SourceAlpha" type="matrix" values="0 0 0 0 0 0 0 0 0 0 0 0 0 0 0 0 0 0 127 0" result="hardAlpha"/>
<feOffset/>
<feGaussianBlur stdDeviation="1"/>
<feComposite in2="hardAlpha" operator="arithmetic" k2="-1" k3="1"/>
<feColorMatrix type="matrix" values="0 0 0 0 0.441667 0 0 0 0 0 0 0 0 0 0 0 0 0 1 0"/>
<feBlend mode="normal" in2="shape" result="effect1_innerShadow_2516_8657"/>
<feColorMatrix in="SourceAlpha" type="matrix" values="0 0 0 0 0 0 0 0 0 0 0 0 0 0 0 0 0 0 127 0" result="hardAlpha"/>
<feOffset dx="-1" dy="-3"/>
<feGaussianBlur stdDeviation="3.5"/>
<feComposite in2="hardAlpha" operator="arithmetic" k2="-1" k3="1"/>
<feColorMatrix type="matrix" values="0 0 0 0 1 0 0 0 0 1 0 0 0 0 1 0 0 0 0.4 0"/>
<feBlend mode="normal" in2="effect1_innerShadow_2516_8657" result="effect2_innerShadow_2516_8657"/>
<feColorMatrix in="SourceAlpha" type="matrix" values="0 0 0 0 0 0 0 0 0 0 0 0 0 0 0 0 0 0 127 0" result="hardAlpha"/>
<feOffset dx="2" dy="2"/>
<feGaussianBlur stdDeviation="2"/>
<feComposite in2="hardAlpha" operator="arithmetic" k2="-1" k3="1"/>
<feColorMatrix type="matrix" values="0 0 0 0 1 0 0 0 0 0.160784 0 0 0 0 0.160784 0 0 0 1 0"/>
<feBlend mode="normal" in2="effect2_innerShadow_2516_8657" result="effect3_innerShadow_2516_8657"/>
</filter>
<linearGradient id="paint0_linear_2516_8657" x1="14" y1="5" x2="14" y2="28" gradientUnits="userSpaceOnUse">
<stop stop-color="#FF2929"/>
<stop offset="1" stop-color="#D22626"/>
</linearGradient>
<radialGradient id="paint1_radial_2516_8657" cx="0" cy="0" r="1" gradientUnits="userSpaceOnUse" gradientTransform="translate(8.23194 9.94699) rotate(68.2534) scale(8.58939 8.58804)">
<stop stop-color="#FFD6D6"/>
<stop offset="1" stop-color="#FFDADA" stop-opacity="0"/>
</radialGradient>
<radialGradient id="paint2_radial_2516_8657" cx="0" cy="0" r="1" gradientUnits="userSpaceOnUse" gradientTransform="translate(19.4736 10.0682) rotate(63.865) scale(8.02793 8.14622)">
<stop offset="0.0178721" stop-color="#FFD6D6"/>
<stop offset="1" stop-color="#FFDADA" stop-opacity="0"/>
</radialGradient>
<clipPath id="clip0_2516_8657">
<rect width="28" height="28" fill="white"/>
</clipPath>
</defs>
</svg>
