<svg width="75" height="64" viewBox="0 0 75 64" fill="none" xmlns="http://www.w3.org/2000/svg">
<path d="M7 25.5888L7.84443 23.615L10.3197 23.9316L11.713 22L13.9032 22.7336L14.1829 24.4752L12.0243 27.7685L8.07665 27.1563L7 25.5888Z" fill="#F1396F"/>
<path opacity="0.17" d="M7.84375 23.615L10.319 23.9316L10.8362 25.0716L8.23429 24.47L7.84375 23.615Z" fill="#FFD6A3"/>
<path opacity="0.3" d="M10.8365 25.0716L10.3193 23.9316L11.7126 22L12.0873 22.8919L10.8365 25.0716Z" fill="url(#paint0_linear_2354_6693)"/>
<path opacity="0.16" d="M8.23497 24.47L7.84443 23.615L7 25.5888L7.43805 25.6627L8.23497 24.47Z" fill="url(#paint1_linear_2354_6693)"/>
<path opacity="0.36" d="M7 25.5889L7.43805 25.6628L8.29303 27.0244L8.99496 27.3041L8.07665 27.1563L7 25.5889Z" fill="url(#paint2_linear_2354_6693)"/>
<path opacity="0.35" d="M12.0886 22.8919L11.7139 22L13.9041 22.7336L13.5611 23.1347L12.0886 22.8919Z" fill="#FFD6A3"/>
<path opacity="0.12" d="M13.5596 23.1347L13.9026 22.7336L14.1823 24.4753L13.8182 25.0241L13.9923 24.3803L13.5596 23.1347Z" fill="url(#paint3_linear_2354_6693)"/>
<path d="M8.09277 25.7471L8.85803 26.9451L10.6841 27.2882L9.02164 26.6601L8.3461 25.3354L8.09277 25.7471Z" fill="#F1396F"/>
<path d="M11.7979 23.7258L12.1937 23.0186L12.3415 23.0555L11.9404 23.7785L11.7979 23.7258Z" fill="white"/>
<path d="M13.413 25.2827L12.1094 27.378L13.0963 25.2722L12.9907 24.7602L13.3021 24.718L13.413 25.2827Z" fill="#DE3466"/>
<path d="M68.153 8.095L68.9235 8L69.2718 8.83387L70.1268 8.91832L70.2957 9.73636L69.7996 10.1375L68.3799 10.0583L67.8574 8.71249L68.153 8.095Z" fill="#F1396F"/>
<path opacity="0.17" d="M68.9242 8L69.2725 8.83387L69.0086 9.20331L68.7236 8.27972L68.9242 8Z" fill="#FFD6A3"/>
<path opacity="0.3" d="M69.0078 9.20336L69.2717 8.83392L70.1267 8.91837L69.9156 9.19808L69.0078 9.20336Z" fill="url(#paint4_linear_2354_6693)"/>
<path opacity="0.16" d="M68.7253 8.27972L68.9258 8L68.1553 8.095L68.208 8.24278L68.7253 8.27972Z" fill="url(#paint5_linear_2354_6693)"/>
<path opacity="0.36" d="M68.153 8.09503L68.2057 8.24281L67.9366 8.76001L67.9788 9.02918L67.8574 8.71252L68.153 8.09503Z" fill="url(#paint6_linear_2354_6693)"/>
<path opacity="0.35" d="M69.917 9.19805L70.1281 8.91833L70.297 9.73637L70.107 9.70471L69.917 9.19805Z" fill="#FFD6A3"/>
<path opacity="0.12" d="M70.1061 9.70471L70.2961 9.73638L69.8 10.1375L69.5625 10.1269L69.7947 10.0636L70.1061 9.70471Z" fill="url(#paint7_linear_2354_6693)"/>
<path d="M68.3019 8.46448L68.0645 8.91836L68.2861 9.55168L68.1858 8.91836L68.4761 8.46975L68.3019 8.46448Z" fill="#F1396F"/>
<path d="M69.6045 9.25616H69.8948L69.9106 9.30366L69.6098 9.31422L69.6045 9.25616Z" fill="white"/>
<path d="M69.4095 10.0478L68.5176 10.0161L69.3514 9.94752L69.4939 9.82086L69.5626 9.91058L69.4095 10.0478Z" fill="#DE3466"/>
<path d="M27.9365 24.0364L28.3798 23.002L29.6729 23.1656L30.4012 22.1576L31.5464 22.5376L31.6889 23.4506L30.5648 25.1711L28.5012 24.8545L27.9365 24.0364Z" fill="#F1396F"/>
<path opacity="0.17" d="M28.3799 23.002L29.6729 23.1656L29.9421 23.7619L28.5804 23.4506L28.3799 23.002Z" fill="#FFD6A3"/>
<path opacity="0.3" d="M29.943 23.762L29.6738 23.1656L30.4021 22.1576L30.5974 22.622L29.943 23.762Z" fill="url(#paint8_linear_2354_6693)"/>
<path opacity="0.16" d="M28.5804 23.4507L28.3798 23.0021L27.9365 24.0365L28.1635 24.0734L28.5804 23.4507Z" fill="url(#paint9_linear_2354_6693)"/>
<path opacity="0.36" d="M27.9365 24.0364L28.1635 24.0734L28.6121 24.7859L28.9762 24.9284L28.5012 24.8545L27.9365 24.0364Z" fill="url(#paint10_linear_2354_6693)"/>
<path opacity="0.35" d="M30.5957 22.622L30.4004 22.1576L31.5456 22.5376L31.3662 22.7487L30.5957 22.622Z" fill="#FFD6A3"/>
<path opacity="0.12" d="M31.3682 22.7487L31.5476 22.5376L31.6901 23.4506L31.5001 23.7409L31.5898 23.4031L31.3682 22.7487Z" fill="url(#paint11_linear_2354_6693)"/>
<path d="M28.5059 24.1156L28.907 24.7437L29.8622 24.9231L28.9914 24.5959L28.6378 23.9045L28.5059 24.1156Z" fill="#F1396F"/>
<path d="M30.4443 23.06L30.6502 22.6906L30.7293 22.7064L30.5182 23.0864L30.4443 23.06Z" fill="white"/>
<path d="M31.2882 23.8728L30.6074 24.9706L31.1246 23.8675L31.0666 23.6037L31.2302 23.5773L31.2882 23.8728Z" fill="#DE3466"/>
<path d="M63 27.6152L63.855 25.6255L66.3513 25.9475L67.7552 24L69.9612 24.7336L70.241 26.4911L68.0666 29.8107L64.0925 29.1985L63 27.6152Z" fill="#F1396F"/>
<path opacity="0.17" d="M63.8545 25.6255L66.3508 25.9474L66.868 27.0927L64.245 26.491L63.8545 25.6255Z" fill="#FFD6A3"/>
<path opacity="0.3" d="M66.8668 27.0927L66.3496 25.9475L67.7535 24L68.1282 24.8972L66.8668 27.0927Z" fill="url(#paint12_linear_2354_6693)"/>
<path opacity="0.16" d="M64.2455 26.4911L63.855 25.6255L63 27.6152L63.4433 27.6891L64.2455 26.4911Z" fill="url(#paint13_linear_2354_6693)"/>
<path opacity="0.36" d="M63 27.6152L63.4433 27.6891L64.3036 29.0613L65.0108 29.341L64.0925 29.1985L63 27.6152Z" fill="url(#paint14_linear_2354_6693)"/>
<path opacity="0.35" d="M68.1286 24.8972L67.7539 24L69.96 24.7336L69.6116 25.14L68.1286 24.8972Z" fill="#FFD6A3"/>
<path opacity="0.12" d="M69.6123 25.1399L69.9606 24.7335L70.2403 26.491L69.8762 27.0451L70.0451 26.396L69.6123 25.1399Z" fill="url(#paint15_linear_2354_6693)"/>
<path d="M64.1025 27.7735L64.8731 28.9821L66.715 29.3304L65.0367 28.6918L64.3559 27.3619L64.1025 27.7735Z" fill="#F1396F"/>
<path d="M67.834 25.7364L68.2351 25.0239L68.3829 25.0608L67.9818 25.7944L67.834 25.7364Z" fill="white"/>
<path d="M69.4645 27.3091L68.1504 29.4149L69.1479 27.2986L69.037 26.7814L69.3537 26.7391L69.4645 27.3091Z" fill="#DE3466"/>
<path d="M55.9863 2.23773L56.5141 1.00804L58.0604 1.20331L58.9313 0L60.2982 0.45388L60.4671 1.54108L59.1213 3.59937L56.6619 3.21938L55.9863 2.23773Z" fill="#F1396F"/>
<path opacity="0.17" d="M56.5137 1.00806L58.06 1.20333L58.382 1.91582L56.7564 1.5411L56.5137 1.00806Z" fill="#FFD6A3"/>
<path opacity="0.3" d="M58.3825 1.91579L58.0605 1.20331L58.9314 0L59.1583 0.554156L58.3825 1.91579Z" fill="url(#paint16_linear_2354_6693)"/>
<path opacity="0.16" d="M56.7578 1.5411L56.5151 1.00806L55.9873 2.23775L56.2617 2.28525L56.7578 1.5411Z" fill="url(#paint17_linear_2354_6693)"/>
<path opacity="0.36" d="M55.9873 2.23773L56.2617 2.28523L56.7948 3.13493L57.2328 3.3091L56.6628 3.21938L55.9873 2.23773Z" fill="url(#paint18_linear_2354_6693)"/>
<path opacity="0.35" d="M59.1596 0.554156L58.9326 0L60.2995 0.45388L60.0831 0.707205L59.1596 0.554156Z" fill="#FFD6A3"/>
<path opacity="0.12" d="M60.082 0.707244L60.2984 0.453918L60.4673 1.54112L60.2404 1.88417L60.3512 1.48306L60.082 0.707244Z" fill="url(#paint19_linear_2354_6693)"/>
<path d="M56.6689 2.33802L57.1492 3.08744L58.2892 3.29855L57.2495 2.908L56.8273 2.07941L56.6689 2.33802Z" fill="#F1396F"/>
<path d="M58.9795 1.07662L59.2275 0.633301L59.3173 0.654416L59.0692 1.1083L58.9795 1.07662Z" fill="white"/>
<path d="M59.9876 2.04769L59.1748 3.35655L59.7923 2.04241L59.729 1.72047L59.919 1.69409L59.9876 2.04769Z" fill="#DE3466"/>
<path d="M66.2639 12.9937L67.3722 12.6454L68.1111 13.7695L69.3883 13.664L69.858 14.8198L69.2405 15.5428L67.1347 15.8173L66 13.9859L66.2639 12.9937Z" fill="#F1396F"/>
<path opacity="0.17" d="M67.3736 12.6454L68.1125 13.7695L67.8275 14.3817L67.1572 13.1045L67.3736 12.6454Z" fill="#FFD6A3"/>
<path opacity="0.3" d="M67.8271 14.3818L68.1121 13.7696L69.3893 13.664L69.1571 14.1284L67.8271 14.3818Z" fill="url(#paint20_linear_2354_6693)"/>
<path opacity="0.16" d="M67.1556 13.1045L67.372 12.6454L66.2637 12.9937L66.3851 13.1995L67.1556 13.1045Z" fill="url(#paint21_linear_2354_6693)"/>
<path opacity="0.36" d="M66.2639 12.9937L66.3853 13.1995L66.1319 14.0281L66.2639 14.4081L66 13.9859L66.2639 12.9937Z" fill="url(#paint22_linear_2354_6693)"/>
<path opacity="0.35" d="M69.1572 14.1284L69.3894 13.664L69.8592 14.8198L69.5742 14.8145L69.1572 14.1284Z" fill="#FFD6A3"/>
<path opacity="0.12" d="M69.5734 14.8146L69.8584 14.8199L69.2409 15.5429L68.8926 15.5904L69.2145 15.4321L69.5734 14.8146Z" fill="url(#paint23_linear_2354_6693)"/>
<path d="M66.582 13.4951L66.3604 14.2287L66.8617 15.0995L66.5398 14.197L66.8406 13.4529L66.582 13.4951Z" fill="#F1396F"/>
<path d="M68.7129 14.3026L69.1404 14.2181L69.1773 14.2867L68.7393 14.3817L68.7129 14.3026Z" fill="white"/>
<path d="M68.6446 15.5112L67.3252 15.7117L68.5338 15.3793L68.7079 15.1576L68.8346 15.2684L68.6446 15.5112Z" fill="#DE3466"/>
<path d="M25 12.1638L26.9211 10.1794L29.7499 11.6889L32.3043 10L34.6053 11.8788L34.1409 14.1007L30.0507 17.0721L25.5858 14.5441L25 12.1638Z" fill="#F1396F"/>
<path opacity="0.17" d="M26.9229 10.1794L29.7517 11.6889L29.852 13.2933L26.9967 11.388L26.9229 10.1794Z" fill="#FFD6A3"/>
<path opacity="0.3" d="M29.8522 13.2933L29.752 11.6889L32.3063 10L32.3486 11.2402L29.8522 13.2933Z" fill="url(#paint24_linear_2354_6693)"/>
<path opacity="0.16" d="M26.995 11.388L26.9211 10.1794L25 12.1638L25.4908 12.4541L26.995 11.388Z" fill="url(#paint25_linear_2354_6693)"/>
<path opacity="0.36" d="M25 12.1638L25.4908 12.4541L25.9025 14.4807L26.615 15.1351L25.5858 14.5441L25 12.1638Z" fill="url(#paint26_linear_2354_6693)"/>
<path opacity="0.35" d="M32.3469 11.2402L32.3047 10L34.6057 11.8788L34.0094 12.2008L32.3469 11.2402Z" fill="#FFD6A3"/>
<path opacity="0.12" d="M34.0112 12.2008L34.6076 11.8788L34.1431 14.1007L33.457 14.5968L33.9584 13.8949L34.0112 12.2008Z" fill="url(#paint27_linear_2354_6693)"/>
<path d="M26.2422 12.8499L26.6169 14.6443L28.6594 15.8899L26.9441 14.3699L26.733 12.4752L26.2422 12.8499Z" fill="#F1396F"/>
<path d="M31.6191 12.1163L32.4213 11.4408L32.5744 11.5516L31.7669 12.243L31.6191 12.1163Z" fill="white"/>
<path d="M32.8538 14.7235L30.3311 16.6446L32.4791 14.5652L32.5846 13.9002L32.9752 13.9899L32.8538 14.7235Z" fill="#DE3466"/>
<path d="M47.4856 16.6439L49.5333 16L50.9055 18.0847L53.2804 17.8788L54.1565 20.0163L53.0113 21.3621L49.1111 21.874L47 18.4858L47.4856 16.6439Z" fill="#FF97B2"/>
<path opacity="0.56" d="M49.1111 21.874L47 18.4858L47.4856 16.6439L49.5333 16L50.9055 18.0847L49.1111 21.874Z" fill="#FF7190"/>
<path opacity="0.17" d="M49.5335 16L50.9057 18.0847L50.3779 19.2141L49.1377 16.855L49.5335 16Z" fill="#FFD6A3"/>
<path opacity="0.05" d="M50.377 19.2141L50.9047 18.0847L53.2797 17.8788L52.8469 18.7391L50.377 19.2141Z" fill="url(#paint28_linear_2354_6693)"/>
<path opacity="0.06" d="M49.1382 16.855L49.5341 16.0001L47.4863 16.6439L47.7133 17.0239L49.1382 16.855Z" fill="url(#paint29_linear_2354_6693)"/>
<path opacity="0.05" d="M47.4856 16.6439L47.7125 17.0239L47.2428 18.5597L47.4856 19.2722L47 18.4858L47.4856 16.6439Z" fill="url(#paint30_linear_2354_6693)"/>
<path opacity="0.35" d="M52.8486 18.7392L53.2814 17.8789L54.1575 20.0164H53.6245L52.8486 18.7392Z" fill="#FFD6A3"/>
<path opacity="0.05" d="M53.6241 20.0164H54.1571L53.0118 21.3622L52.3574 21.4466L52.9644 21.1563L53.6241 20.0164Z" fill="url(#paint31_linear_2354_6693)"/>
<path opacity="0.24" d="M48.0816 17.5728L47.6699 18.9397L48.5988 20.5494L47.9919 18.8711L48.5566 17.4989L48.0816 17.5728Z" fill="#F1396F"/>
<path d="M52.0254 19.0664L52.8223 18.908L52.8909 19.04L52.0782 19.2141L52.0254 19.0664Z" fill="white"/>
<path opacity="0.24" d="M51.8982 21.3094L49.46 21.6841L51.703 21.0613L52.0196 20.6497L52.2571 20.8555L51.8982 21.3094Z" fill="#DE3466"/>
<path d="M0 7.74439L0.654433 6.23498L2.54911 6.47775L3.62048 5L5.29878 5.55944L5.50988 6.89996L3.8527 9.41741L0.828597 8.9477L0 7.74439Z" fill="#FF97B2"/>
<path opacity="0.56" d="M3.8527 9.41742L0.828597 8.94771L0 7.7444L0.654433 6.23499L2.54911 6.47775L3.8527 9.41742Z" fill="#FF7190"/>
<path opacity="0.17" d="M0.655273 6.23499L2.54995 6.47775L2.94578 7.35385L0.950821 6.88941L0.655273 6.23499Z" fill="#FFD6A3"/>
<path opacity="0.05" d="M2.94465 7.35384L2.54883 6.47775L3.62019 5L3.90519 5.68082L2.94465 7.35384Z" fill="url(#paint32_linear_2354_6693)"/>
<path opacity="0.06" d="M0.949981 6.88941L0.654433 6.23499L0 7.7444L0.33777 7.80245L0.949981 6.88941Z" fill="url(#paint33_linear_2354_6693)"/>
<path opacity="0.05" d="M0 7.74438L0.33777 7.80244L0.992204 8.84741L1.53053 9.05852L0.828597 8.94769L0 7.74438Z" fill="url(#paint34_linear_2354_6693)"/>
<path opacity="0.35" d="M3.90512 5.68082L3.62012 5L5.29842 5.55944L5.03454 5.87082L3.90512 5.68082Z" fill="#FFD6A3"/>
<path opacity="0.05" d="M5.03711 5.87083L5.30099 5.55945L5.5121 6.89997L5.23238 7.32219L5.36432 6.82608L5.03711 5.87083Z" fill="url(#paint35_linear_2354_6693)"/>
<path opacity="0.24" d="M0.838867 7.86582L1.42469 8.78942L2.82327 9.0533L1.55135 8.56775L1.03414 7.55444L0.838867 7.86582Z" fill="#F1396F"/>
<path d="M3.68457 6.32467L3.99068 5.78107L4.1015 5.80745L3.79012 6.36161L3.68457 6.32467Z" fill="white"/>
<path opacity="0.24" d="M4.91975 7.51748L3.91699 9.1219L4.67698 7.50692L4.59782 7.11638L4.83531 7.08472L4.91975 7.51748Z" fill="#DE3466"/>
<path d="M7.58055 10L8.7258 10.0528L9.02663 11.3511L10.251 11.6836L10.2985 12.9133L9.4805 13.3777L7.43277 12.9133L7 10.8339L7.58055 10Z" fill="#FF97B2"/>
<path opacity="0.56" d="M7.43277 12.9133L7 10.8339L7.58055 10L8.7258 10.0528L9.02663 11.3511L7.43277 12.9133Z" fill="#FF7190"/>
<path opacity="0.17" d="M8.72567 10.0528L9.0265 11.3511L8.55678 11.8155L8.37207 10.4117L8.72567 10.0528Z" fill="#FFD6A3"/>
<path opacity="0.05" d="M8.55859 11.8155L9.02831 11.3511L10.2527 11.6836L9.87801 12.0319L8.55859 11.8155Z" fill="url(#paint36_linear_2354_6693)"/>
<path opacity="0.06" d="M8.3727 10.4117L8.72631 10.0528L7.58105 10L7.62855 10.2322L8.3727 10.4117Z" fill="url(#paint37_linear_2354_6693)"/>
<path opacity="0.05" d="M7.58055 10L7.62804 10.2322L7.10555 10.913L7.10028 11.3141L7 10.8339L7.58055 10Z" fill="url(#paint38_linear_2354_6693)"/>
<path opacity="0.35" d="M9.87793 12.0319L10.2526 11.6836L10.3001 12.9133L10.031 12.813L9.87793 12.0319Z" fill="#FFD6A3"/>
<path opacity="0.05" d="M10.0306 12.813L10.2998 12.9133L9.48172 13.3777L9.13867 13.2985L9.49227 13.2616L10.0306 12.813Z" fill="url(#paint39_linear_2354_6693)"/>
<path opacity="0.24" d="M7.70974 10.5753L7.25586 11.1822L7.42474 12.1586L7.43002 11.2086L7.96306 10.6228L7.70974 10.5753Z" fill="#F1396F"/>
<path d="M9.40723 12.0477L9.83472 12.1111L9.84527 12.1902L9.40723 12.1269V12.0477Z" fill="white"/>
<path opacity="0.24" d="M8.93228 13.1455L7.64453 12.8869L8.8795 12.9819L9.117 12.8341L9.19089 12.9819L8.93228 13.1455Z" fill="#DE3466"/>
<path d="M46 5.09007L47.235 4.15063L48.6758 5.22728L50.238 4.50952L51.3568 5.74977L50.9082 6.94252L48.3855 8.24611L46.1214 6.45698L46 5.09007Z" fill="#FF97B2"/>
<path opacity="0.56" d="M48.3855 8.24611L46.1214 6.45698L46 5.09007L47.235 4.15063L48.6758 5.22728L48.3855 8.24611Z" fill="#FF7190"/>
<path opacity="0.17" d="M47.2348 4.15063L48.6756 5.22728L48.5965 6.12976L47.1768 4.82618L47.2348 4.15063Z" fill="#FFD6A3"/>
<path opacity="0.05" d="M48.5967 6.12976L48.6758 5.22728L50.238 4.50952L50.1589 5.20089L48.5967 6.12976Z" fill="url(#paint40_linear_2354_6693)"/>
<path opacity="0.06" d="M47.1769 4.82618L47.235 4.15063L46 5.09007L46.2481 5.29061L47.1769 4.82618Z" fill="url(#paint41_linear_2354_6693)"/>
<path opacity="0.05" d="M46 5.09009L46.2481 5.29063L46.3061 6.45172L46.6439 6.87393L46.1214 6.457L46 5.09009Z" fill="url(#paint42_linear_2354_6693)"/>
<path opacity="0.35" d="M50.1592 5.20089L50.2383 4.50952L51.3572 5.74978L50.993 5.87643L50.1592 5.20089Z" fill="#FFD6A3"/>
<path opacity="0.05" d="M50.994 5.87641L51.3581 5.74976L50.9095 6.94251L50.4873 7.15889L50.8251 6.81056L50.994 5.87641Z" fill="url(#paint43_linear_2354_6693)"/>
<path opacity="0.24" d="M46.6338 5.57563L46.6866 6.60477L47.7104 7.47031L46.8924 6.4781L46.9346 5.40674L46.6338 5.57563Z" fill="#F1396F"/>
<path d="M49.6787 5.6231L50.1801 5.32227L50.2592 5.39615L49.7473 5.70754L49.6787 5.6231Z" fill="white"/>
<path opacity="0.24" d="M50.1374 7.17476L48.5752 8.02974L49.9474 7.05865L50.0582 6.69977L50.2693 6.78421L50.1374 7.17476Z" fill="#DE3466"/>
<path d="M7.04221 35.5805L8.06081 35L9.03718 35.95L10.2774 35.5594L10.9952 36.5991L10.5413 37.4488L8.52524 38.1772L7 36.6202L7.04221 35.5805Z" fill="#FF97B2"/>
<path opacity="0.56" d="M8.52524 38.1772L7 36.6202L7.04221 35.5805L8.06081 35L9.03718 35.95L8.52524 38.1772Z" fill="#FF7190"/>
<path opacity="0.17" d="M8.06103 35L9.0374 35.95L8.88962 36.615L7.9502 35.5014L8.06103 35Z" fill="#FFD6A3"/>
<path opacity="0.05" d="M8.88965 36.615L9.03743 35.95L10.2777 35.5594L10.1457 36.0714L8.88965 36.615Z" fill="url(#paint44_linear_2354_6693)"/>
<path opacity="0.06" d="M7.94975 35.5014L8.06059 35L7.04199 35.5805L7.21088 35.76L7.94975 35.5014Z" fill="url(#paint45_linear_2354_6693)"/>
<path opacity="0.05" d="M7.04221 35.5806L7.2111 35.76L7.13722 36.6308L7.3536 36.9844L7 36.6203L7.04221 35.5806Z" fill="url(#paint46_linear_2354_6693)"/>
<path opacity="0.35" d="M10.1445 36.0714L10.2765 35.5594L10.9942 36.5991L10.7092 36.6572L10.1445 36.0714Z" fill="#FFD6A3"/>
<path opacity="0.05" d="M10.7098 36.6572L10.9948 36.5991L10.5409 37.4488L10.2031 37.5702L10.4934 37.3433L10.7098 36.6572Z" fill="url(#paint47_linear_2354_6693)"/>
<path opacity="0.24" d="M7.47016 36.008L7.41211 36.7839L8.09292 37.5333L7.57572 36.71L7.71293 35.9131L7.47016 36.008Z" fill="#F1396F"/>
<path d="M9.74902 36.3405L10.1501 36.1611L10.2029 36.2244L9.79125 36.4144L9.74902 36.3405Z" fill="white"/>
<path opacity="0.24" d="M9.94456 37.5491L8.68848 38.0347L9.80734 37.4436L9.92872 37.185L10.0765 37.2694L9.94456 37.5491Z" fill="#DE3466"/>
<path d="M70.0422 32.5964L71.0819 32L72.0794 32.9711L73.346 32.5753L74.0796 33.6361L73.6205 34.5069L71.5569 35.2511L70 33.6572L70.0422 32.5964Z" fill="#FF97B2"/>
<path opacity="0.56" d="M71.5569 35.2511L70 33.6572L70.0422 32.5964L71.0819 32L72.0794 32.9711L71.5569 35.2511Z" fill="#FF7190"/>
<path opacity="0.17" d="M71.0819 32L72.0794 32.9711L71.9264 33.6519L70.9658 32.5119L71.0819 32Z" fill="#FFD6A3"/>
<path opacity="0.05" d="M71.9277 33.6519L72.0808 32.9711L73.3474 32.5753L73.2155 33.0978L71.9277 33.6519Z" fill="url(#paint48_linear_2354_6693)"/>
<path opacity="0.06" d="M70.9666 32.512L71.0827 32L70.043 32.5964L70.2119 32.7758L70.9666 32.512Z" fill="url(#paint49_linear_2354_6693)"/>
<path opacity="0.05" d="M70.0422 32.5964L70.2111 32.7758L70.1372 33.6677L70.3589 34.0319L70 33.6572L70.0422 32.5964Z" fill="url(#paint50_linear_2354_6693)"/>
<path opacity="0.35" d="M73.2158 33.0978L73.3478 32.5753L74.0814 33.6361L73.7911 33.6994L73.2158 33.0978Z" fill="#FFD6A3"/>
<path opacity="0.05" d="M73.7907 33.6994L74.0809 33.6361L73.6218 34.5069L73.2734 34.6283L73.569 34.3961L73.7907 33.6994Z" fill="url(#paint51_linear_2354_6693)"/>
<path opacity="0.24" d="M70.476 33.0344L70.418 33.8261L71.1146 34.5913L70.5868 33.7522L70.7293 32.9341L70.476 33.0344Z" fill="#F1396F"/>
<path d="M72.8037 33.3722L73.2207 33.1927L73.2734 33.2561L72.8512 33.4461L72.8037 33.3722Z" fill="white"/>
<path opacity="0.24" d="M73.0032 34.6072L71.7207 35.1033L72.866 34.4963L72.9926 34.2325L73.1457 34.3169L73.0032 34.6072Z" fill="#DE3466"/>
<path d="M21 4.02135L21.2586 3.03443L22.4408 3.00804L22.958 2L24.0399 2.19L24.288 2.98692L23.5122 4.68633L21.6175 4.68105L21 4.02135Z" fill="#FF97B2"/>
<path opacity="0.56" d="M23.5122 4.68635L21.6175 4.68108L21 4.02137L21.2586 3.03445L22.4408 3.00806L23.5122 4.68635Z" fill="#FF7190"/>
<path opacity="0.17" d="M21.2578 3.03445L22.44 3.00806L22.762 3.50416L21.5006 3.40916L21.2578 3.03445Z" fill="#FFD6A3"/>
<path opacity="0.05" d="M22.7633 3.50414L22.4414 3.00804L22.9586 2L23.1961 2.39055L22.7633 3.50414Z" fill="url(#paint52_linear_2354_6693)"/>
<path opacity="0.06" d="M21.5014 3.40913L21.2586 3.03442L21 4.02134H21.2111L21.5014 3.40913Z" fill="url(#paint53_linear_2354_6693)"/>
<path opacity="0.05" d="M21 4.02136H21.2111L21.7072 4.60191L22.0555 4.68107H21.6175L21 4.02136Z" fill="url(#paint54_linear_2354_6693)"/>
<path opacity="0.35" d="M23.1955 2.39055L22.958 2L24.0399 2.19L23.9027 2.40111L23.1955 2.39055Z" fill="#FFD6A3"/>
<path opacity="0.05" d="M23.9023 2.40111L24.0396 2.19L24.2876 2.98693L24.1609 3.27193L24.1926 2.95526L23.9023 2.40111Z" fill="url(#paint55_linear_2354_6693)"/>
<path opacity="0.24" d="M21.5225 4.01604L21.9658 4.52269L22.8472 4.55436L22.0238 4.37492L21.6122 3.80493L21.5225 4.01604Z" fill="#F1396F"/>
<path d="M23.1162 2.80746L23.2534 2.4433L23.3273 2.44858L23.1901 2.82329L23.1162 2.80746Z" fill="white"/>
<path opacity="0.24" d="M23.9869 3.41971L23.5225 4.49635L23.8391 3.44081L23.7494 3.20332L23.8919 3.16638L23.9869 3.41971Z" fill="#DE3466"/>
<path d="M56.0422 26.5964L57.0819 26L58.0794 26.9711L59.346 26.5753L60.0796 27.6361L59.6205 28.5069L57.5569 29.251L56 27.6572L56.0422 26.5964Z" fill="#FF97B2"/>
<path opacity="0.56" d="M57.5569 29.251L56 27.6572L56.0422 26.5964L57.0819 26L58.0794 26.9711L57.5569 29.251Z" fill="#FF7190"/>
<path opacity="0.17" d="M57.0819 26L58.0794 26.9711L57.9264 27.6519L56.9658 26.5119L57.0819 26Z" fill="#FFD6A3"/>
<path opacity="0.05" d="M57.9277 27.6519L58.0808 26.9711L59.3474 26.5753L59.2155 27.0977L57.9277 27.6519Z" fill="url(#paint56_linear_2354_6693)"/>
<path opacity="0.06" d="M56.9666 26.5119L57.0827 26L56.043 26.5964L56.2118 26.7758L56.9666 26.5119Z" fill="url(#paint57_linear_2354_6693)"/>
<path opacity="0.05" d="M56.0422 26.5964L56.2111 26.7758L56.1372 27.673L56.3589 28.0319L56 27.6572L56.0422 26.5964Z" fill="url(#paint58_linear_2354_6693)"/>
<path opacity="0.35" d="M59.2148 27.0977L59.3468 26.5753L60.0804 27.6361L59.7901 27.6994L59.2148 27.0977Z" fill="#FFD6A3"/>
<path opacity="0.05" d="M59.7887 27.6994L60.079 27.6361L59.6198 28.5069L59.2715 28.6283L59.567 28.3961L59.7887 27.6994Z" fill="url(#paint59_linear_2354_6693)"/>
<path opacity="0.24" d="M56.476 27.0344L56.418 27.826L57.1199 28.5913L56.5869 27.7521L56.7293 26.9394L56.476 27.0344Z" fill="#F1396F"/>
<path d="M58.8086 27.3722L59.2203 27.1927L59.273 27.2561L58.8508 27.4461L58.8086 27.3722Z" fill="white"/>
<path opacity="0.24" d="M59.0028 28.6071L57.7256 29.1085L58.8656 28.4963L58.9922 28.2324L59.1453 28.3221L59.0028 28.6071Z" fill="#DE3466"/>
<path d="M35.3105 32.1035L32.2126 31.2854L31.1729 28.1874L34.2286 28.1663L36.4452 30.5202L35.3105 32.1035Z" fill="url(#paint60_linear_2354_6693)"/>
<path opacity="0.4" d="M36.4452 30.5202L34.2286 28.1663L31.1729 28.1874L32.2126 31.2854L31.5898 28.5621L33.9806 28.7416L36.0758 31.0321L36.4452 30.5202Z" fill="#D8216C"/>
<path opacity="0.17" d="M32.1289 29.7126L32.5564 30.9212L34.2241 31.544L32.7622 30.5043L32.1289 29.7126Z" fill="#FFB6D7"/>
<path d="M37.1102 30.9265L34.5664 27.9922L35.3897 24.9364L38.5985 26.2241L39.0366 29.6968L37.1102 30.9265Z" fill="url(#paint61_linear_2354_6693)"/>
<path opacity="0.4" d="M35.3897 24.9364L38.5985 26.2241L39.0366 29.6968L38.4666 30.061L37.8386 26.5514L35.6272 25.5275L34.5664 27.9922L35.3897 24.9364Z" fill="#D8216C"/>
<path opacity="0.53" d="M35.5797 26.3719L35.0889 27.9658L36.3133 29.3538L35.5427 27.8603L35.5797 26.3719Z" fill="#FFB6D7"/>
<path d="M39.1859 29.9185L39.0381 26.1239L42.5213 23.427L44.1891 27.1161L41.7086 30.5835L39.1859 29.9185Z" fill="url(#paint62_linear_2354_6693)"/>
<path opacity="0.63" d="M39.0381 26.1239L42.5213 23.427L44.1891 27.1161L41.7086 30.5835L41.1597 30.441L43.2919 27.0897L42.0569 24.2714L39.0381 26.1239Z" fill="#D8216C"/>
<path opacity="0.35" d="M39.5015 28.1399L39.3643 26.1714L40.9898 25.1844L39.9712 26.3561L39.5015 28.1399Z" fill="#FFB6D7"/>
<path d="M16.0049 60.0698L21.7839 38.4314L28.4707 29.7285H49.1064L55.1124 38.4314L61.1184 60.0698H43.2799H16.0049Z" fill="url(#paint63_linear_2354_6693)"/>
<path d="M16.0062 60.0698H34.3197H43.2811H61.1197L62.1963 63.5161H42.2731H15.1406L16.0062 60.0698Z" fill="url(#paint64_linear_2354_6693)"/>
<path opacity="0.71" d="M26.9678 31.6918L28.4719 29.7285H49.1076L51.72 33.5126L44.9224 31.6232L26.9678 31.6918Z" fill="#FFD4FF"/>
<path opacity="0.08" d="M28.472 29.7285H33.4752L26.9679 39.2019L24.6035 50.4486L27.7701 60.0698L30.335 63.5161H15.1406L21.7852 38.4314L28.472 29.7285Z" fill="#D63DB5"/>
<path opacity="0.46" d="M49.1064 29.7285L55.1124 38.4314L61.1184 60.0698L62.1951 63.5161H53.5502L48.5259 38.8325L43.9766 29.7285H49.1064Z" fill="#FFEB97"/>
<path d="M26.9141 36.4839L30.3709 35.3018L29.7851 34.0773L26.9141 36.4839Z" fill="#2D291B"/>
<path d="M50.6589 36.1937L47.1387 35.2279L47.6453 33.9665L50.6589 36.1937Z" fill="#2D291B"/>
<path d="M19.7109 41.2708L23.4 37.6978L28.5616 40.6744L37.4281 40.5689L37.9242 41.445L36.9267 45.1921L28.7885 50.702L20.6451 45.7251L19.7109 41.2708Z" fill="#850C8E"/>
<path d="M57.3303 41.8566L53.7732 37.6978L48.6116 40.6744L39.7451 40.5689L39.249 41.445L40.0671 45.2713L48.7119 50.8128L56.4331 45.7938L57.3303 41.8566Z" fill="#850C8E"/>
<path opacity="0.45" d="M20.8714 61.0198L18.449 63.5161H15.1399L15.3827 62.582L14.6016 57.7793L20.8714 61.0198Z" fill="#FF6CE3"/>
<path d="M14.6017 57.7793L20.4387 56.5707L19.3516 60.5448L18.2696 62.6664L15.3827 62.582L14 60.4446L14.6017 57.7793Z" fill="url(#paint65_linear_2354_6693)"/>
<path opacity="0.5" d="M14.6016 57.7793L19.3515 56.7924L19.1562 60.6293L14.6016 57.7793Z" fill="#FFE473"/>
<path d="M16.75 57.336L20.3652 55.7263L21.0144 57.0299L19.1566 60.6293L19.3519 56.7924L16.75 57.336Z" fill="url(#paint66_linear_2354_6693)"/>
<path opacity="0.14" d="M19.3519 56.7924L20.3652 55.7263L16.75 57.336L19.3519 56.7924Z" fill="#D63DB5"/>
<path d="M19.1552 60.6293L21.0129 57.0299L20.8704 61.0198L18.2686 62.6665L19.1552 60.6293Z" fill="url(#paint67_linear_2354_6693)"/>
<path opacity="0.45" d="M56.3633 61.0198L58.791 63.5162H62.1951L61.8732 62.487L62.6384 57.7794L56.3633 61.0198Z" fill="#FF6CE3"/>
<path d="M62.6379 57.7794L56.8008 56.5708L57.888 60.5449L58.9699 62.6665L61.899 62.582L63.2395 60.4446L62.6379 57.7794Z" fill="url(#paint68_linear_2354_6693)"/>
<path opacity="0.5" d="M62.6386 57.7793L57.8887 56.7924L58.084 60.6293L62.6386 57.7793Z" fill="#FFE473"/>
<path d="M60.4909 57.336L56.8757 55.7263L56.2266 57.0299L58.0843 60.6293L57.889 56.7924L60.4909 57.336Z" fill="url(#paint69_linear_2354_6693)"/>
<path opacity="0.14" d="M57.8883 56.7924L56.875 55.7263L60.4902 57.336L57.8883 56.7924Z" fill="#D63DB5"/>
<path d="M58.0843 60.6293L56.2266 57.0299L56.3638 61.0198L58.9709 62.6665L58.0843 60.6293Z" fill="url(#paint70_linear_2354_6693)"/>
<path d="M19.5615 40.5108L23.2506 36.9378L28.4174 39.9144L33.2676 36.9378L37.4264 40.5688L36.4342 44.6696L28.6391 49.942L20.4957 44.9599L19.5615 40.5108Z" fill="#F1396F"/>
<path d="M28.6391 49.942L20.4957 44.9599L19.5615 40.5108L23.2506 36.9378L28.4174 39.9144L28.6391 49.942Z" fill="#DE3466"/>
<path opacity="0.17" d="M23.252 36.9378L28.4188 39.9144L28.5032 42.9016L23.3206 39.1808L23.252 36.9378Z" fill="#FFD6A3"/>
<path opacity="0.3" d="M28.5024 42.9016L28.418 39.9144L33.2681 36.9378V39.2389L28.5024 42.9016Z" fill="url(#paint71_linear_2354_6693)"/>
<path opacity="0.16" d="M23.3192 39.1808L23.2506 36.9378L19.5615 40.5108L20.4587 41.0755L23.3192 39.1808Z" fill="url(#paint72_linear_2354_6693)"/>
<path opacity="0.36" d="M19.5615 40.5108L20.4587 41.0755L21.0921 44.8649L22.3798 46.1262L20.4957 44.9599L19.5615 40.5108Z" fill="url(#paint73_linear_2354_6693)"/>
<path opacity="0.35" d="M33.2676 39.2389V36.9378L37.4264 40.5688L36.297 41.1335L33.2676 39.2389Z" fill="#FFD6A3"/>
<path opacity="0.12" d="M36.2986 41.1336L37.428 40.5688L36.4358 44.6696L35.127 45.5457L36.1033 44.279L36.2986 41.1336Z" fill="url(#paint74_linear_2354_6693)"/>
<path d="M21.8271 41.8566L22.413 45.2185L26.1232 47.6568L23.0357 44.7277L22.7666 41.1916L21.8271 41.8566Z" fill="#F1396F"/>
<path d="M31.8643 40.8222L33.3895 39.6241L33.6798 39.8353L32.1281 41.0702L31.8643 40.8222Z" fill="white"/>
<path d="M33.9911 45.7409L29.1885 49.1609L33.3051 45.4295L33.5426 44.1999L34.2656 44.3951L33.9911 45.7409Z" fill="#DE3466"/>
<path d="M39.8193 40.5108L43.5084 36.9378L48.6753 39.9144L53.5254 36.9378L57.6842 40.5688L56.692 44.6696L48.9022 49.942L40.7588 44.9599L39.8193 40.5108Z" fill="#F1396F"/>
<path d="M48.9022 49.942L40.7588 44.9599L39.8193 40.5108L43.5084 36.9378L48.6753 39.9144L48.9022 49.942Z" fill="#DE3466"/>
<path opacity="0.17" d="M43.5088 36.9378L48.6756 39.9144L48.7653 42.9016L43.5774 39.1808L43.5088 36.9378Z" fill="#FFD6A3"/>
<path opacity="0.3" d="M48.7655 42.9016L48.6758 39.9144L53.526 36.9378V39.2389L48.7655 42.9016Z" fill="url(#paint75_linear_2354_6693)"/>
<path opacity="0.16" d="M43.577 39.1808L43.5084 36.9378L39.8193 40.5108L40.7165 41.0755L43.577 39.1808Z" fill="url(#paint76_linear_2354_6693)"/>
<path opacity="0.36" d="M39.8193 40.5108L40.7165 41.0755L41.3499 44.8648L42.6429 46.1262L40.7588 44.9598L39.8193 40.5108Z" fill="url(#paint77_linear_2354_6693)"/>
<path opacity="0.35" d="M53.5254 39.2389V36.9378L57.6842 40.5688L56.5548 41.1335L53.5254 39.2389Z" fill="#FFD6A3"/>
<path opacity="0.12" d="M56.5545 41.1336L57.6839 40.5689L56.6917 44.6696L55.3828 45.5457L56.3592 44.2791L56.5545 41.1336Z" fill="url(#paint78_linear_2354_6693)"/>
<path d="M42.084 41.8566L42.6698 45.2185L46.38 47.6568L43.2978 44.7277L43.0234 41.1916L42.084 41.8566Z" fill="#F1396F"/>
<path d="M52.1211 40.8222L53.6516 39.6241L53.9366 39.8353L52.385 41.0702L52.1211 40.8222Z" fill="white"/>
<path d="M54.249 45.7409L49.4463 49.1609L53.5682 45.4295L53.8004 44.1999L54.5234 44.3951L54.249 45.7409Z" fill="#DE3466"/>
<path d="M38.6465 47.4404V49.7151H42.7261L38.6465 47.4404Z" fill="url(#paint79_linear_2354_6693)"/>
<path d="M38.6465 49.7151V51.52H42.2195L40.6889 49.7151H38.6465Z" fill="url(#paint80_linear_2354_6693)"/>
<path d="M38.6465 49.7151H40.6889L40.7734 50.6176L38.6465 49.7151Z" fill="#D8216C"/>
<path d="M22.3804 48.6331L20.0635 50.9448L21.2351 54.2855H25.4942L26.1222 51.0609L22.3804 48.6331Z" fill="url(#paint81_linear_2354_6693)"/>
<path d="M54.6481 48.6331L56.965 50.9448L55.7934 54.2855H51.5343L50.9062 51.0609L54.6481 48.6331Z" fill="url(#paint82_linear_2354_6693)"/>
<defs>
<linearGradient id="paint0_linear_2354_6693" x1="12.1809" y1="21.0318" x2="10.5957" y2="24.8912" gradientUnits="userSpaceOnUse">
<stop stop-color="#001438"/>
<stop offset="1" stop-color="#001438"/>
</linearGradient>
<linearGradient id="paint1_linear_2354_6693" x1="6.74997" y1="25.022" x2="8.2012" y2="24.4159" gradientUnits="userSpaceOnUse">
<stop stop-color="#001438"/>
<stop offset="1" stop-color="#001438"/>
</linearGradient>
<linearGradient id="paint2_linear_2354_6693" x1="8.71726" y1="28.1983" x2="7.45203" y2="25.1692" gradientUnits="userSpaceOnUse">
<stop stop-color="#001438"/>
<stop offset="1" stop-color="#001438"/>
</linearGradient>
<linearGradient id="paint3_linear_2354_6693" x1="14.0875" y1="25.2" x2="13.8933" y2="24.0914" gradientUnits="userSpaceOnUse">
<stop stop-color="#001438"/>
<stop offset="1" stop-color="#001438"/>
</linearGradient>
<linearGradient id="paint4_linear_2354_6693" x1="70.6611" y1="9.97342" x2="69.1579" y2="10.176" gradientUnits="userSpaceOnUse">
<stop stop-color="#001438"/>
<stop offset="1" stop-color="#001438"/>
</linearGradient>
<linearGradient id="paint5_linear_2354_6693" x1="68.4211" y1="8.9913" x2="68.8729" y2="9.33577" gradientUnits="userSpaceOnUse">
<stop stop-color="#001438"/>
<stop offset="1" stop-color="#001438"/>
</linearGradient>
<linearGradient id="paint6_linear_2354_6693" x1="67.7732" y1="10.1883" x2="68.4976" y2="9.23835" gradientUnits="userSpaceOnUse">
<stop stop-color="#001438"/>
<stop offset="1" stop-color="#001438"/>
</linearGradient>
<linearGradient id="paint7_linear_2354_6693" x1="69.6972" y1="11.3345" x2="70.0062" y2="11.0694" gradientUnits="userSpaceOnUse">
<stop stop-color="#001438"/>
<stop offset="1" stop-color="#001438"/>
</linearGradient>
<linearGradient id="paint8_linear_2354_6693" x1="30.645" y1="21.6584" x2="29.817" y2="23.6744" gradientUnits="userSpaceOnUse">
<stop stop-color="#001438"/>
<stop offset="1" stop-color="#001438"/>
</linearGradient>
<linearGradient id="paint9_linear_2354_6693" x1="27.8029" y1="23.7432" x2="28.5626" y2="23.4258" gradientUnits="userSpaceOnUse">
<stop stop-color="#001438"/>
<stop offset="1" stop-color="#001438"/>
</linearGradient>
<linearGradient id="paint10_linear_2354_6693" x1="28.8327" y1="25.4006" x2="28.1716" y2="23.8179" gradientUnits="userSpaceOnUse">
<stop stop-color="#001438"/>
<stop offset="1" stop-color="#001438"/>
</linearGradient>
<linearGradient id="paint11_linear_2354_6693" x1="31.6398" y1="23.834" x2="31.5418" y2="23.2572" gradientUnits="userSpaceOnUse">
<stop stop-color="#001438"/>
<stop offset="1" stop-color="#001438"/>
</linearGradient>
<linearGradient id="paint12_linear_2354_6693" x1="68.2238" y1="23.0257" x2="66.6272" y2="26.9127" gradientUnits="userSpaceOnUse">
<stop stop-color="#001438"/>
<stop offset="1" stop-color="#001438"/>
</linearGradient>
<linearGradient id="paint13_linear_2354_6693" x1="62.7544" y1="27.044" x2="64.2154" y2="26.4337" gradientUnits="userSpaceOnUse">
<stop stop-color="#001438"/>
<stop offset="1" stop-color="#001438"/>
</linearGradient>
<linearGradient id="paint14_linear_2354_6693" x1="64.7319" y1="30.2446" x2="63.4585" y2="27.196" gradientUnits="userSpaceOnUse">
<stop stop-color="#001438"/>
<stop offset="1" stop-color="#001438"/>
</linearGradient>
<linearGradient id="paint15_linear_2354_6693" x1="70.1439" y1="27.2229" x2="69.9477" y2="26.1095" gradientUnits="userSpaceOnUse">
<stop stop-color="#001438"/>
<stop offset="1" stop-color="#001438"/>
</linearGradient>
<linearGradient id="paint16_linear_2354_6693" x1="59.2201" y1="-0.598066" x2="58.2284" y2="1.80658" gradientUnits="userSpaceOnUse">
<stop stop-color="#001438"/>
<stop offset="1" stop-color="#001438"/>
</linearGradient>
<linearGradient id="paint17_linear_2354_6693" x1="55.8341" y1="1.89192" x2="56.7399" y2="1.51357" gradientUnits="userSpaceOnUse">
<stop stop-color="#001438"/>
<stop offset="1" stop-color="#001438"/>
</linearGradient>
<linearGradient id="paint18_linear_2354_6693" x1="57.0619" y1="3.87279" x2="56.2726" y2="1.98327" gradientUnits="userSpaceOnUse">
<stop stop-color="#001438"/>
<stop offset="1" stop-color="#001438"/>
</linearGradient>
<linearGradient id="paint19_linear_2354_6693" x1="60.4132" y1="1.99795" x2="60.2921" y2="1.31074" gradientUnits="userSpaceOnUse">
<stop stop-color="#001438"/>
<stop offset="1" stop-color="#001438"/>
</linearGradient>
<linearGradient id="paint20_linear_2354_6693" x1="69.954" y1="13.5189" x2="67.8161" y2="14.2212" gradientUnits="userSpaceOnUse">
<stop stop-color="#001438"/>
<stop offset="1" stop-color="#001438"/>
</linearGradient>
<linearGradient id="paint21_linear_2354_6693" x1="66.4146" y1="12.695" x2="67.1689" y2="13.0747" gradientUnits="userSpaceOnUse">
<stop stop-color="#001438"/>
<stop offset="1" stop-color="#001438"/>
</linearGradient>
<linearGradient id="paint22_linear_2354_6693" x1="65.8007" y1="14.6193" x2="66.598" y2="13.0354" gradientUnits="userSpaceOnUse">
<stop stop-color="#001438"/>
<stop offset="1" stop-color="#001438"/>
</linearGradient>
<linearGradient id="paint23_linear_2354_6693" x1="68.9182" y1="15.7631" x2="69.3019" y2="15.2944" gradientUnits="userSpaceOnUse">
<stop stop-color="#001438"/>
<stop offset="1" stop-color="#001438"/>
</linearGradient>
<linearGradient id="paint24_linear_2354_6693" x1="33.3255" y1="9.0372" x2="29.6647" y2="12.956" gradientUnits="userSpaceOnUse">
<stop stop-color="#001438"/>
<stop offset="1" stop-color="#001438"/>
</linearGradient>
<linearGradient id="paint25_linear_2354_6693" x1="24.9785" y1="11.3644" x2="26.9987" y2="11.297" gradientUnits="userSpaceOnUse">
<stop stop-color="#001438"/>
<stop offset="1" stop-color="#001438"/>
</linearGradient>
<linearGradient id="paint26_linear_2354_6693" x1="25.896" y1="16.0757" x2="25.7553" y2="11.8559" gradientUnits="userSpaceOnUse">
<stop stop-color="#001438"/>
<stop offset="1" stop-color="#001438"/>
</linearGradient>
<linearGradient id="paint27_linear_2354_6693" x1="33.7224" y1="14.9171" x2="33.9921" y2="13.5035" gradientUnits="userSpaceOnUse">
<stop stop-color="#001438"/>
<stop offset="1" stop-color="#001438"/>
</linearGradient>
<linearGradient id="paint28_linear_2354_6693" x1="54.3323" y1="17.5849" x2="50.3722" y2="18.8984" gradientUnits="userSpaceOnUse">
<stop stop-color="#001438"/>
<stop offset="1" stop-color="#001438"/>
</linearGradient>
<linearGradient id="paint29_linear_2354_6693" x1="47.7723" y1="16.0694" x2="49.1779" y2="16.7748" gradientUnits="userSpaceOnUse">
<stop stop-color="#001438"/>
<stop offset="1" stop-color="#001438"/>
</linearGradient>
<linearGradient id="paint30_linear_2354_6693" x1="46.6404" y1="19.6293" x2="48.1128" y2="16.6953" gradientUnits="userSpaceOnUse">
<stop stop-color="#001438"/>
<stop offset="1" stop-color="#001438"/>
</linearGradient>
<linearGradient id="paint31_linear_2354_6693" x1="52.4204" y1="21.7503" x2="53.1274" y2="20.8828" gradientUnits="userSpaceOnUse">
<stop stop-color="#001438"/>
<stop offset="1" stop-color="#001438"/>
</linearGradient>
<linearGradient id="paint32_linear_2354_6693" x1="3.98347" y1="4.23865" x2="2.76563" y2="7.19189" gradientUnits="userSpaceOnUse">
<stop stop-color="#001438"/>
<stop offset="1" stop-color="#001438"/>
</linearGradient>
<linearGradient id="paint33_linear_2354_6693" x1="-0.181919" y1="7.29226" x2="0.933942" y2="6.828" gradientUnits="userSpaceOnUse">
<stop stop-color="#001438"/>
<stop offset="1" stop-color="#001438"/>
</linearGradient>
<linearGradient id="paint34_linear_2354_6693" x1="1.32379" y1="9.72969" x2="0.356763" y2="7.40539" gradientUnits="userSpaceOnUse">
<stop stop-color="#001438"/>
<stop offset="1" stop-color="#001438"/>
</linearGradient>
<linearGradient id="paint35_linear_2354_6693" x1="5.44621" y1="7.43242" x2="5.29441" y2="6.58669" gradientUnits="userSpaceOnUse">
<stop stop-color="#001438"/>
<stop offset="1" stop-color="#001438"/>
</linearGradient>
<linearGradient id="paint36_linear_2354_6693" x1="10.0515" y1="11.2497" x2="7.83397" y2="11.1711" gradientUnits="userSpaceOnUse">
<stop stop-color="#001438"/>
<stop offset="1" stop-color="#001438"/>
</linearGradient>
<linearGradient id="paint37_linear_2354_6693" x1="7.06173" y1="9.27728" x2="7.63235" y2="9.88986" gradientUnits="userSpaceOnUse">
<stop stop-color="#001438"/>
<stop offset="1" stop-color="#001438"/>
</linearGradient>
<linearGradient id="paint38_linear_2354_6693" x1="5.83949" y1="10.8471" x2="7.11858" y2="9.65557" gradientUnits="userSpaceOnUse">
<stop stop-color="#001438"/>
<stop offset="1" stop-color="#001438"/>
</linearGradient>
<linearGradient id="paint39_linear_2354_6693" x1="8.32496" y1="12.9655" x2="8.83848" y2="12.6671" gradientUnits="userSpaceOnUse">
<stop stop-color="#001438"/>
<stop offset="1" stop-color="#001438"/>
</linearGradient>
<linearGradient id="paint40_linear_2354_6693" x1="50.8964" y1="4.05577" x2="48.5267" y2="5.91442" gradientUnits="userSpaceOnUse">
<stop stop-color="#001438"/>
<stop offset="1" stop-color="#001438"/>
</linearGradient>
<linearGradient id="paint41_linear_2354_6693" x1="46.065" y1="4.63137" x2="47.1917" y2="4.76611" gradientUnits="userSpaceOnUse">
<stop stop-color="#001438"/>
<stop offset="1" stop-color="#001438"/>
</linearGradient>
<linearGradient id="paint42_linear_2354_6693" x1="46.173" y1="7.32852" x2="46.4544" y2="4.97562" gradientUnits="userSpaceOnUse">
<stop stop-color="#001438"/>
<stop offset="1" stop-color="#001438"/>
</linearGradient>
<linearGradient id="paint43_linear_2354_6693" x1="50.6153" y1="7.34935" x2="50.8816" y2="6.58923" gradientUnits="userSpaceOnUse">
<stop stop-color="#001438"/>
<stop offset="1" stop-color="#001438"/>
</linearGradient>
<linearGradient id="paint44_linear_2354_6693" x1="10.7898" y1="35.2895" x2="8.83403" y2="36.4544" gradientUnits="userSpaceOnUse">
<stop stop-color="#001438"/>
<stop offset="1" stop-color="#001438"/>
</linearGradient>
<linearGradient id="paint45_linear_2354_6693" x1="7.11322" y1="35.2508" x2="7.94712" y2="35.4621" gradientUnits="userSpaceOnUse">
<stop stop-color="#001438"/>
<stop offset="1" stop-color="#001438"/>
</linearGradient>
<linearGradient id="paint46_linear_2354_6693" x1="6.93028" y1="37.2842" x2="7.37107" y2="35.5448" gradientUnits="userSpaceOnUse">
<stop stop-color="#001438"/>
<stop offset="1" stop-color="#001438"/>
</linearGradient>
<linearGradient id="paint47_linear_2354_6693" x1="10.2565" y1="37.7352" x2="10.5322" y2="37.1844" gradientUnits="userSpaceOnUse">
<stop stop-color="#001438"/>
<stop offset="1" stop-color="#001438"/>
</linearGradient>
<linearGradient id="paint48_linear_2354_6693" x1="73.869" y1="32.3023" x2="71.8747" y2="33.4901" gradientUnits="userSpaceOnUse">
<stop stop-color="#001438"/>
<stop offset="1" stop-color="#001438"/>
</linearGradient>
<linearGradient id="paint49_linear_2354_6693" x1="70.1103" y1="32.2646" x2="70.9646" y2="32.4811" gradientUnits="userSpaceOnUse">
<stop stop-color="#001438"/>
<stop offset="1" stop-color="#001438"/>
</linearGradient>
<linearGradient id="paint50_linear_2354_6693" x1="69.9275" y1="34.3364" x2="70.3774" y2="32.5611" gradientUnits="userSpaceOnUse">
<stop stop-color="#001438"/>
<stop offset="1" stop-color="#001438"/>
</linearGradient>
<linearGradient id="paint51_linear_2354_6693" x1="73.3297" y1="34.7953" x2="73.6118" y2="34.2407" gradientUnits="userSpaceOnUse">
<stop stop-color="#001438"/>
<stop offset="1" stop-color="#001438"/>
</linearGradient>
<linearGradient id="paint52_linear_2354_6693" x1="23.1076" y1="1.51886" x2="22.6382" y2="3.44024" gradientUnits="userSpaceOnUse">
<stop stop-color="#001438"/>
<stop offset="1" stop-color="#001438"/>
</linearGradient>
<linearGradient id="paint53_linear_2354_6693" x1="20.8463" y1="3.77475" x2="21.4824" y2="3.38848" gradientUnits="userSpaceOnUse">
<stop stop-color="#001438"/>
<stop offset="1" stop-color="#001438"/>
</linearGradient>
<linearGradient id="paint54_linear_2354_6693" x1="21.9922" y1="5.12271" x2="21.184" y2="3.79197" gradientUnits="userSpaceOnUse">
<stop stop-color="#001438"/>
<stop offset="1" stop-color="#001438"/>
</linearGradient>
<linearGradient id="paint55_linear_2354_6693" x1="24.2957" y1="3.33453" x2="24.1265" y2="2.83218" gradientUnits="userSpaceOnUse">
<stop stop-color="#001438"/>
<stop offset="1" stop-color="#001438"/>
</linearGradient>
<linearGradient id="paint56_linear_2354_6693" x1="59.8701" y1="26.3026" x2="57.8759" y2="27.4905" gradientUnits="userSpaceOnUse">
<stop stop-color="#001438"/>
<stop offset="1" stop-color="#001438"/>
</linearGradient>
<linearGradient id="paint57_linear_2354_6693" x1="56.1178" y1="26.2612" x2="56.9671" y2="26.4764" gradientUnits="userSpaceOnUse">
<stop stop-color="#001438"/>
<stop offset="1" stop-color="#001438"/>
</linearGradient>
<linearGradient id="paint58_linear_2354_6693" x1="55.9287" y1="28.3368" x2="56.3785" y2="26.5615" gradientUnits="userSpaceOnUse">
<stop stop-color="#001438"/>
<stop offset="1" stop-color="#001438"/>
</linearGradient>
<linearGradient id="paint59_linear_2354_6693" x1="59.3288" y1="28.7957" x2="59.611" y2="28.2411" gradientUnits="userSpaceOnUse">
<stop stop-color="#001438"/>
<stop offset="1" stop-color="#001438"/>
</linearGradient>
<linearGradient id="paint60_linear_2354_6693" x1="36.2575" y1="29.8684" x2="31.6452" y2="28.0542" gradientUnits="userSpaceOnUse">
<stop stop-color="#FF292C"/>
<stop offset="1" stop-color="#FF7C6A"/>
</linearGradient>
<linearGradient id="paint61_linear_2354_6693" x1="38.9571" y1="29.9712" x2="36.3038" y2="25.493" gradientUnits="userSpaceOnUse">
<stop stop-color="#FF292C"/>
<stop offset="1" stop-color="#FF7C6A"/>
</linearGradient>
<linearGradient id="paint62_linear_2354_6693" x1="40.0959" y1="28.7158" x2="41.2568" y2="22.6062" gradientUnits="userSpaceOnUse">
<stop stop-color="#FF292C"/>
<stop offset="1" stop-color="#FF7C6A"/>
</linearGradient>
<linearGradient id="paint63_linear_2354_6693" x1="15.6354" y1="44.9018" x2="37.6644" y2="44.9018" gradientUnits="userSpaceOnUse">
<stop stop-color="#FFAE98"/>
<stop offset="1" stop-color="#FFD91D"/>
</linearGradient>
<linearGradient id="paint64_linear_2354_6693" x1="20.8774" y1="61.7903" x2="37.3965" y2="61.7903" gradientUnits="userSpaceOnUse">
<stop stop-color="#F5A792"/>
<stop offset="1" stop-color="#F5D01C"/>
</linearGradient>
<linearGradient id="paint65_linear_2354_6693" x1="17.2194" y1="57.0827" x2="17.2194" y2="65.6958" gradientUnits="userSpaceOnUse">
<stop stop-color="#FFCF51"/>
<stop offset="1" stop-color="#FFD91D"/>
</linearGradient>
<linearGradient id="paint66_linear_2354_6693" x1="16.75" y1="58.1752" x2="21.0144" y2="58.1752" gradientUnits="userSpaceOnUse">
<stop stop-color="#FFCF51"/>
<stop offset="1" stop-color="#FFD91D"/>
</linearGradient>
<linearGradient id="paint67_linear_2354_6693" x1="21.5249" y1="59.9907" x2="17.8516" y2="59.711" gradientUnits="userSpaceOnUse">
<stop stop-color="#EDAC00"/>
<stop offset="1" stop-color="#FFD91D"/>
</linearGradient>
<linearGradient id="paint68_linear_2354_6693" x1="60.0202" y1="57.0827" x2="60.0202" y2="65.6959" gradientUnits="userSpaceOnUse">
<stop stop-color="#FFCF51"/>
<stop offset="1" stop-color="#FFD91D"/>
</linearGradient>
<linearGradient id="paint69_linear_2354_6693" x1="60.4856" y1="58.1752" x2="56.2213" y2="58.1752" gradientUnits="userSpaceOnUse">
<stop stop-color="#FFCF51"/>
<stop offset="1" stop-color="#FFD91D"/>
</linearGradient>
<linearGradient id="paint70_linear_2354_6693" x1="55.7094" y1="59.9907" x2="59.3826" y2="59.711" gradientUnits="userSpaceOnUse">
<stop stop-color="#EDAC00"/>
<stop offset="1" stop-color="#FFD91D"/>
</linearGradient>
<linearGradient id="paint71_linear_2354_6693" x1="35.2103" y1="35.2067" x2="28.1646" y2="42.2577" gradientUnits="userSpaceOnUse">
<stop stop-color="#001438"/>
<stop offset="1" stop-color="#001438"/>
</linearGradient>
<linearGradient id="paint72_linear_2354_6693" x1="19.5615" y1="39.0066" x2="23.3192" y2="39.0066" gradientUnits="userSpaceOnUse">
<stop stop-color="#001438"/>
<stop offset="1" stop-color="#001438"/>
</linearGradient>
<linearGradient id="paint73_linear_2354_6693" x1="20.9707" y1="47.8204" x2="20.9707" y2="39.9778" gradientUnits="userSpaceOnUse">
<stop stop-color="#001438"/>
<stop offset="1" stop-color="#001438"/>
</linearGradient>
<linearGradient id="paint74_linear_2354_6693" x1="35.5808" y1="46.1579" x2="36.1667" y2="43.5402" gradientUnits="userSpaceOnUse">
<stop stop-color="#001438"/>
<stop offset="1" stop-color="#001438"/>
</linearGradient>
<linearGradient id="paint75_linear_2354_6693" x1="55.4734" y1="35.2067" x2="48.4225" y2="42.2577" gradientUnits="userSpaceOnUse">
<stop stop-color="#001438"/>
<stop offset="1" stop-color="#001438"/>
</linearGradient>
<linearGradient id="paint76_linear_2354_6693" x1="39.8193" y1="39.0066" x2="43.577" y2="39.0066" gradientUnits="userSpaceOnUse">
<stop stop-color="#001438"/>
<stop offset="1" stop-color="#001438"/>
</linearGradient>
<linearGradient id="paint77_linear_2354_6693" x1="41.2285" y1="47.8203" x2="41.2285" y2="39.9777" gradientUnits="userSpaceOnUse">
<stop stop-color="#001438"/>
<stop offset="1" stop-color="#001438"/>
</linearGradient>
<linearGradient id="paint78_linear_2354_6693" x1="55.842" y1="46.1579" x2="56.4278" y2="43.5402" gradientUnits="userSpaceOnUse">
<stop stop-color="#001438"/>
<stop offset="1" stop-color="#001438"/>
</linearGradient>
<linearGradient id="paint79_linear_2354_6693" x1="39.1215" y1="48.5804" x2="41.5492" y2="48.5804" gradientUnits="userSpaceOnUse">
<stop stop-color="#FF292C"/>
<stop offset="1" stop-color="#FF7C6A"/>
</linearGradient>
<linearGradient id="paint80_linear_2354_6693" x1="37.8496" y1="50.5912" x2="40.8314" y2="50.6334" gradientUnits="userSpaceOnUse">
<stop stop-color="#FF292C"/>
<stop offset="1" stop-color="#FF7C6A"/>
</linearGradient>
<linearGradient id="paint81_linear_2354_6693" x1="20.0688" y1="51.4567" x2="26.1222" y2="51.4567" gradientUnits="userSpaceOnUse">
<stop stop-color="#FF292C"/>
<stop offset="1" stop-color="#FF7C6A"/>
</linearGradient>
<linearGradient id="paint82_linear_2354_6693" x1="56.965" y1="51.4567" x2="50.9062" y2="51.4567" gradientUnits="userSpaceOnUse">
<stop stop-color="#FF292C"/>
<stop offset="1" stop-color="#FF7C6A"/>
</linearGradient>
</defs>
</svg>
