<svg width="28" height="28" viewBox="0 0 28 28" fill="none" xmlns="http://www.w3.org/2000/svg">
<g filter="url(#filter0_iiii_2516_8654)">
<path d="M26.9029 13.7472C26.9029 13.356 26.8096 12.9889 26.6532 12.6552C25.6102 9.29055 20.7273 9.53633 13.7818 9.37222C12.6206 9.345 13.2848 7.97378 13.6923 4.96378C13.9576 3.00611 12.6952 0 10.5734 0C7.075 0 10.4404 2.75955 7.34722 9.58378C5.69444 13.23 2 11.1876 2 14.8501V23.1871C2 24.6128 2.14 25.9832 4.14511 26.2088C6.08878 26.4273 5.65167 27.8126 8.45556 27.8126H22.4898C23.1772 27.8117 23.8362 27.5382 24.3222 27.0521C24.8082 26.5659 25.0815 25.9069 25.0821 25.2194C25.0821 24.6268 24.8744 24.087 24.5392 23.6499C25.3326 23.2058 25.877 22.3673 25.877 21.3951C25.877 20.804 25.6701 20.2642 25.3357 19.8279C26.1313 19.3846 26.6773 18.5453 26.6773 17.5716C26.6773 16.8646 26.3911 16.2237 25.9299 15.7547C26.2322 15.5144 26.4766 15.2093 26.645 14.8618C26.8135 14.5143 26.9016 14.1334 26.9029 13.7472Z" fill="url(#paint0_radial_2516_8654)"/>
<path d="M26.9029 13.7472C26.9029 13.356 26.8096 12.9889 26.6532 12.6552C25.6102 9.29055 20.7273 9.53633 13.7818 9.37222C12.6206 9.345 13.2848 7.97378 13.6923 4.96378C13.9576 3.00611 12.6952 0 10.5734 0C7.075 0 10.4404 2.75955 7.34722 9.58378C5.69444 13.23 2 11.1876 2 14.8501V23.1871C2 24.6128 2.14 25.9832 4.14511 26.2088C6.08878 26.4273 5.65167 27.8126 8.45556 27.8126H22.4898C23.1772 27.8117 23.8362 27.5382 24.3222 27.0521C24.8082 26.5659 25.0815 25.9069 25.0821 25.2194C25.0821 24.6268 24.8744 24.087 24.5392 23.6499C25.3326 23.2058 25.877 22.3673 25.877 21.3951C25.877 20.804 25.6701 20.2642 25.3357 19.8279C26.1313 19.3846 26.6773 18.5453 26.6773 17.5716C26.6773 16.8646 26.3911 16.2237 25.9299 15.7547C26.2322 15.5144 26.4766 15.2093 26.645 14.8618C26.8135 14.5143 26.9016 14.1334 26.9029 13.7472Z" fill="url(#paint1_radial_2516_8654)" fill-opacity="0.4"/>
<path d="M26.9029 13.7472C26.9029 13.356 26.8096 12.9889 26.6532 12.6552C25.6102 9.29055 20.7273 9.53633 13.7818 9.37222C12.6206 9.345 13.2848 7.97378 13.6923 4.96378C13.9576 3.00611 12.6952 0 10.5734 0C7.075 0 10.4404 2.75955 7.34722 9.58378C5.69444 13.23 2 11.1876 2 14.8501V23.1871C2 24.6128 2.14 25.9832 4.14511 26.2088C6.08878 26.4273 5.65167 27.8126 8.45556 27.8126H22.4898C23.1772 27.8117 23.8362 27.5382 24.3222 27.0521C24.8082 26.5659 25.0815 25.9069 25.0821 25.2194C25.0821 24.6268 24.8744 24.087 24.5392 23.6499C25.3326 23.2058 25.877 22.3673 25.877 21.3951C25.877 20.804 25.6701 20.2642 25.3357 19.8279C26.1313 19.3846 26.6773 18.5453 26.6773 17.5716C26.6773 16.8646 26.3911 16.2237 25.9299 15.7547C26.2322 15.5144 26.4766 15.2093 26.645 14.8618C26.8135 14.5143 26.9016 14.1334 26.9029 13.7472Z" fill="url(#paint2_radial_2516_8654)" fill-opacity="0.4"/>
</g>
<path d="M17.6193 16.3396H24.3113C25.2213 16.3396 26.0753 15.8527 26.5405 15.0695C26.6233 14.9147 26.6431 14.7338 26.5959 14.5647C26.5487 14.3957 26.438 14.2513 26.2869 14.1618C26.1358 14.0724 25.9561 14.0447 25.7851 14.0845C25.6141 14.1243 25.4651 14.2287 25.3691 14.3757C25.2598 14.5591 25.1049 14.711 24.9193 14.8167C24.7338 14.9223 24.5241 14.978 24.3106 14.9785H17.4583C16.7793 14.9785 16.2271 14.4262 16.2271 13.7472C16.2271 13.0682 16.7793 12.516 17.4583 12.516H22.0371C22.2176 12.516 22.3907 12.4443 22.5183 12.3167C22.646 12.1891 22.7177 12.016 22.7177 11.8355C22.7177 11.655 22.646 11.4819 22.5183 11.3542C22.3907 11.2266 22.2176 11.1549 22.0371 11.1549H17.4576C16.7703 11.1557 16.1114 11.4291 15.6254 11.9151C15.1394 12.4011 14.8661 13.06 14.8652 13.7472C14.8652 14.5445 15.2347 15.2499 15.8025 15.7259C15.5567 15.9664 15.3615 16.2535 15.2282 16.5704C15.0949 16.8874 15.0262 17.2277 15.0262 17.5716C15.0262 18.3711 15.398 19.0789 15.9689 19.5541C15.6993 19.8194 15.4912 20.1407 15.3595 20.4953C15.2278 20.8498 15.1756 21.229 15.2067 21.606C15.2378 21.983 15.3514 22.3485 15.5394 22.6767C15.7275 23.0049 15.9853 23.2877 16.2948 23.5052C15.8702 23.9755 15.6342 24.5859 15.6321 25.2195C15.6329 25.9067 15.9063 26.5656 16.3923 27.0516C16.8783 27.5376 17.5372 27.811 18.2245 27.8118H22.4898C22.9394 27.8106 23.3811 27.6931 23.7718 27.4706C24.1626 27.2482 24.4891 26.9285 24.7197 26.5425C24.8076 26.3875 24.8312 26.2043 24.7856 26.0322C24.7399 25.86 24.6286 25.7126 24.4755 25.6216C24.3224 25.5306 24.1397 25.5032 23.9667 25.5454C23.7936 25.5876 23.644 25.6959 23.5499 25.8471C23.4402 26.0306 23.285 26.1826 23.0992 26.2883C22.9135 26.3941 22.7035 26.45 22.4898 26.4507H18.2245C17.5455 26.4507 16.9932 25.8985 16.9932 25.2195C16.9932 24.5405 17.5455 23.9882 18.2245 23.9882H23.2847C23.7344 23.987 24.1761 23.8693 24.5668 23.6467C24.9576 23.4242 25.2841 23.1043 25.5146 22.7181C25.5624 22.6413 25.5944 22.5556 25.6087 22.4662C25.623 22.3768 25.6193 22.2855 25.5979 22.1975C25.5765 22.1096 25.5377 22.0268 25.4839 21.954C25.4301 21.8812 25.3623 21.8199 25.2844 21.7736C25.2066 21.7274 25.1204 21.6971 25.0307 21.6846C24.941 21.6721 24.8498 21.6776 24.7623 21.7008C24.6748 21.724 24.5928 21.7645 24.5211 21.8197C24.4494 21.875 24.3895 21.9441 24.3448 22.0228C24.2365 22.2075 24.0816 22.3606 23.8955 22.4667C23.7095 22.5727 23.4988 22.6281 23.2847 22.6271H17.7912C17.4739 22.6133 17.1741 22.4775 16.9544 22.2481C16.7347 22.0186 16.6121 21.7132 16.6121 21.3955C16.6121 21.0778 16.7347 20.7724 16.9544 20.543C17.1741 20.3135 17.4739 20.1777 17.7912 20.1639H24.0842C24.5339 20.1627 24.9755 20.0452 25.3663 19.8228C25.757 19.6003 26.0835 19.2806 26.3141 18.8946C26.402 18.7397 26.4257 18.5565 26.38 18.3843C26.3344 18.2121 26.2231 18.0647 26.07 17.9737C25.9168 17.8827 25.7342 17.8553 25.5611 17.8975C25.3881 17.9397 25.2384 18.048 25.1443 18.1992C25.0359 18.3838 24.8809 18.5367 24.6949 18.6426C24.5089 18.7485 24.2983 18.8037 24.0842 18.8028H17.6193C17.302 18.789 17.0022 18.6532 16.7825 18.4237C16.5628 18.1943 16.4402 17.8889 16.4402 17.5712C16.4402 17.2535 16.5628 16.9481 16.7825 16.7186C17.0022 16.4892 17.302 16.3534 17.6193 16.3396Z" fill="#EE9547"/>
<defs>
<filter id="filter0_iiii_2516_8654" x="2" y="-10" width="24.9028" height="37.8126" filterUnits="userSpaceOnUse" color-interpolation-filters="sRGB">
<feFlood flood-opacity="0" result="BackgroundImageFix"/>
<feBlend mode="normal" in="SourceGraphic" in2="BackgroundImageFix" result="shape"/>
<feColorMatrix in="SourceAlpha" type="matrix" values="0 0 0 0 0 0 0 0 0 0 0 0 0 0 0 0 0 0 127 0" result="hardAlpha"/>
<feOffset dy="-10"/>
<feGaussianBlur stdDeviation="5"/>
<feComposite in2="hardAlpha" operator="arithmetic" k2="-1" k3="1"/>
<feColorMatrix type="matrix" values="0 0 0 0 0.741667 0 0 0 0 0.356 0 0 0 0 0 0 0 0 0.3 0"/>
<feBlend mode="normal" in2="shape" result="effect1_innerShadow_2516_8654"/>
<feColorMatrix in="SourceAlpha" type="matrix" values="0 0 0 0 0 0 0 0 0 0 0 0 0 0 0 0 0 0 127 0" result="hardAlpha"/>
<feOffset dy="-3"/>
<feGaussianBlur stdDeviation="1.5"/>
<feComposite in2="hardAlpha" operator="arithmetic" k2="-1" k3="1"/>
<feColorMatrix type="matrix" values="0 0 0 0 0.741176 0 0 0 0 0.356863 0 0 0 0 0 0 0 0 0.25 0"/>
<feBlend mode="normal" in2="effect1_innerShadow_2516_8654" result="effect2_innerShadow_2516_8654"/>
<feColorMatrix in="SourceAlpha" type="matrix" values="0 0 0 0 0 0 0 0 0 0 0 0 0 0 0 0 0 0 127 0" result="hardAlpha"/>
<feOffset/>
<feGaussianBlur stdDeviation="3"/>
<feComposite in2="hardAlpha" operator="arithmetic" k2="-1" k3="1"/>
<feColorMatrix type="matrix" values="0 0 0 0 0.776471 0 0 0 0 0.278431 0 0 0 0 0 0 0 0 0.75 0"/>
<feBlend mode="normal" in2="effect2_innerShadow_2516_8654" result="effect3_innerShadow_2516_8654"/>
<feColorMatrix in="SourceAlpha" type="matrix" values="0 0 0 0 0 0 0 0 0 0 0 0 0 0 0 0 0 0 127 0" result="hardAlpha"/>
<feOffset dy="-3"/>
<feGaussianBlur stdDeviation="1.5"/>
<feComposite in2="hardAlpha" operator="arithmetic" k2="-1" k3="1"/>
<feColorMatrix type="matrix" values="0 0 0 0 1 0 0 0 0 1 0 0 0 0 1 0 0 0 0.5 0"/>
<feBlend mode="normal" in2="effect3_innerShadow_2516_8654" result="effect4_innerShadow_2516_8654"/>
</filter>
<radialGradient id="paint0_radial_2516_8654" cx="0" cy="0" r="1" gradientUnits="userSpaceOnUse" gradientTransform="translate(14.2656 6.43425) rotate(90) scale(8.0947 7.24786)">
<stop stop-color="#FDF3DF"/>
<stop offset="1" stop-color="#FFC533"/>
</radialGradient>
<radialGradient id="paint1_radial_2516_8654" cx="0" cy="0" r="1" gradientUnits="userSpaceOnUse" gradientTransform="translate(21.5135 16.397) rotate(171.8) scale(5.82063 6.47449)">
<stop stop-color="#FF5C28"/>
<stop offset="1" stop-color="#FF5C28" stop-opacity="0"/>
</radialGradient>
<radialGradient id="paint2_radial_2516_8654" cx="0" cy="0" r="1" gradientUnits="userSpaceOnUse" gradientTransform="translate(8.30625 16.7844) rotate(36.6699) scale(5.19003 5.38651)">
<stop stop-color="#FF5C28"/>
<stop offset="1" stop-color="#FF5C28" stop-opacity="0"/>
</radialGradient>
</defs>
</svg>
