<svg width="28" height="28" viewBox="0 0 28 28" fill="none" xmlns="http://www.w3.org/2000/svg">
<g clip-path="url(#clip0_2516_8673)">
<g filter="url(#filter0_ii_2516_8673)">
<path d="M13.5 28.1571C20.9558 28.1571 27 26.862 27 25.2643C27 23.6666 20.9558 23.5286 13.5 23.5286C6.04416 23.5286 0 23.6666 0 25.2643C0 26.862 6.04416 28.1571 13.5 28.1571Z" fill="url(#paint0_linear_2516_8673)"/>
<path d="M13.5 28.1571C20.9558 28.1571 27 26.862 27 25.2643C27 23.6666 20.9558 23.5286 13.5 23.5286C6.04416 23.5286 0 23.6666 0 25.2643C0 26.862 6.04416 28.1571 13.5 28.1571Z" fill="url(#paint1_radial_2516_8673)"/>
</g>
<g filter="url(#filter1_f_2516_8673)">
<path d="M13.4999 27.7714C18.1864 27.7714 21.9856 26.8748 21.9856 25.7688C21.9856 24.6628 18.1864 26.856 13.4999 26.856C8.81334 26.856 5.01416 24.6628 5.01416 25.7688C5.01416 26.8748 8.81334 27.7714 13.4999 27.7714Z" fill="#A2EFFF"/>
</g>
<g filter="url(#filter2_iiii_2516_8673)">
<path d="M27 13.5C27 20.9557 20.9557 27 13.5 27C6.04425 27 0 20.9557 0 13.5C0 6.04425 6.04425 0 13.5 0C20.9557 0 27 6.04425 27 13.5Z" fill="url(#paint2_radial_2516_8673)"/>
<path d="M27 13.5C27 20.9557 20.9557 27 13.5 27C6.04425 27 0 20.9557 0 13.5C0 6.04425 6.04425 0 13.5 0C20.9557 0 27 6.04425 27 13.5Z" fill="url(#paint3_radial_2516_8673)" fill-opacity="0.4"/>
<path d="M27 13.5C27 20.9557 20.9557 27 13.5 27C6.04425 27 0 20.9557 0 13.5C0 6.04425 6.04425 0 13.5 0C20.9557 0 27 6.04425 27 13.5Z" fill="url(#paint4_radial_2516_8673)" fill-opacity="0.4"/>
</g>
<path d="M16.5001 20.25C16.5001 22.3223 15.1568 22.5 13.5001 22.5C11.8426 22.5 10.5001 22.3223 10.5001 20.25C10.5001 18.1793 11.8426 15.75 13.5001 15.75C15.1568 15.75 16.5001 18.1793 16.5001 20.25ZM22.5001 11.25C22.4071 11.25 22.3126 11.2328 22.2218 11.196C18.3001 9.62775 16.6928 7.26525 16.6261 7.1655C16.3958 6.8205 16.4888 6.35475 16.8338 6.12525C17.1781 5.89575 17.6416 5.98725 17.8726 6.33075C17.8868 6.351 19.3201 8.4195 22.7783 9.8025C23.1631 9.957 23.3506 10.3928 23.1968 10.7775C23.0791 11.0715 22.7971 11.25 22.5001 11.25ZM4.5001 11.25C4.20235 11.25 3.9211 11.0715 3.80335 10.7783C3.6496 10.3935 3.83635 9.957 4.2211 9.80325C7.6801 8.42025 9.11335 6.35175 9.1276 6.3315C9.3586 5.9895 9.82435 5.89875 10.1678 6.129C10.5106 6.36 10.6036 6.82275 10.3741 7.16625C10.3073 7.266 8.7001 9.6285 4.7791 11.1968C4.6876 11.2328 4.5931 11.25 4.5001 11.25Z" fill="#664500"/>
<path d="M6.00004 26.25C5.20719 26.8072 9.6429 27.1929 9.00004 26.2155C8.35719 25.2382 9.00004 12 9.00004 12H6.00004C6.00004 12 6.7929 25.6929 6.00004 26.25Z" fill="url(#paint5_linear_2516_8673)"/>
<path d="M6.00004 26.25C5.20719 26.8072 9.6429 27.1929 9.00004 26.2155C8.35719 25.2382 9.00004 12 9.00004 12H6.00004C6.00004 12 6.7929 25.6929 6.00004 26.25Z" fill="url(#paint6_radial_2516_8673)"/>
<path d="M6.00004 26.25C5.20719 26.8072 9.6429 27.1929 9.00004 26.2155C8.35719 25.2382 9.00004 12 9.00004 12H6.00004C6.00004 12 6.7929 25.6929 6.00004 26.25Z" fill="url(#paint7_radial_2516_8673)"/>
<path d="M18 12H21C21 12 20.2071 25.6929 21 26.25C21.7928 26.8072 17.1 27.5525 18 26.2155C18.9 24.8786 18 12 18 12Z" fill="url(#paint8_linear_2516_8673)"/>
<path d="M18 12H21C21 12 20.2071 25.6929 21 26.25C21.7928 26.8072 17.1 27.5525 18 26.2155C18.9 24.8786 18 12 18 12Z" fill="url(#paint9_radial_2516_8673)"/>
<path d="M18 12H21C21 12 20.2071 25.6929 21 26.25C21.7928 26.8072 17.1 27.5525 18 26.2155C18.9 24.8786 18 12 18 12Z" fill="url(#paint10_radial_2516_8673)"/>
<path d="M11.2491 13.5C11.1366 13.5 11.0219 13.4745 10.9146 13.4213C8.28063 12.1043 5.61213 13.4078 5.58588 13.4213C5.21463 13.608 4.76463 13.4558 4.57938 13.086C4.39413 12.7155 4.54413 12.2648 4.91463 12.0795C5.05113 12.012 8.28813 10.4318 11.5859 12.0795C11.9564 12.2648 12.1064 12.7155 11.9211 13.086C11.7891 13.3485 11.5244 13.5 11.2491 13.5ZM21.7491 13.5C21.6366 13.5 21.5219 13.4745 21.4146 13.4213C18.7799 12.1043 16.1121 13.4078 16.0859 13.4213C15.7154 13.6073 15.2654 13.4565 15.0794 13.086C14.8941 12.7155 15.0441 12.2648 15.4146 12.0795C15.5511 12.012 18.7904 10.4325 22.0859 12.0795C22.4564 12.2648 22.6064 12.7155 22.4211 13.086C22.2891 13.3485 22.0244 13.5 21.7491 13.5Z" fill="#664500"/>
<path d="M13.5 21.75C14.7426 21.75 15.75 21.0785 15.75 20.25C15.75 19.4216 14.7426 18.75 13.5 18.75C12.2574 18.75 11.25 19.4216 11.25 20.25C11.25 21.0785 12.2574 21.75 13.5 21.75Z" fill="#E75A70"/>
</g>
<defs>
<filter id="filter0_ii_2516_8673" x="-1" y="22.5286" width="28" height="7.62857" filterUnits="userSpaceOnUse" color-interpolation-filters="sRGB">
<feFlood flood-opacity="0" result="BackgroundImageFix"/>
<feBlend mode="normal" in="SourceGraphic" in2="BackgroundImageFix" result="shape"/>
<feColorMatrix in="SourceAlpha" type="matrix" values="0 0 0 0 0 0 0 0 0 0 0 0 0 0 0 0 0 0 127 0" result="hardAlpha"/>
<feOffset dy="2"/>
<feGaussianBlur stdDeviation="1"/>
<feComposite in2="hardAlpha" operator="arithmetic" k2="-1" k3="1"/>
<feColorMatrix type="matrix" values="0 0 0 0 0.121569 0 0 0 0 0.466667 0 0 0 0 0.819608 0 0 0 1 0"/>
<feBlend mode="normal" in2="shape" result="effect1_innerShadow_2516_8673"/>
<feColorMatrix in="SourceAlpha" type="matrix" values="0 0 0 0 0 0 0 0 0 0 0 0 0 0 0 0 0 0 127 0" result="hardAlpha"/>
<feOffset dx="-2" dy="-2"/>
<feGaussianBlur stdDeviation="0.5"/>
<feComposite in2="hardAlpha" operator="arithmetic" k2="-1" k3="1"/>
<feColorMatrix type="matrix" values="0 0 0 0 0.8 0 0 0 0 0.968627 0 0 0 0 1 0 0 0 0.35 0"/>
<feBlend mode="overlay" in2="effect1_innerShadow_2516_8673" result="effect2_innerShadow_2516_8673"/>
</filter>
<filter id="filter1_f_2516_8673" x="3.01416" y="23.4572" width="20.9712" height="6.31427" filterUnits="userSpaceOnUse" color-interpolation-filters="sRGB">
<feFlood flood-opacity="0" result="BackgroundImageFix"/>
<feBlend mode="normal" in="SourceGraphic" in2="BackgroundImageFix" result="shape"/>
<feGaussianBlur stdDeviation="1" result="effect1_foregroundBlur_2516_8673"/>
</filter>
<filter id="filter2_iiii_2516_8673" x="0" y="-10" width="27" height="37" filterUnits="userSpaceOnUse" color-interpolation-filters="sRGB">
<feFlood flood-opacity="0" result="BackgroundImageFix"/>
<feBlend mode="normal" in="SourceGraphic" in2="BackgroundImageFix" result="shape"/>
<feColorMatrix in="SourceAlpha" type="matrix" values="0 0 0 0 0 0 0 0 0 0 0 0 0 0 0 0 0 0 127 0" result="hardAlpha"/>
<feOffset dy="-10"/>
<feGaussianBlur stdDeviation="5"/>
<feComposite in2="hardAlpha" operator="arithmetic" k2="-1" k3="1"/>
<feColorMatrix type="matrix" values="0 0 0 0 0.741667 0 0 0 0 0.356 0 0 0 0 0 0 0 0 0.3 0"/>
<feBlend mode="normal" in2="shape" result="effect1_innerShadow_2516_8673"/>
<feColorMatrix in="SourceAlpha" type="matrix" values="0 0 0 0 0 0 0 0 0 0 0 0 0 0 0 0 0 0 127 0" result="hardAlpha"/>
<feOffset dy="-3"/>
<feGaussianBlur stdDeviation="1.5"/>
<feComposite in2="hardAlpha" operator="arithmetic" k2="-1" k3="1"/>
<feColorMatrix type="matrix" values="0 0 0 0 0.741176 0 0 0 0 0.356863 0 0 0 0 0 0 0 0 0.25 0"/>
<feBlend mode="normal" in2="effect1_innerShadow_2516_8673" result="effect2_innerShadow_2516_8673"/>
<feColorMatrix in="SourceAlpha" type="matrix" values="0 0 0 0 0 0 0 0 0 0 0 0 0 0 0 0 0 0 127 0" result="hardAlpha"/>
<feOffset/>
<feGaussianBlur stdDeviation="3"/>
<feComposite in2="hardAlpha" operator="arithmetic" k2="-1" k3="1"/>
<feColorMatrix type="matrix" values="0 0 0 0 0.776471 0 0 0 0 0.278431 0 0 0 0 0 0 0 0 0.75 0"/>
<feBlend mode="normal" in2="effect2_innerShadow_2516_8673" result="effect3_innerShadow_2516_8673"/>
<feColorMatrix in="SourceAlpha" type="matrix" values="0 0 0 0 0 0 0 0 0 0 0 0 0 0 0 0 0 0 127 0" result="hardAlpha"/>
<feOffset dy="-3"/>
<feGaussianBlur stdDeviation="1.5"/>
<feComposite in2="hardAlpha" operator="arithmetic" k2="-1" k3="1"/>
<feColorMatrix type="matrix" values="0 0 0 0 1 0 0 0 0 1 0 0 0 0 1 0 0 0 0.5 0"/>
<feBlend mode="normal" in2="effect3_innerShadow_2516_8673" result="effect4_innerShadow_2516_8673"/>
</filter>
<linearGradient id="paint0_linear_2516_8673" x1="13.5" y1="22.3714" x2="13.5" y2="28.1571" gradientUnits="userSpaceOnUse">
<stop stop-color="#0047B3"/>
<stop offset="0.639583" stop-color="#48BDFF"/>
<stop offset="1" stop-color="#A2EEFF"/>
</linearGradient>
<radialGradient id="paint1_radial_2516_8673" cx="0" cy="0" r="1" gradientUnits="userSpaceOnUse" gradientTransform="translate(9.66667 23.9977) rotate(131.461) scale(2.57761 7.15857)">
<stop stop-color="#FCFFFF"/>
<stop offset="1" stop-color="#CCF7FF" stop-opacity="0"/>
</radialGradient>
<radialGradient id="paint2_radial_2516_8673" cx="0" cy="0" r="1" gradientUnits="userSpaceOnUse" gradientTransform="translate(13.2985 6.24627) rotate(90) scale(7.85821)">
<stop stop-color="#FDF3DF"/>
<stop offset="1" stop-color="#FFC533"/>
</radialGradient>
<radialGradient id="paint3_radial_2516_8673" cx="0" cy="0" r="1" gradientUnits="userSpaceOnUse" gradientTransform="translate(21.1567 15.9179) rotate(172.648) scale(6.29805)">
<stop stop-color="#FF5C28"/>
<stop offset="1" stop-color="#FF5C28" stop-opacity="0"/>
</radialGradient>
<radialGradient id="paint4_radial_2516_8673" cx="0" cy="0" r="1" gradientUnits="userSpaceOnUse" gradientTransform="translate(6.83731 16.294) rotate(33.6901) scale(5.42447)">
<stop stop-color="#FF5C28"/>
<stop offset="1" stop-color="#FF5C28" stop-opacity="0"/>
</radialGradient>
<linearGradient id="paint5_linear_2516_8673" x1="13.5" y1="12" x2="13.5" y2="26.25" gradientUnits="userSpaceOnUse">
<stop stop-color="#0047B3"/>
<stop offset="0.765625" stop-color="#48BDFF"/>
<stop offset="1" stop-color="#A2EEFF"/>
</linearGradient>
<radialGradient id="paint6_radial_2516_8673" cx="0" cy="0" r="1" gradientUnits="userSpaceOnUse" gradientTransform="translate(12.3186 17.6847) rotate(103.151) scale(8.33459 8.86051)">
<stop stop-color="#CCF7FF"/>
<stop offset="0.519791" stop-color="#48BDFF"/>
<stop offset="0.676041" stop-color="#289AD8"/>
<stop offset="1" stop-color="#48BDFF" stop-opacity="0"/>
</radialGradient>
<radialGradient id="paint7_radial_2516_8673" cx="0" cy="0" r="1" gradientUnits="userSpaceOnUse" gradientTransform="translate(11.3704 16.0056) rotate(101.271) scale(4.85121 5.2045)">
<stop stop-color="#FCFFFF"/>
<stop offset="1" stop-color="#CCF7FF" stop-opacity="0"/>
</radialGradient>
<linearGradient id="paint8_linear_2516_8673" x1="13.5" y1="12" x2="13.5" y2="26.25" gradientUnits="userSpaceOnUse">
<stop stop-color="#0047B3"/>
<stop offset="0.765625" stop-color="#48BDFF"/>
<stop offset="1" stop-color="#A2EEFF"/>
</linearGradient>
<radialGradient id="paint9_radial_2516_8673" cx="0" cy="0" r="1" gradientUnits="userSpaceOnUse" gradientTransform="translate(12.3185 17.6847) rotate(103.151) scale(8.33459 8.8605)">
<stop stop-color="#CCF7FF"/>
<stop offset="0.519791" stop-color="#48BDFF"/>
<stop offset="0.676041" stop-color="#289AD8"/>
<stop offset="1" stop-color="#48BDFF" stop-opacity="0"/>
</radialGradient>
<radialGradient id="paint10_radial_2516_8673" cx="0" cy="0" r="1" gradientUnits="userSpaceOnUse" gradientTransform="translate(11.3704 16.0056) rotate(101.271) scale(4.85121 5.2045)">
<stop stop-color="#FCFFFF"/>
<stop offset="1" stop-color="#CCF7FF" stop-opacity="0"/>
</radialGradient>
<clipPath id="clip0_2516_8673">
<rect width="28" height="28" fill="white"/>
</clipPath>
</defs>
</svg>
