<svg width="25" height="25" viewBox="0 0 25 25" fill="none" xmlns="http://www.w3.org/2000/svg">
<path d="M13.8124 7.45797C13.8124 9.24299 13.1033 10.9549 11.8411 12.2171C10.5789 13.4793 8.86702 14.1884 7.082 14.1884C5.29697 14.1884 3.58506 13.4793 2.32286 12.2171C1.06066 10.9549 0.351563 9.24299 0.351562 7.45797C0.351562 5.67295 1.06066 3.96104 2.32286 2.69884C3.58506 1.43664 5.29697 0.727539 7.082 0.727539C8.86702 0.727539 10.5789 1.43664 11.8411 2.69884C13.1033 3.96104 13.8124 5.67295 13.8124 7.45797ZM7.82982 4.46667C7.82982 4.26833 7.75103 4.07812 7.61079 3.93788C7.47054 3.79763 7.28033 3.71884 7.082 3.71884C6.88366 3.71884 6.69345 3.79763 6.5532 3.93788C6.41296 4.07812 6.33417 4.26833 6.33417 4.46667V6.71015H4.09069C3.89236 6.71015 3.70214 6.78894 3.5619 6.92918C3.42165 7.06942 3.34287 7.25964 3.34287 7.45797C3.34287 7.65631 3.42165 7.84652 3.5619 7.98676C3.70214 8.12701 3.89236 8.2058 4.09069 8.2058H6.33417V10.4493C6.33417 10.6476 6.41296 10.8378 6.5532 10.9781C6.69345 11.1183 6.88366 11.1971 7.082 11.1971C7.28033 11.1971 7.47054 11.1183 7.61079 10.9781C7.75103 10.8378 7.82982 10.6476 7.82982 10.4493V8.2058H10.0733C10.2716 8.2058 10.4618 8.12701 10.6021 7.98676C10.7423 7.84652 10.8211 7.65631 10.8211 7.45797C10.8211 7.25964 10.7423 7.06942 10.6021 6.92918C10.4618 6.78894 10.2716 6.71015 10.0733 6.71015H7.82982V4.46667ZM7.082 15.6841C8.49004 15.6843 9.87458 15.3232 11.1031 14.6351C12.3316 13.9471 13.3629 12.9553 14.0984 11.7546C14.8338 10.5538 15.2487 9.18445 15.3034 7.77747C15.3581 6.37049 15.0507 4.97302 14.4107 3.71884H19.795C20.9851 3.71884 22.1263 4.19157 22.9678 5.03304C23.8093 5.87451 24.282 7.01578 24.282 8.2058V20.171C24.282 21.1432 23.9739 22.0406 23.4489 22.7764L15.3874 14.8375C14.9676 14.4242 14.4022 14.1925 13.8132 14.1925C13.2241 14.1925 12.6587 14.4242 12.239 14.8375L4.17744 22.7764C3.63354 22.0167 3.34165 21.1054 3.34287 20.171V14.7867C4.4646 15.361 5.73591 15.6841 7.082 15.6841ZM17.5516 11.1971C17.7499 11.1971 17.9401 11.1183 18.0804 10.9781C18.2206 10.8378 18.2994 10.6476 18.2994 10.4493C18.2994 10.2509 18.2206 10.0607 18.0804 9.92048C17.9401 9.78024 17.7499 9.70145 17.5516 9.70145C17.3532 9.70145 17.163 9.78024 17.0228 9.92048C16.8825 10.0607 16.8037 10.2509 16.8037 10.4493C16.8037 10.6476 16.8825 10.8378 17.0228 10.9781C17.163 11.1183 17.3532 11.1971 17.5516 11.1971ZM17.5516 12.6928C18.1466 12.6928 18.7172 12.4564 19.1379 12.0357C19.5587 11.6149 19.795 11.0443 19.795 10.4493C19.795 9.85427 19.5587 9.28363 19.1379 8.8629C18.7172 8.44216 18.1466 8.2058 17.5516 8.2058C16.9566 8.2058 16.3859 8.44216 15.9652 8.8629C15.5444 9.28363 15.3081 9.85427 15.3081 10.4493C15.3081 11.0443 15.5444 11.6149 15.9652 12.0357C16.3859 12.4564 16.9566 12.6928 17.5516 12.6928ZM5.23487 23.8324C5.96773 24.3529 6.86363 24.658 7.82982 24.658H19.795C20.7612 24.658 21.6571 24.3529 22.39 23.8324L14.3374 15.9054C14.1975 15.7675 14.0089 15.6902 13.8124 15.6902C13.616 15.6902 13.4274 15.7675 13.2875 15.9054L5.23487 23.8324Z" fill="#7B7B7B"/>
</svg>
