<svg width="18" height="20" viewBox="0 0 18 20" fill="none" xmlns="http://www.w3.org/2000/svg">
<path fill-rule="evenodd" clip-rule="evenodd" d="M9 0C7.89543 0 7 0.89543 7 2V2.34141C4.66961 3.16508 3 5.38756 3 8L3 9.5L3 11.5996L1.38253 13.8237C0.940077 14.432 0.876417 15.2372 1.21777 15.9076C1.55913 16.5779 2.24775 17 3 17H6C6 18.6569 7.34315 20 9 20C10.6569 20 12 18.6569 12 17H15C15.7522 17 16.4409 16.5779 16.7822 15.9076C17.1236 15.2372 17.0599 14.432 16.6175 13.8237L15 11.5996L15 9.5V8C15 5.38756 13.3304 3.16508 11 2.34141V2C11 0.895431 10.1046 0 9 0ZM10.0012 15H10H8L5.47299 15H3L4.45455 13L4.61747 12.776C4.86608 12.4341 5 12.0223 5 11.5996V9.5V8C5 5.79086 6.79086 4 9 4C11.2091 4 13 5.79086 13 8L13 9.5V11.5996C13 12.0223 13.1339 12.4341 13.3825 12.776L13.5455 13L15 15H12.527H10.0012ZM9 18C8.44772 18 8 17.5523 8 17H10C10 17.5523 9.55229 18 9 18ZM14.0715 1.62861C14.2766 1.11583 14.8586 0.86641 15.3714 1.07152L15 2C15.3714 1.07152 15.372 1.07178 15.3727 1.07203L15.374 1.07257L15.3768 1.0737L15.3829 1.07622L15.3975 1.08233C15.4082 1.08688 15.4209 1.09242 15.4353 1.09898C15.4643 1.11211 15.5006 1.12941 15.5433 1.15134C15.6285 1.19515 15.7394 1.25776 15.8672 1.34295C16.1227 1.51327 16.448 1.77557 16.7682 2.15982C17.4219 2.94424 18 4.17226 18 6C18 6.55228 17.5523 7 17 7C16.4477 7 16 6.55228 16 6C16 4.62774 15.5781 3.85576 15.2318 3.44018C15.052 3.22443 14.8773 3.08673 14.7578 3.00705C14.6981 2.96724 14.6528 2.94235 14.6286 2.92991C14.6203 2.92565 14.6146 2.9229 14.6117 2.92154C14.1104 2.71051 13.8687 2.13573 14.0715 1.62861ZM2.62861 1.07152C3.14139 0.86641 3.72336 1.11583 3.92848 1.62861C4.13132 2.13573 3.88963 2.71051 3.38829 2.92154C3.38542 2.9229 3.37969 2.92565 3.37141 2.92991C3.34722 2.94235 3.30191 2.96724 3.2422 3.00705C3.12268 3.08673 2.94802 3.22443 2.76822 3.44018C2.4219 3.85576 2 4.62774 2 6C2 6.55228 1.55228 7 1 7C0.447715 7 0 6.55228 0 6C0 4.17226 0.578095 2.94424 1.23178 2.15982C1.55198 1.77557 1.87732 1.51327 2.1328 1.34295C2.26059 1.25776 2.37153 1.19515 2.45671 1.15134C2.49935 1.12941 2.53569 1.11211 2.56465 1.09898C2.57914 1.09242 2.5918 1.08688 2.60249 1.08233L2.61706 1.07622L2.62322 1.0737L2.62601 1.07257L2.62733 1.07203C2.62798 1.07178 2.62861 1.07152 3 2L2.62861 1.07152Z" fill="#527898"/>
</svg>
