<svg width="20" height="20" viewBox="0 0 20 20" fill="none" xmlns="http://www.w3.org/2000/svg">
<path fill-rule="evenodd" clip-rule="evenodd" d="M4.00001 0C3.44772 0 3.00001 0.447715 3.00001 1V2H1.00001C0.696689 2 0.409763 2.13767 0.219967 2.37427C0.0301715 2.61087 -0.0419775 2.92083 0.023822 3.21693L1.02382 7.71693C1.1255 8.17447 1.53131 8.5 2.00001 8.5H3.1611C3.7782 11.3265 6.103 13.5147 9.00001 13.9291V18H7.00001C6.44772 18 6.00001 18.4477 6.00001 19C6.00001 19.5523 6.44772 20 7.00001 20H13C13.5523 20 14 19.5523 14 19C14 18.4477 13.5523 18 13 18H11V13.9291C13.897 13.5147 16.2218 11.3265 16.8389 8.5H18C18.4687 8.5 18.8745 8.17447 18.9762 7.71693L19.9762 3.21693C20.042 2.92083 19.9698 2.61087 19.7801 2.37427C19.5903 2.13767 19.3033 2 19 2H17V1C17 0.447715 16.5523 0 16 0H4.00001ZM2.24662 4H3.00001V6.5H2.80218L2.24662 4ZM15 3V2H5.00001V3V7C5.00001 9.76142 7.23859 12 10 12C12.7614 12 15 9.76142 15 7V3ZM17 4H17.7534L17.1978 6.5H17V4ZM10 4C8.89544 4 8.00001 4.89543 8.00001 6C8.00001 7.10457 8.89544 8 10 8C11.1046 8 12 7.10457 12 6C12 4.89543 11.1046 4 10 4Z" fill="#527898"/>
</svg>
