<svg width="20" height="20" viewBox="0 0 20 20" fill="none" xmlns="http://www.w3.org/2000/svg">
<path fill-rule="evenodd" clip-rule="evenodd" d="M0 10C0 15.5228 4.47715 20 10 20C15.5228 20 20 15.5228 20 10C20 4.47715 15.5228 0 10 0C4.47715 0 0 4.47715 0 10ZM2 10C2 5.58172 5.58172 2 10 2C14.4183 2 18 5.58172 18 10C18 14.4183 14.4183 18 10 18C5.58172 18 2 14.4183 2 10ZM14.4273 8.13103C15.2302 6.36456 13.413 4.54733 11.6465 5.35027L8.03435 6.99218C7.57213 7.20228 7.20168 7.57273 6.99157 8.03497L5.34967 11.6471C4.54672 13.4136 6.36395 15.2308 8.13043 14.4279L11.7426 12.786C12.2048 12.5759 12.5753 12.2054 12.7854 11.7432L14.4273 8.13103ZM8.31871 9.94848L8.81231 8.86257C8.82231 8.84056 8.83995 8.82291 8.86196 8.81291L9.94788 8.31931L10.7427 7.95805L12.3947 7.20712L12.4741 7.17101C12.5583 7.13277 12.6448 7.21931 12.6066 7.30342L12.5704 7.38287L11.8195 9.03491L11.4583 9.82969L10.9647 10.9156C10.9547 10.9376 10.937 10.9553 10.915 10.9653L9.82909 11.4589L9.03431 11.8201L7.38227 12.5711L7.30282 12.6072C7.2187 12.6454 7.13217 12.5589 7.1704 12.4747L7.20652 12.3953L7.95744 10.7433L8.31871 9.94848Z" fill="#0177FD"/>
</svg>
