<svg width="14" height="20" viewBox="0 0 14 20" fill="none" xmlns="http://www.w3.org/2000/svg">
<path fill-rule="evenodd" clip-rule="evenodd" d="M9.28213 0.312942C9.58181 0.62984 9.64153 1.10441 9.42971 1.48568C9.41535 1.51153 9.40104 1.53723 9.38681 1.56277C9.09587 2.08504 8.8384 2.54725 8.84711 3.1256C8.85525 3.66548 9.24403 4.64752 10.5338 5.73574C12.2794 7.20864 13.1423 9.02444 13.569 10.4472C13.7828 11.1602 13.8901 11.784 13.9442 12.2342C13.9714 12.4597 13.9853 12.643 13.9924 12.7738C13.996 12.8392 13.9979 12.8916 13.9989 12.9297C13.9994 12.9488 13.9997 12.9643 13.9998 12.976L14 12.9909L14 12.9962L14 12.9983C14 12.9983 14 13 13 13H14C14 16.866 10.866 20 7 20C3.13401 20 0 16.866 0 13C0 11.0708 0.270818 9.38719 0.655314 8.13731C0.846426 7.51606 1.07537 6.97001 1.33429 6.54645C1.46359 6.33495 1.61569 6.1286 1.79493 5.95593C1.96706 5.79011 2.22146 5.60021 2.55827 5.52443C2.83311 5.46259 3.12129 5.51954 3.35194 5.6813C3.5826 5.84305 3.73432 6.09459 3.76981 6.37406C3.80188 6.62658 3.90678 6.99636 4.07376 7.38677C4.06542 6.72353 4.11444 6.0194 4.25001 5.31185C4.62771 3.34067 5.6991 1.27308 8.11945 0.100139C8.51195 -0.09007 8.98245 -0.00395477 9.28213 0.312942ZM12 13.0027C11.9986 15.7629 9.76054 18 7 18C4.23858 18 2 15.7615 2 13C2 11.2915 2.23503 9.84006 2.54224 8.80693C2.62101 8.95127 2.70476 9.09281 2.79301 9.22961C3.29556 10.0087 4.18578 11 5.44445 11C5.75953 11 6.05618 10.8515 6.245 10.5993C6.43382 10.3471 6.49271 10.0206 6.40394 9.71828C6.14438 8.83438 5.91532 7.24848 6.21428 5.68822C6.34182 5.02257 6.56129 4.37519 6.90932 3.7881C7.11181 4.90179 7.82121 6.06382 9.24403 7.26433C10.6095 8.41642 11.3021 9.85063 11.6533 11.0216C11.8283 11.6055 11.9154 12.1145 11.9585 12.4729C11.98 12.6517 11.9904 12.7916 11.9954 12.883C11.9979 12.9287 11.9991 12.9621 11.9996 12.982L12 13.0016L12 13.0027Z" fill="#527898"/>
</svg>
