<svg width="20" height="18" viewBox="0 0 20 18" fill="none" xmlns="http://www.w3.org/2000/svg">
<path fill-rule="evenodd" clip-rule="evenodd" d="M19.7305 0.317143C20.0097 0.615792 20.079 1.05429 19.9055 1.42444L12.4055 17.4244C12.2522 17.7513 11.9347 17.9702 11.5748 17.9972C11.2148 18.0242 10.8682 17.8551 10.668 17.5547L8.8064 14.7624L5.99614 16.3682C5.68664 16.5451 5.30639 16.5438 4.99808 16.3649C4.68976 16.186 4.5 15.8565 4.5 15.5V10.6499L0.593863 8.91382C0.224879 8.74983 -0.00927353 8.38001 0.000281811 7.97634C0.00983715 7.57267 0.261225 7.21435 0.637556 7.068L18.6376 0.0680017C19.0186 -0.0801675 19.4514 0.0184931 19.7305 0.317143ZM6.5 11.618L6.81526 11.7757L7.69437 13.0943L6.5 13.7768V11.618ZM8.82006 11.1773L11.3477 14.9688L16.0871 4.85819L8.82006 11.1773ZM14.0109 4.01318L3.60073 8.06157L5.90614 9.08619C5.91998 9.09235 5.93367 9.09881 5.94722 9.10558L7.34874 9.80634L14.0109 4.01318Z" fill="#ADADAD"/>
</svg>
