<svg width="14" height="14" viewBox="0 0 14 14" fill="none" xmlns="http://www.w3.org/2000/svg">
<path fill-rule="evenodd" clip-rule="evenodd" d="M10.6353 0.725766C10.112 0.202414 9.26343 0.202414 8.74008 0.725766L1.22707 8.23877C1.04079 8.42506 0.913541 8.66212 0.861236 8.92032L0.360196 11.3937C0.271003 11.834 0.408365 12.2897 0.726032 12.6074C1.0437 12.9251 1.49941 13.0624 1.93971 12.9732L4.4131 12.4722C4.6713 12.4199 4.90836 12.2926 5.09464 12.1063L12.6077 4.59334C13.131 4.06998 13.131 3.22146 12.6077 2.69811L10.6353 0.725766ZM2.04866 9.80852L1.96248 10.2339L1.67364 11.6598L3.0995 11.3709L3.52489 11.2848L2.04866 9.80852ZM2.74821 8.61286L4.72056 10.5852L9.80691 5.49886L7.83456 3.52651L2.74821 8.61286ZM11.66 3.64572L10.7545 4.55124L8.78217 2.5789L9.68769 1.67338L10.6353 2.62099L10.7124 2.69811L11.66 3.64572ZM9.5835 10.7499C9.26133 10.7499 9.00016 11.0111 9.00016 11.3333C9.00016 11.6554 9.26133 11.9166 9.5835 11.9166H10.7502V13.0833C10.7502 13.4054 11.0113 13.6666 11.3335 13.6666C11.6557 13.6666 11.9168 13.4054 11.9168 13.0833V11.9166H13.0835C13.4057 11.9166 13.6668 11.6554 13.6668 11.3333C13.6668 11.0111 13.4057 10.7499 13.0835 10.7499H11.9168V9.58325C11.9168 9.26109 11.6557 8.99992 11.3335 8.99992C11.0113 8.99992 10.7502 9.26109 10.7502 9.58325V10.7499H9.5835Z" fill="white"/>
</svg>
