<svg width="20" height="20" viewBox="0 0 20 20" fill="none" xmlns="http://www.w3.org/2000/svg">
<path fill-rule="evenodd" clip-rule="evenodd" d="M14.7237 0.0596463C15.4441 0.235919 16.0102 0.781616 16.2024 1.48493L17.1728 5.0365C18.4316 5.13261 19.5494 5.99147 19.8948 7.25557C20.2402 8.51968 19.7101 9.81158 18.6689 10.512L19.6392 14.0633C19.8314 14.7666 19.6193 15.5168 19.0853 16.0227C18.5513 16.5286 17.7794 16.7105 17.0693 16.4979L14.8043 15.8196C13.0353 15.2899 11.1943 15.0686 9.36375 15.1571L10.1299 17.961C10.2759 18.4954 9.9525 19.0447 9.40759 19.1878L6.44767 19.9656C5.90276 20.1088 5.34267 19.7917 5.19666 19.2573L4.26219 15.8372C2.36185 15.6627 0.6842 14.3547 0.161269 12.4408C-0.510365 9.98266 0.977145 7.45603 3.48372 6.79738L3.59092 6.76921C6.47445 6.0115 9.08308 4.47499 11.1198 2.33462L12.7355 0.636625C13.2421 0.10428 14.0033 -0.116627 14.7237 0.0596463ZM6.31173 15.5978L6.90557 17.7712L7.89221 17.512L7.3118 15.3877C6.97686 15.4471 6.64332 15.5172 6.31173 15.5978ZM17.9309 7.811L17.9108 7.73755C17.9146 7.74962 17.9182 7.7618 17.9215 7.77409C17.9249 7.78639 17.928 7.79869 17.9309 7.811ZM14.2291 2.00345L12.6134 3.70145L12.586 3.73018C10.2923 6.12987 7.3598 7.85293 4.11966 8.70434L4.01245 8.73251C2.5957 9.10479 1.75493 10.5329 2.13455 11.9223C2.51417 13.3116 3.97042 14.1361 5.38718 13.7639L5.49438 13.7357C8.73453 12.8843 12.1526 12.9386 15.3625 13.8921L15.4009 13.9036L17.6659 14.5818L17.0426 12.3004L14.8525 4.28482L14.2291 2.00345Z" fill="#ADADAD"/>
</svg>
