<svg width="24" height="24" viewBox="0 0 24 24" fill="none" xmlns="http://www.w3.org/2000/svg">
<path d="M12 9.75V12.75" stroke="#7B7B7B" stroke-width="2" stroke-linecap="round" stroke-linejoin="round"/>
<path d="M10.702 3.74857L2.45423 17.9978C2.32226 18.2258 2.25266 18.4846 2.25244 18.748C2.25222 19.0115 2.32139 19.2703 2.45299 19.4986C2.58459 19.7268 2.77397 19.9163 3.00209 20.0481C3.2302 20.1799 3.489 20.2493 3.75245 20.2493H20.248C20.5114 20.2493 20.7702 20.1799 20.9984 20.0481C21.2265 19.9163 21.4159 19.7268 21.5474 19.4986C21.679 19.2703 21.7482 19.0115 21.748 18.748C21.7478 18.4846 21.6782 18.2258 21.5462 17.9978L13.2984 3.74857C13.1667 3.52093 12.9774 3.33193 12.7495 3.20055C12.5216 3.06916 12.2632 3 12.0002 3C11.7372 3 11.4788 3.06916 11.2509 3.20055C11.0231 3.33193 10.8338 3.52093 10.702 3.74857V3.74857Z" stroke="#7B7B7B" stroke-width="2" stroke-linecap="round" stroke-linejoin="round"/>
<path d="M12.5 16.5C12.5 16.7761 12.2761 17 12 17C11.7239 17 11.5 16.7761 11.5 16.5C11.5 16.2239 11.7239 16 12 16C12.2761 16 12.5 16.2239 12.5 16.5Z" fill="#7B7B7B" stroke="#7B7B7B" stroke-width="2"/>
</svg>
