<svg width="157" height="96" viewBox="0 0 157 96" fill="none" xmlns="http://www.w3.org/2000/svg">
<g clip-path="url(#clip0_2787_7552)">
<path d="M155.935 7.2378C154.272 4.48781 150.813 3.75 147.687 3.28049C124.605 -0.0731701 100.924 0.262196 77.9086 4.42073C75.2479 4.89024 72.4541 5.56098 70.7246 7.64024C68.9951 9.71951 68.7956 12.6707 68.729 15.4207C68.5295 20.4512 68.3299 25.4817 68.1969 30.5122C67.9973 35.5427 68.0638 41.1768 71.4563 44.6646C73.6514 46.9451 76.9109 47.8841 80.0372 47.8171C83.1636 47.75 86.2235 46.878 89.2168 46.0061C88.8177 51.5061 88.4186 57.0061 88.0195 62.5732C90.7468 59.622 93.474 56.6037 96.2013 53.6524C97.9973 51.7073 99.8599 49.6951 102.188 48.4207C105.647 46.5427 109.638 46.5427 113.496 46.6098C124.339 46.6768 135.181 46.811 146.024 46.878C148.552 46.878 151.412 46.7439 153.008 44.7988C154.139 43.4573 154.339 41.5122 154.538 39.7012C155.337 31.3841 156.068 23.0671 156.867 14.75C157.066 12.1341 157.266 9.38415 155.935 7.2378Z" fill="white"/>
<path d="M153.607 37.4208C153.541 39.0976 153.541 41.0427 153.474 42.9208C153.341 44.6647 152.077 46.4756 150.281 47.0793C149.816 47.2805 149.35 47.3476 148.884 47.3476H148.552H148.153H147.355C146.29 47.3476 145.159 47.3476 144.029 47.3476C141.767 47.3476 139.505 47.3476 137.244 47.3476C134.982 47.3476 132.72 47.3476 130.459 47.3476C128.197 47.3476 126.002 47.4147 123.94 47.4147C119.683 47.4817 115.692 47.5488 112.299 47.6159C108.907 47.6829 106.046 47.8171 104.051 47.8842C103.452 47.8842 102.92 47.9512 102.454 47.9512L103.585 46.6098L107.643 46.5427L111.967 46.4086C114.827 46.3415 117.687 46.2744 120.547 46.0732C117.687 45.939 114.827 45.872 111.967 45.7378L107.643 45.6037L103.319 45.5366H103.12L102.986 45.7378L100.991 47.9512C100.924 47.9512 100.924 47.9512 100.924 47.9512C100.924 47.9512 100.924 47.9512 100.991 47.9512L98.7293 50.4329L94.5386 55.1951L90.3479 60.0244L87.3545 63.5122C87.4211 61.0305 87.4211 58.4817 87.4876 56L87.6206 46.7439V46.2744H87.2215C84.8933 46.3415 82.4987 46.3415 80.1705 46.4756C77.8424 46.5427 75.4477 46.6098 73.1195 46.7439C75.4477 46.8781 77.8424 46.9451 80.1705 47.0122C82.3656 47.0793 84.5608 47.1464 86.7559 47.2134L86.6894 48.0183C86.4898 48.0183 86.2902 48.0183 85.9577 48.0183C85.1594 47.9512 84.0951 47.9512 82.6317 47.8842C81.1683 47.8171 79.4388 47.8171 77.4432 47.75C76.4455 47.75 75.3812 47.6829 74.2503 47.6829C73.9843 47.6829 73.7182 47.6829 73.3856 47.6829H72.9865H72.5208C71.9887 47.6159 71.4565 47.4817 70.9244 47.2134C69.9266 46.7439 68.9953 45.872 68.5297 44.7988C68.2636 44.2622 68.1306 43.6586 68.0641 43.0549C68.0641 42.7866 68.0641 42.3842 68.0641 42.0488C68.0641 41.7134 68.0641 41.3781 68.0641 40.9756C68.0641 38.1586 68.1306 35.1403 68.1306 32.0549C68.1971 28.9695 68.1306 25.75 68.1306 22.5305C68.1306 19.311 68.0641 15.9573 68.0641 12.6708L67.9976 10.1891C67.9976 9.38417 67.931 8.51222 68.0641 7.84149C68.3302 6.36588 69.3279 5.02442 70.6583 4.28661C71.3235 3.95125 72.0552 3.68295 72.8534 3.68295C73.6517 3.68295 74.4499 3.68295 75.2481 3.68295C76.8446 3.68295 78.3745 3.68295 79.9044 3.68295C86.0242 3.61588 91.7448 3.61588 96.6672 3.61588C106.512 3.54881 113.031 3.48173 113.031 3.48173C113.031 3.48173 106.512 3.41466 96.6672 3.34759C91.7448 3.34759 86.0242 3.28051 79.9044 3.28051C78.3745 3.28051 76.778 3.28051 75.2481 3.28051C74.4499 3.28051 73.6517 3.28051 72.8534 3.28051C72.1217 3.01222 71.257 3.21344 70.4588 3.54881C68.9288 4.28661 67.7315 5.82929 67.3324 7.5732C67.1328 8.51222 67.1993 9.3171 67.1328 10.122L67.0663 12.6037C67.0663 15.8903 66.9998 19.1769 66.9998 22.4634C66.9998 25.683 66.9333 28.9025 66.9998 31.9878C66.9998 35.0732 67.0663 38.0915 67.0663 40.9086C67.0663 41.2439 67.0663 41.6464 67.0663 41.9817C67.0663 42.3171 67.0663 42.6525 67.0663 43.0549C67.1328 43.7927 67.3324 44.5305 67.665 45.2012C68.3302 46.5427 69.3945 47.4817 70.6583 48.0183C71.257 48.2866 71.9222 48.4208 72.5874 48.4878H73.053H73.5186C73.7847 48.4878 74.1173 48.4878 74.3834 48.4878C75.5142 48.4878 76.5785 48.4207 77.5763 48.4207C79.5718 48.3537 81.3013 48.2866 82.7647 48.2866C84.2282 48.2195 85.2925 48.2195 86.0907 48.1525C86.3568 48.1525 86.6228 48.1525 86.8224 48.1525L86.3568 56C86.2237 59.0854 86.1572 62.1708 86.0242 65.2561L85.9577 67L87.0885 65.7256L91.2792 60.9634L95.4698 56.1342L99.594 51.3049L102.321 48.0854C102.787 48.0854 103.386 48.1525 104.051 48.1525C106.046 48.2195 108.84 48.3537 112.299 48.4207C115.692 48.4878 119.683 48.5549 123.94 48.622C126.069 48.622 128.264 48.689 130.459 48.689C132.72 48.689 134.982 48.689 137.244 48.689C139.505 48.689 141.767 48.689 144.029 48.689C145.159 48.689 146.224 48.689 147.355 48.689H148.153C148.419 48.689 148.685 48.689 149.018 48.689C149.616 48.622 150.215 48.4878 150.747 48.2866C151.811 47.8842 152.809 47.0793 153.408 46.1403C154.073 45.2012 154.406 44.1281 154.472 43.0549C154.472 41.0427 154.406 39.2317 154.406 37.4878C154.339 34.0671 154.206 31.183 154.139 29.1708C154.073 27.1586 154.006 26.0183 154.006 26.0183C154.006 26.0183 153.94 27.1586 153.873 29.1708C153.807 31.1159 153.674 34 153.607 37.4208Z" fill="#7B7B7B"/>
<path d="M153.009 4.689C152.41 4.01827 151.678 3.48169 150.814 3.14632C150.015 2.81095 149.018 2.67681 148.219 2.74388C141.767 2.81095 135.248 2.9451 130.459 3.07925C128.064 3.14632 126.002 3.21339 124.605 3.21339C123.208 3.28047 122.41 3.28047 122.41 3.28047C122.41 3.28047 123.208 3.28047 124.605 3.34754C126.002 3.41461 128.064 3.41461 130.459 3.48169C135.315 3.61583 141.767 3.74998 148.219 3.81705C149.018 3.81705 149.683 3.9512 150.348 4.21949C151.013 4.48778 151.612 4.95729 152.078 5.49388C152.543 6.03047 152.876 6.63412 153.075 7.30486C153.275 7.97559 153.275 8.64632 153.275 9.4512C153.275 12.5366 153.341 15.3536 153.408 17.8353C153.474 20.25 153.607 22.3292 153.741 23.7378C153.807 24.4756 153.807 25.0122 153.874 25.4146C153.874 25.8171 153.94 26.0183 153.94 26.0183C153.94 26.0183 153.94 25.8171 154.007 25.4146C154.073 25.0122 154.073 24.4756 154.14 23.7378C154.206 22.3292 154.339 20.25 154.472 17.8353C154.539 15.4207 154.605 12.5366 154.605 9.4512C154.605 8.71339 154.605 7.77437 154.339 6.96949C154.073 6.09754 153.607 5.35973 153.009 4.689Z" fill="#7B7B7B"/>
<path d="M113.762 2.0061C110.769 2.0061 107.776 2.0061 104.915 2.07318C102.122 2.07318 99.4609 2.14025 97.1992 2.14025C94.9376 2.14025 93.0751 2.20732 91.7447 2.2744C90.4143 2.34147 89.6826 2.34147 89.6826 2.34147C89.6826 2.34147 90.4143 2.34147 91.7447 2.40854C93.0751 2.40854 94.9376 2.47562 97.1992 2.54269C99.4609 2.54269 102.055 2.60976 104.915 2.60976C107.709 2.60976 110.703 2.60976 113.762 2.67684C116.756 2.67684 119.749 2.67684 122.609 2.60976C125.403 2.60976 128.064 2.54269 130.326 2.54269C132.587 2.54269 134.45 2.47562 135.78 2.40854C137.111 2.34147 137.842 2.34147 137.842 2.34147C137.842 2.34147 137.111 2.34147 135.78 2.2744C134.45 2.2744 132.587 2.20732 130.326 2.14025C128.064 2.14025 125.47 2.07318 122.609 2.07318C119.749 2.0061 116.756 2.0061 113.762 2.0061Z" fill="#7B7B7B"/>
<path d="M155.07 15.4207C155.07 15.4207 155.07 15.7561 155.137 16.3597C155.137 16.9634 155.204 17.8353 155.27 18.9085C155.27 19.9817 155.337 21.189 155.403 22.5305C155.403 23.8719 155.403 25.2805 155.47 26.6219C155.47 28.0305 155.47 29.439 155.403 30.7134C155.403 32.0549 155.337 33.2622 155.27 34.3353C155.27 35.4085 155.204 36.2805 155.137 36.8841C155.07 37.4878 155.07 37.8232 155.07 37.8232C155.07 37.8232 155.07 37.4878 155.004 36.8841C155.004 36.2805 154.937 35.4085 154.871 34.3353C154.871 33.2622 154.804 32.0549 154.738 30.7134C154.738 29.3719 154.738 27.9634 154.671 26.6219C154.671 25.2134 154.671 23.8049 154.738 22.5305C154.738 21.189 154.804 19.9817 154.871 18.9085C154.871 17.8353 154.937 16.9634 155.004 16.3597C155.07 15.7561 155.07 15.4207 155.07 15.4207Z" fill="#7B7B7B"/>
<path d="M79.8955 10.0566V15.7166H79.8755L75.8655 10.0566H75.0055V17.1566H75.8755V11.5566H75.8955L79.8755 17.1566H80.7655V10.0566H79.8955ZM86.1341 12.2866V12.9666H86.1141C85.6941 12.4866 85.0841 12.2266 84.4341 12.2266C83.1141 12.2266 82.1141 13.2766 82.1141 14.6566C82.1141 16.1066 83.1741 17.0666 84.4741 17.0666C85.1741 17.0666 85.7441 16.7866 86.1241 16.3166H86.1441V16.9966C86.1441 17.7866 85.6041 18.4266 84.5041 18.4266C83.8141 18.4266 83.3241 18.2366 82.7541 17.9166L82.5641 18.6666C83.1441 19.0166 83.8141 19.1966 84.5441 19.1966C86.2441 19.1966 86.9341 18.1966 86.9341 16.7866V12.2866H86.1341ZM84.5341 16.3066C83.6641 16.3066 82.9441 15.6666 82.9441 14.6266C82.9441 13.6866 83.6041 12.9866 84.5341 12.9866C85.4541 12.9866 86.1641 13.6366 86.1641 14.6166C86.1641 15.5866 85.5141 16.3066 84.5341 16.3066ZM93.2604 11.5066V12.1866C93.2604 12.9266 93.1704 13.3566 92.5704 13.4466V12.2866H91.7604V14.6466C91.7604 15.8066 91.0904 16.4766 90.3204 16.4766C89.5404 16.4766 89.1304 16.0666 89.1304 14.9566V12.2866H88.3204V15.1866C88.3204 16.5766 89.0304 17.2166 90.1504 17.2166C90.7804 17.2166 91.3604 16.9066 91.7504 16.3466H91.7604V17.1566H92.5704V14.0066C93.5604 13.9766 94.0904 13.3666 94.0904 12.2366V11.5066H93.2604ZM97.6076 11.5866L96.4376 10.1766L95.5076 10.1666L96.7476 11.5866H97.6076ZM99.7176 11.5066V12.1866C99.7176 12.8566 99.6376 13.2766 99.1776 13.4166C98.7476 12.6766 97.9576 12.2266 97.0076 12.2266C95.4876 12.2266 94.4876 13.3266 94.4876 14.7266C94.4876 16.1266 95.4876 17.2166 97.0076 17.2166C98.4376 17.2166 99.5076 16.2066 99.5076 14.7266C99.5076 14.4566 99.4676 14.2066 99.4076 13.9766L99.4176 13.9566C100.158 13.7966 100.548 13.2066 100.548 12.2366V11.5066H99.7176ZM97.0076 16.4766C95.9976 16.4766 95.3076 15.6966 95.3076 14.7266C95.3076 13.7566 95.9876 12.9766 97.0076 12.9766C97.9476 12.9766 98.6876 13.6866 98.6876 14.7266C98.6876 15.7566 97.9476 16.4766 97.0076 16.4766ZM102.025 11.3866C102.345 11.3866 102.605 11.1366 102.605 10.8166C102.605 10.5066 102.345 10.2466 102.025 10.2466C101.695 10.2466 101.445 10.5066 101.445 10.8166C101.445 11.1366 101.695 11.3866 102.025 11.3866ZM101.615 17.1566H102.425V12.2866H101.615V17.1566ZM112.049 10.8366H111.359V9.79662H110.549V10.8366H109.349V11.4866H110.549V13.0166H110.539C110.139 12.5066 109.539 12.2266 108.879 12.2266C107.499 12.2266 106.499 13.3166 106.499 14.7566C106.499 16.2466 107.539 17.2166 108.889 17.2166C109.589 17.2166 110.179 16.9066 110.569 16.3866H110.589V17.1566H111.359V11.4866H112.049V10.8366ZM108.959 16.4766C107.969 16.4766 107.319 15.7366 107.319 14.7566C107.319 13.6766 108.049 12.9766 108.969 12.9766C109.889 12.9766 110.579 13.7566 110.579 14.7566C110.579 15.7866 109.819 16.4766 108.959 16.4766ZM115.643 11.5866L114.473 10.1766L113.543 10.1666L114.783 11.5866H115.643ZM117.733 11.5066V12.1866C117.733 12.9266 117.643 13.3566 117.043 13.4466V12.2866H116.233V14.6466C116.233 15.8066 115.563 16.4766 114.793 16.4766C114.013 16.4766 113.603 16.0666 113.603 14.9566V12.2866H112.793V15.1866C112.793 16.5766 113.503 17.2166 114.623 17.2166C115.253 17.2166 115.833 16.9066 116.223 16.3466H116.233V17.1566H117.043V14.0066C118.033 13.9766 118.563 13.3666 118.563 12.2366V11.5066H117.733ZM122.085 12.2266C121.365 12.2266 120.725 12.5566 120.315 13.1366H120.305V12.2866H119.495V17.1566H120.305V14.7266C120.305 13.6266 120.915 12.9766 121.835 12.9766C122.545 12.9766 123.025 13.3566 123.025 14.4966V17.1566H123.835V14.2666C123.835 12.8766 123.135 12.2266 122.085 12.2266ZM128.995 12.2866V12.9666H128.975C128.555 12.4866 127.945 12.2266 127.295 12.2266C125.975 12.2266 124.975 13.2766 124.975 14.6566C124.975 16.1066 126.035 17.0666 127.335 17.0666C128.035 17.0666 128.605 16.7866 128.985 16.3166H129.005V16.9966C129.005 17.7866 128.465 18.4266 127.365 18.4266C126.675 18.4266 126.185 18.2366 125.615 17.9166L125.425 18.6666C126.005 19.0166 126.675 19.1966 127.405 19.1966C129.105 19.1966 129.795 18.1966 129.795 16.7866V12.2866H128.995ZM127.395 16.3066C126.525 16.3066 125.805 15.6666 125.805 14.6266C125.805 13.6866 126.465 12.9866 127.395 12.9866C128.315 12.9866 129.025 13.6366 129.025 14.6166C129.025 15.5866 128.375 16.3066 127.395 16.3066ZM74.9455 39.1566H75.7555V31.7966H74.9455V39.1566ZM79.6255 33.6166C80.4255 33.6166 81.0055 33.0666 81.0655 32.2166H80.4155C80.3855 32.6966 80.0855 33.0166 79.6255 33.0166C79.1455 33.0166 78.8655 32.6766 78.8355 32.2166H78.1755C78.2455 33.1266 78.8855 33.6166 79.6255 33.6166ZM81.1555 34.2866V35.0166H81.1455C80.7355 34.5066 80.1355 34.2266 79.4655 34.2266C78.0855 34.2266 77.0855 35.3166 77.0855 36.7566C77.0855 38.2466 78.1255 39.2166 79.4755 39.2166C80.1855 39.2166 80.7855 38.9066 81.1755 38.3866H81.1855V39.1566H81.9655V34.2866H81.1555ZM79.5455 38.4766C78.5555 38.4766 77.9055 37.7366 77.9055 36.7566C77.9055 35.6766 78.6355 34.9766 79.5555 34.9766C80.4955 34.9766 81.1855 35.7566 81.1855 36.7566C81.1855 37.7866 80.4255 38.4766 79.5455 38.4766ZM79.5555 40.2666C79.2355 40.2666 78.9755 40.5166 78.9755 40.8366C78.9755 41.1466 79.2355 41.4066 79.5555 41.4066C79.8855 41.4066 80.1355 41.1466 80.1355 40.8366C80.1355 40.5166 79.8855 40.2666 79.5555 40.2666ZM86.0495 34.2266C85.3295 34.2266 84.6895 34.5566 84.2795 35.1366H84.2695V34.2866H83.4595V39.1566H84.2695V36.7266C84.2695 35.6266 84.8795 34.9766 85.7995 34.9766C86.5095 34.9766 86.9895 35.3566 86.9895 36.4966V39.1566H87.7995V36.2666C87.7995 34.8766 87.0995 34.2266 86.0495 34.2266ZM92.9602 34.2866V34.9666H92.9402C92.5202 34.4866 91.9102 34.2266 91.2602 34.2266C89.9402 34.2266 88.9402 35.2766 88.9402 36.6566C88.9402 38.1066 90.0002 39.0666 91.3002 39.0666C92.0002 39.0666 92.5702 38.7866 92.9502 38.3166H92.9702V38.9966C92.9702 39.7866 92.4302 40.4266 91.3302 40.4266C90.6402 40.4266 90.1502 40.2366 89.5802 39.9166L89.3902 40.6666C89.9702 41.0166 90.6402 41.1966 91.3702 41.1966C93.0702 41.1966 93.7602 40.1966 93.7602 38.7866V34.2866H92.9602ZM91.3602 38.3066C90.4902 38.3066 89.7702 37.6666 89.7702 36.6266C89.7702 35.6866 90.4302 34.9866 91.3602 34.9866C92.2802 34.9866 92.9902 35.6366 92.9902 36.6166C92.9902 37.5866 92.3402 38.3066 91.3602 38.3066ZM98.4805 33.3866C98.8005 33.3866 99.0605 33.1366 99.0605 32.8166C99.0605 32.5066 98.8005 32.2466 98.4805 32.2466C98.1505 32.2466 97.9005 32.5066 97.9005 32.8166C97.9005 33.1366 98.1505 33.3866 98.4805 33.3866ZM98.0705 39.1566H98.8805V34.2866H98.0705V39.1566ZM106.29 34.2266C105.55 34.2266 104.91 34.5666 104.52 35.1866H104.51C104.25 34.5366 103.71 34.2266 102.96 34.2266C102.33 34.2266 101.72 34.5466 101.32 35.1266H101.31V34.2866H100.51V39.1566H101.31V36.7366C101.31 35.6466 101.93 34.9766 102.72 34.9766C103.48 34.9766 103.88 35.4366 103.88 36.5166V39.1566H104.69V36.7366C104.69 35.6466 105.3 34.9766 106.05 34.9766C106.82 34.9766 107.19 35.4266 107.19 36.5266V39.1566H108V36.3066C108 34.8666 107.4 34.2266 106.29 34.2266ZM117.44 32.8366H116.75V31.7966H115.94V32.8366H114.74V33.4866H115.94V35.0166H115.93C115.53 34.5066 114.93 34.2266 114.27 34.2266C112.89 34.2266 111.89 35.3166 111.89 36.7566C111.89 38.2466 112.93 39.2166 114.28 39.2166C114.98 39.2166 115.57 38.9066 115.96 38.3866H115.98V39.1566H116.75V33.4866H117.44V32.8366ZM114.35 38.4766C113.36 38.4766 112.71 37.7366 112.71 36.7566C112.71 35.6766 113.44 34.9766 114.36 34.9766C115.28 34.9766 115.97 35.7566 115.97 36.7566C115.97 37.7866 115.21 38.4766 114.35 38.4766ZM123.554 31.3266H122.644L121.464 32.7466H122.114L123.554 31.3266ZM120.374 32.7166H120.394L121.114 33.6066H121.934L120.744 32.1766H119.994L118.834 33.6066H119.654L120.374 32.7166ZM120.314 34.2266C118.994 34.2266 117.984 35.2566 117.984 36.7266C117.984 38.2066 119.024 39.2166 120.404 39.2166C121.294 39.2166 121.954 38.8466 122.374 38.3066L121.804 37.8166C121.504 38.1966 121.044 38.4766 120.434 38.4766C119.554 38.4766 118.914 37.8866 118.804 36.9766H122.554C122.554 36.9466 122.574 36.7766 122.574 36.6466C122.574 35.2466 121.674 34.2266 120.314 34.2266ZM120.354 34.9766C121.134 34.9766 121.644 35.5066 121.774 36.3066H118.834C118.984 35.4766 119.594 34.9766 120.354 34.9766ZM126.391 34.2266C125.671 34.2266 125.031 34.5566 124.621 35.1366H124.611V34.2866H123.801V39.1566H124.611V36.7266C124.611 35.6266 125.221 34.9766 126.141 34.9766C126.851 34.9766 127.331 35.3566 127.331 36.4966V39.1566H128.141V36.2666C128.141 34.8766 127.441 34.2266 126.391 34.2266ZM133.736 39.2166C134.306 39.2166 134.646 39.0666 134.916 38.9166L134.696 38.2066C134.466 38.3366 134.166 38.4566 133.876 38.4566C133.416 38.4566 133.276 38.1666 133.276 37.5866V34.9866H134.896V34.2866H133.276V32.5366L132.466 32.6266V34.2866H131.846V34.9866H132.466V37.7066C132.466 38.6866 132.866 39.2166 133.736 39.2166ZM138.619 34.2266C137.869 34.2266 137.229 34.5266 136.829 35.0866H136.809V31.7966H135.999V39.1566H136.809V36.7066C136.809 35.6166 137.419 34.9766 138.389 34.9766C139.099 34.9766 139.579 35.3666 139.579 36.4666V39.1566H140.389V36.2366C140.389 34.8466 139.679 34.2266 138.619 34.2266ZM147.108 31.3266H146.198L145.018 32.7466H145.668L147.108 31.3266ZM143.928 32.7166H143.948L144.668 33.6066H145.488L144.298 32.1766H143.548L142.388 33.6066H143.208L143.928 32.7166ZM143.868 34.2266C142.548 34.2266 141.538 35.2566 141.538 36.7266C141.538 38.2066 142.578 39.2166 143.958 39.2166C144.848 39.2166 145.508 38.8466 145.928 38.3066L145.358 37.8166C145.058 38.1966 144.598 38.4766 143.988 38.4766C143.108 38.4766 142.468 37.8866 142.358 36.9766H146.108C146.108 36.9466 146.128 36.7766 146.128 36.6466C146.128 35.2466 145.228 34.2266 143.868 34.2266ZM143.908 34.9766C144.688 34.9766 145.198 35.5066 145.328 36.3066H142.388C142.538 35.4766 143.148 34.9766 143.908 34.9766ZM147.516 37.0666H148.146L148.296 31.7966H147.366L147.516 37.0666ZM147.816 39.2166C148.126 39.2166 148.386 38.9666 148.386 38.6566C148.386 38.3366 148.126 38.0866 147.816 38.0866C147.486 38.0866 147.236 38.3366 147.236 38.6566C147.236 38.9666 147.486 39.2166 147.816 39.2166Z" fill="#4A4A4A"/>
</g>
<g clip-path="url(#clip1_2787_7552)">
<path d="M33.4681 40.5927L28.9355 39.2585L27.3726 34.4218H31.9052L35.1093 38.091L33.4681 40.5927Z" fill="url(#paint0_linear_2787_7552)"/>
<path opacity="0.4" d="M35.1093 38.091L31.9052 34.4218H27.3726L28.9355 39.2585L27.9978 35.0055L31.5144 35.3391L34.5622 38.9249L35.1093 38.091Z" fill="#D8216C"/>
<path opacity="0.17" d="M28.7793 36.8401L29.4045 38.7581L31.8271 39.6754L29.7171 38.091L28.7793 36.8401Z" fill="#FFB6D7"/>
<path d="M36.1251 38.7581L32.374 34.0882L33.5462 29.3349L38.3133 31.3363L38.9385 36.8401L36.1251 38.7581Z" fill="url(#paint1_linear_2787_7552)"/>
<path opacity="0.4" d="M33.5462 29.3349L38.3133 31.3363L38.9385 36.8401L38.0788 37.3405L37.141 31.8367L33.937 30.2522L32.374 34.0882L33.5462 29.3349Z" fill="#D8216C"/>
<path opacity="0.53" d="M33.8591 31.5865L33.1558 34.0882L34.9532 36.2564L33.7809 33.9215L33.8591 31.5865Z" fill="#FFB6D7"/>
<path d="M39.1729 37.1737L38.9385 31.1695L44.0181 27L46.5188 32.754L42.8459 38.1744L39.1729 37.1737Z" fill="url(#paint2_linear_2787_7552)"/>
<path opacity="0.63" d="M38.9385 31.1695L44.0181 27L46.5188 32.754L42.8459 38.1744L42.0644 37.9242L45.1903 32.6706L43.3929 28.3343L38.9385 31.1695Z" fill="#D8216C"/>
<path opacity="0.35" d="M39.6417 34.3384L39.4072 31.2529L41.7517 29.7519L40.2668 31.5865L39.6417 34.3384Z" fill="#FFB6D7"/>
<path d="M5.10059 84.373L13.6188 50.5162L23.3873 36.8401H53.7088L62.5395 50.5162L71.3703 84.373H45.1906H5.10059Z" fill="url(#paint3_linear_2787_7552)"/>
<path d="M5.10045 84.373H31.9835H45.1905H71.3701L72.9331 89.7934H43.7057H3.8501L5.10045 84.373Z" fill="url(#paint4_linear_2787_7552)"/>
<path opacity="0.71" d="M21.1987 39.9256L23.3869 36.8401H53.7084L57.5377 42.7609L47.5347 39.8422L21.1987 39.9256Z" fill="#FFD4FF"/>
<path opacity="0.08" d="M23.3871 36.8401H30.7331L21.199 51.6837L17.7605 69.2792L22.3712 84.373L26.1223 89.7934H3.8501L13.6186 50.5162L23.3871 36.8401Z" fill="#D63DB5"/>
<path opacity="0.46" d="M53.7083 36.8401L62.539 50.5162L71.3698 84.373L72.9328 89.7934H60.1946L52.8487 51.1L46.2061 36.8401H53.7083Z" fill="#FFEB97"/>
<path d="M18.0728 48.8484L22.7616 46.0965L21.5894 44.3453L18.0728 48.8484Z" fill="#2D291B"/>
<path d="M58.4754 49.182L54.0991 45.9297L55.4277 44.3453L58.4754 49.182Z" fill="#2D291B"/>
<path d="M46.9098 53.2682L53.865 50.5163L58.7883 56.6038L58.3976 58.355L53.3179 52.5176L46.519 55.1862L46.9098 53.2682Z" fill="#2D291B"/>
<path d="M46.519 55.1862L53.3179 52.5176L58.3976 58.355L58.4757 58.0215L53.3961 52.1841L46.5972 54.8526L46.519 55.1862Z" fill="#850C8E"/>
<path d="M29.6388 53.2682L22.6836 50.5163L17.7603 56.6038L18.151 58.355L23.2306 52.5176L30.0295 55.1862L29.6388 53.2682Z" fill="#2D291B"/>
<path d="M30.0294 55.1862L23.2305 52.5176L18.1509 58.355L18.0728 58.0215L23.1524 52.1841L29.9513 54.8526L30.0294 55.1862Z" fill="#850C8E"/>
<path d="M15.4941 64.2758L39.5638 83.0388L62.2268 64.4426L43.7838 58.6886L38.9386 61.5239L33.2338 58.6886L15.4941 64.2758Z" fill="#D8216C"/>
<path d="M33.2339 58.6886L38.2354 54.1855L43.7839 58.6886L38.8606 63.0249L33.2339 58.6886Z" fill="url(#paint5_linear_2787_7552)"/>
<path d="M32.5303 77.5349L39.6418 80.4536L45.9718 77.7851L39.5636 83.7893L32.5303 77.5349Z" fill="url(#paint6_linear_2787_7552)"/>
<mask id="mask0_2787_7552" style="mask-type:alpha" maskUnits="userSpaceOnUse" x="15" y="58" width="48" height="20">
<path d="M15.4941 64.2758L33.2338 58.6886L38.9386 61.5239L43.7838 58.6886L62.2268 64.4426L45.8938 77.7851L39.2512 74.4495L32.6867 77.535L15.4941 64.2758Z" fill="url(#paint7_linear_2787_7552)"/>
</mask>
<g mask="url(#mask0_2787_7552)">
<path opacity="0.51" d="M15.4941 64.2758L33.2338 58.6886L38.9386 61.5239L43.7838 58.6886L62.2268 64.4426L45.8938 77.7851L39.2512 74.4495L32.6867 77.535L15.4941 64.2758Z" fill="url(#paint8_linear_2787_7552)"/>
<path d="M17.7604 59.7727L15.4941 64.2758L16.5882 63.9422L17.7604 59.7727Z" fill="#D8216C"/>
<path d="M62.227 64.4426L59.0229 59.7727L60.9767 64.109L62.227 64.4426Z" fill="#D8216C"/>
<path d="M18.1512 58.355L14.0094 57.4377L12.1338 59.1055L14.322 60.273L18.1512 58.355Z" fill="url(#paint9_linear_2787_7552)"/>
<path opacity="0.35" d="M12.1338 59.1055L18.1512 58.355L14.0094 57.4377L12.1338 59.1055Z" fill="white"/>
<path d="M58.3193 58.355L62.5393 57.4377L64.4149 59.1055L62.1486 60.273L58.3193 58.355Z" fill="url(#paint10_linear_2787_7552)"/>
<path opacity="0.35" d="M64.4149 59.1055L58.3193 58.355L62.5393 57.4377L64.4149 59.1055Z" fill="white"/>
</g>
<path d="M75.7602 86.2257L65.1196 83.8516L67.151 91.5932L69.0857 95.7221L74.406 95.5157L76.8243 91.3868L75.7602 86.2257Z" fill="url(#paint11_linear_2787_7552)"/>
<path opacity="0.5" d="M75.7606 86.2257L67.1514 84.2644L67.5383 91.6964L75.7606 86.2257Z" fill="#FFE473"/>
<path d="M71.891 85.3999L65.3131 82.2L64.1523 84.7806L67.538 91.6965L67.1511 84.2645L71.891 85.3999Z" fill="url(#paint12_linear_2787_7552)"/>
<path opacity="0.14" d="M67.1514 84.2645L65.3135 82.2L71.8913 85.3999L67.1514 84.2645Z" fill="#D63DB5"/>
<path d="M67.538 91.6965L64.1523 84.7806L64.3458 92.5223L69.0857 95.7221L67.538 91.6965Z" fill="url(#paint13_linear_2787_7552)"/>
<path d="M1.06398 86.2257L11.7046 83.8516L9.6732 91.5932L7.73854 95.7221L2.41824 95.5157L-8.29697e-05 91.3868L1.06398 86.2257Z" fill="url(#paint14_linear_2787_7552)"/>
<path opacity="0.5" d="M1.06364 86.2257L9.67285 84.2644L9.28593 91.6964L1.06364 86.2257Z" fill="#FFE473"/>
<path d="M4.93325 85.3999L11.5111 82.2L12.6719 84.7806L9.28623 91.6965L9.67315 84.2645L4.93325 85.3999Z" fill="url(#paint15_linear_2787_7552)"/>
<path opacity="0.14" d="M9.67283 84.2645L11.5107 82.2L4.93293 85.3999L9.67283 84.2645Z" fill="#D63DB5"/>
<path d="M9.28623 91.6965L12.6719 84.7806L12.4784 92.5223L7.7385 95.7221L9.28623 91.6965Z" fill="url(#paint16_linear_2787_7552)"/>
</g>
<defs>
<linearGradient id="paint0_linear_2787_7552" x1="34.0291" y1="38.3893" x2="27.1269" y2="35.8178" gradientUnits="userSpaceOnUse">
<stop stop-color="#FF292C"/>
<stop offset="1" stop-color="#FF7C6A"/>
</linearGradient>
<linearGradient id="paint1_linear_2787_7552" x1="37.4849" y1="36.6762" x2="33.2239" y2="29.8776" gradientUnits="userSpaceOnUse">
<stop stop-color="#FF292C"/>
<stop offset="1" stop-color="#FF7C6A"/>
</linearGradient>
<linearGradient id="paint2_linear_2787_7552" x1="41.8749" y1="36.7695" x2="43.7506" y2="27.2526" gradientUnits="userSpaceOnUse">
<stop stop-color="#FF292C"/>
<stop offset="1" stop-color="#FF7C6A"/>
</linearGradient>
<linearGradient id="paint3_linear_2787_7552" x1="4.57832" y1="60.6096" x2="36.9087" y2="60.6096" gradientUnits="userSpaceOnUse">
<stop stop-color="#FFAE98"/>
<stop offset="1" stop-color="#FFD91D"/>
</linearGradient>
<linearGradient id="paint4_linear_2787_7552" x1="12.2705" y1="87.0668" x2="36.5156" y2="87.0668" gradientUnits="userSpaceOnUse">
<stop stop-color="#F5A792"/>
<stop offset="1" stop-color="#F5D01C"/>
</linearGradient>
<linearGradient id="paint5_linear_2787_7552" x1="38.4992" y1="68.1408" x2="38.4992" y2="50.0431" gradientUnits="userSpaceOnUse">
<stop stop-color="#FF292C"/>
<stop offset="1" stop-color="#FF7C6A"/>
</linearGradient>
<linearGradient id="paint6_linear_2787_7552" x1="39.2755" y1="87.3232" x2="39.2755" y2="74.6421" gradientUnits="userSpaceOnUse">
<stop stop-color="#FF292C"/>
<stop offset="1" stop-color="#FF7C6A"/>
</linearGradient>
<linearGradient id="paint7_linear_2787_7552" x1="38.8696" y1="58.9691" x2="38.8696" y2="70.7579" gradientUnits="userSpaceOnUse">
<stop/>
<stop offset="0.0955353" stop-color="#060606"/>
<stop offset="0.2199" stop-color="#161616"/>
<stop offset="0.3602" stop-color="#313131"/>
<stop offset="0.5123" stop-color="#565656"/>
<stop offset="0.6738" stop-color="#878787"/>
<stop offset="0.8405" stop-color="#C1C1C1"/>
<stop offset="1" stop-color="white"/>
</linearGradient>
<linearGradient id="paint8_linear_2787_7552" x1="38.8696" y1="58.9691" x2="38.8696" y2="70.7579" gradientUnits="userSpaceOnUse">
<stop stop-color="#850C8E"/>
<stop offset="1" stop-color="#850C8E"/>
</linearGradient>
<linearGradient id="paint9_linear_2787_7552" x1="12.1325" y1="58.8529" x2="18.1768" y2="58.8529" gradientUnits="userSpaceOnUse">
<stop stop-color="#45A4D3"/>
<stop offset="1" stop-color="#45FFD3"/>
</linearGradient>
<linearGradient id="paint10_linear_2787_7552" x1="64.4017" y1="58.8529" x2="58.3567" y2="58.8529" gradientUnits="userSpaceOnUse">
<stop stop-color="#45A4D3"/>
<stop offset="1" stop-color="#45FFD3"/>
</linearGradient>
<linearGradient id="paint11_linear_2787_7552" x1="71.0118" y1="84.8701" x2="71.0118" y2="101.562" gradientUnits="userSpaceOnUse">
<stop stop-color="#FFCF51"/>
<stop offset="1" stop-color="#FFD91D"/>
</linearGradient>
<linearGradient id="paint12_linear_2787_7552" x1="71.8645" y1="86.9913" x2="64.1154" y2="86.9913" gradientUnits="userSpaceOnUse">
<stop stop-color="#FFCF51"/>
<stop offset="1" stop-color="#FFD91D"/>
</linearGradient>
<linearGradient id="paint13_linear_2787_7552" x1="63.181" y1="90.5043" x2="69.8619" y2="90.0307" gradientUnits="userSpaceOnUse">
<stop stop-color="#EDAC00"/>
<stop offset="1" stop-color="#FFD91D"/>
</linearGradient>
<linearGradient id="paint14_linear_2787_7552" x1="5.8124" y1="84.8701" x2="5.8124" y2="101.562" gradientUnits="userSpaceOnUse">
<stop stop-color="#FFCF51"/>
<stop offset="1" stop-color="#FFD91D"/>
</linearGradient>
<linearGradient id="paint15_linear_2787_7552" x1="4.95976" y1="86.9913" x2="12.7088" y2="86.9913" gradientUnits="userSpaceOnUse">
<stop stop-color="#FFCF51"/>
<stop offset="1" stop-color="#FFD91D"/>
</linearGradient>
<linearGradient id="paint16_linear_2787_7552" x1="13.6432" y1="90.5043" x2="6.96233" y2="90.0307" gradientUnits="userSpaceOnUse">
<stop stop-color="#EDAC00"/>
<stop offset="1" stop-color="#FFD91D"/>
</linearGradient>
<clipPath id="clip0_2787_7552">
<rect width="90" height="66" fill="white" transform="translate(67 1)"/>
</clipPath>
<clipPath id="clip1_2787_7552">
<rect width="77" height="69" fill="white" transform="translate(0 27)"/>
</clipPath>
</defs>
</svg>
