<svg width="32" height="32" viewBox="0 0 32 32" fill="none" xmlns="http://www.w3.org/2000/svg">
<path d="M17.62 7.30044C18.8784 6.54626 20.3731 6.28943 21.811 6.58033C24.1154 7.12041 24.2882 9.09351 24.6482 9.35995C25.0083 9.62639 27.6439 11.0666 27.9751 12.6509C28.3064 14.2351 25.2171 16.2154 25.2171 16.2154C25.2171 16.2154 27.1974 18.5774 26.4485 20.3704C25.6996 22.1635 22.884 24.7991 20.2196 25.1592C17.5552 25.5192 7.56724 25.1592 5.65175 23.6325C3.73626 22.1059 2.86494 14.7464 6.5447 11.8155L7.26481 11.4555C7.26481 11.4555 8.43139 6.78916 11.7223 6.12666C13.7658 5.76513 15.8706 6.18402 17.62 7.30044Z" fill="#6C7C32"/>
<path d="M27.9968 13.1693C27.9968 14.0767 26.2397 14.8112 24.065 14.8112C21.8902 14.8112 20.1332 14.0911 20.1332 13.1693C20.1332 12.2476 21.8902 11.5203 24.065 11.5203C26.2397 11.5203 27.9968 12.298 27.9968 13.1693Z" fill="#FFDDDC"/>
<path d="M19.5861 13.1693C19.5861 14.0767 17.8291 14.8112 15.6543 14.8112C13.4796 14.8112 11.7225 14.0911 11.7225 13.1693C11.7225 12.2476 13.4868 11.5203 15.6543 11.5203C17.8219 11.5203 19.5861 12.298 19.5861 13.1693Z" fill="#FFDDDC"/>
<path d="M27.1043 19.7944C27.2352 19.6538 27.3142 19.4727 27.3281 19.2811C27.342 19.0895 27.29 18.8989 27.1808 18.7409C27.0715 18.5829 26.9115 18.467 26.7274 18.4124C26.5432 18.3577 26.3459 18.3677 26.1681 18.4406C25.7649 18.6206 23.907 18.491 22.1139 18.3686C20.9401 18.2893 19.6079 18.1957 18.1245 18.1381C13.9479 17.9653 12.5005 18.9374 12.1404 19.2543C12.0525 19.3301 11.9806 19.4226 11.9286 19.5265C11.8767 19.6303 11.8459 19.7434 11.8379 19.8592C11.8321 19.9695 11.8483 20.0799 11.8854 20.1839C11.9225 20.2879 11.9799 20.3836 12.0543 20.4653C12.1286 20.547 12.2184 20.6131 12.3185 20.6599C12.4185 20.7067 12.5269 20.7331 12.6373 20.7377L18.0597 20.9682C19.4999 21.0258 20.8393 21.1194 21.9987 21.1986C23.4389 21.2922 24.4471 21.3642 25.2176 21.3642C25.7671 21.3962 26.3175 21.3203 26.8378 21.141C27.0402 21.051 27.199 20.8849 27.2799 20.6787C27.3608 20.4725 27.3572 20.2428 27.2699 20.0392C27.2322 19.947 27.1758 19.8637 27.1043 19.7944Z" fill="#E06C51"/>
<path d="M25.9157 13.1333C25.9157 13.4453 25.8232 13.7502 25.6499 14.0095C25.4766 14.2688 25.2303 14.471 24.9421 14.5903C24.654 14.7097 24.3369 14.7409 24.031 14.6801C23.7251 14.6192 23.4441 14.469 23.2235 14.2485C23.003 14.0279 22.8527 13.7469 22.7919 13.441C22.731 13.1351 22.7623 12.818 22.8816 12.5298C23.001 12.2417 23.2031 11.9954 23.4625 11.8221C23.7218 11.6488 24.0267 11.5563 24.3386 11.5563C24.7569 11.5563 25.158 11.7225 25.4538 12.0182C25.7495 12.314 25.9157 12.7151 25.9157 13.1333Z" fill="#353535"/>
<path d="M23.8705 13.1333C24.1768 13.1333 24.425 12.8851 24.425 12.5788C24.425 12.2726 24.1768 12.0244 23.8705 12.0244C23.5643 12.0244 23.316 12.2726 23.316 12.5788C23.316 12.8851 23.5643 13.1333 23.8705 13.1333Z" fill="#FFDDDC"/>
<path d="M17.7569 13.1333C17.7569 13.4453 17.6644 13.7502 17.4911 14.0095C17.3178 14.2688 17.0715 14.471 16.7833 14.5903C16.4952 14.7097 16.1781 14.7409 15.8722 14.6801C15.5662 14.6192 15.2852 14.469 15.0647 14.2485C14.8441 14.0279 14.6939 13.7469 14.6331 13.441C14.5722 13.1351 14.6035 12.818 14.7228 12.5298C14.8422 12.2417 15.0443 11.9954 15.3037 11.8221C15.563 11.6488 15.8679 11.5563 16.1798 11.5563C16.5981 11.5563 16.9992 11.7225 17.295 12.0182C17.5907 12.314 17.7569 12.7151 17.7569 13.1333Z" fill="#353535"/>
<path d="M15.7117 13.1333C16.0179 13.1333 16.2662 12.8851 16.2662 12.5788C16.2662 12.2726 16.0179 12.0244 15.7117 12.0244C15.4055 12.0244 15.1572 12.2726 15.1572 12.5788C15.1572 12.8851 15.4055 13.1333 15.7117 13.1333Z" fill="#FFDDDC"/>
</svg>
