<svg width="1024" height="1024" viewBox="0 0 1024 1024" fill="none" xmlns="http://www.w3.org/2000/svg">
<path d="M0 512C0 229.23 229.23 0 512 0C794.77 0 1024 229.23 1024 512C1024 794.77 794.77 1024 512 1024C229.23 1024 0 794.77 0 512Z" fill="white"/>
<path d="M311.137 324.355L311.188 323.598V323.548L311.238 322.69C313.16 260.006 364.653 211 428.589 211C460.809 211 491.968 224.072 514.173 246.884C514.629 247.338 515.084 247.843 515.489 248.348L516.197 249.105C520.041 253.294 523.278 257.281 526.111 261.318C532.636 270.655 537.745 280.85 541.184 291.651C544.776 302.754 546.597 314.362 546.597 326.324L546.546 400.918C546.495 484.042 546.495 490.856 547.052 493.278L547.204 493.934C548.62 500.95 550.39 509.681 577.502 506.047L584.685 505.088L584.786 505.744C604.513 506.905 620.194 523.308 620.194 543.294C620.194 559.596 609.571 573.828 594.548 578.875L594.599 579.632L586.405 580.692C579.778 581.55 573.304 581.954 567.133 581.954C530.815 581.954 502.236 567.57 485.595 540.467C476.996 526.487 472.19 511.75 471.28 496.155V326.223C471.229 302.855 453.171 289.582 435.265 286.856C417.157 284.03 395.558 291.55 388.275 314.514C387.061 318.299 386.454 322.236 386.454 326.223C386.454 346.966 369.559 363.823 348.77 363.823C327.981 363.823 311.086 346.966 311.086 326.223C311.036 325.617 311.086 324.961 311.137 324.355Z" fill="#F5C653"/>
<path d="M207.402 538.676C212.285 528.964 220.538 521.845 230.646 518.54L315.615 491.083C325.674 487.829 336.32 488.846 345.744 493.981C355.071 499.117 361.956 507.71 365.082 518.184C371.528 539.845 359.857 562.879 339.103 569.59L328.067 573.15C353.655 695.792 509.625 731.995 510.944 732.3C521.345 734.385 530.281 740.537 536.19 749.689C542.099 758.842 544.199 769.876 542.148 780.706C540.097 791.486 534.139 800.74 525.349 806.841C519.197 811.112 512.214 813.451 505.133 813.756C502.105 813.909 499.029 813.655 496.05 813.045C495.806 812.994 469.876 807.553 435.107 792.96C377.241 768.604 279.088 711.554 252.426 597.607C244.271 599.844 235.53 599.285 227.668 595.98C216.632 591.353 208.232 581.895 204.765 570.048C201.494 559.523 202.519 548.387 207.402 538.676Z" fill="#FE6E6F"/>
<path d="M736.119 381.02C783.069 381.02 821.129 342.96 821.129 296.01C821.129 249.06 783.069 211 736.119 211C689.169 211 651.109 249.06 651.109 296.01C651.109 342.96 689.169 381.02 736.119 381.02Z" fill="#FE6E6F"/>
</svg>
