<svg width="1024" height="1024" viewBox="0 0 1024 1024" fill="none" xmlns="http://www.w3.org/2000/svg">
<path d="M0 396C0 211.328 0 118.992 56.3747 60.8174C57.8323 59.3134 59.3134 57.8323 60.8174 56.3747C118.992 0 211.328 0 396 0H628C812.672 0 905.008 0 963.183 56.3747C964.687 57.8323 966.168 59.3134 967.625 60.8174C1024 118.992 1024 211.328 1024 396V628C1024 812.672 1024 905.008 967.625 963.183C966.168 964.687 964.687 966.168 963.183 967.625C905.008 1024 812.672 1024 628 1024H396C211.328 1024 118.992 1024 60.8174 967.625C59.3134 966.168 57.8323 964.687 56.3747 963.183C0 905.008 0 812.672 0 628V396Z" fill="#23244B"/>
<path d="M286.53 301.318L286.586 300.468V300.412L286.643 299.449C288.801 229.086 346.602 174.076 418.37 174.076C454.538 174.076 489.514 188.749 514.44 214.356C514.951 214.866 515.462 215.432 515.916 215.999L516.711 216.849C521.026 221.551 524.66 226.026 527.84 230.559C535.164 241.039 540.899 252.483 544.76 264.607C548.791 277.071 550.835 290.101 550.835 303.528L550.778 387.261C550.722 480.568 550.722 488.216 551.346 490.936L551.517 491.672C553.106 499.547 555.094 509.348 585.527 505.269L593.59 504.192L593.703 504.929C615.847 506.232 633.448 524.644 633.448 547.079C633.448 565.377 621.525 581.354 604.662 587.019L604.718 587.869L595.52 589.058C588.082 590.022 580.814 590.475 573.887 590.475C533.12 590.475 501.04 574.329 482.36 543.906C472.707 528.213 467.313 511.671 466.291 494.165V303.414C466.235 277.184 445.965 262.284 425.865 259.225C405.538 256.052 381.293 264.494 373.117 290.271C371.755 294.52 371.073 298.939 371.073 303.414C371.073 326.699 352.109 345.621 328.773 345.621C305.437 345.621 286.473 326.699 286.473 303.414C286.416 302.734 286.473 301.998 286.53 301.318Z" fill="#F5C653"/>
<path d="M170.086 541.894C175.567 530.993 184.831 523.002 196.178 519.292L291.555 488.471C302.847 484.819 314.797 485.96 325.376 491.725C335.846 497.489 343.575 507.135 347.083 518.893C354.318 543.207 341.217 569.063 317.921 576.597L305.533 580.592C334.256 718.259 509.334 758.897 510.814 759.24C522.49 761.58 532.521 768.486 539.153 778.759C545.786 789.033 548.143 801.419 545.841 813.576C543.539 825.676 536.851 836.064 526.985 842.913C520.078 847.707 512.239 850.333 504.291 850.675C500.893 850.846 497.439 850.561 494.096 849.876C493.822 849.819 464.715 843.712 425.687 827.331C360.732 799.992 250.554 735.953 220.625 608.045C211.471 610.557 201.659 609.929 192.834 606.219C180.446 601.025 171.018 590.409 167.126 577.11C163.453 565.296 164.604 552.796 170.086 541.894Z" fill="#FE6E6F"/>
<path d="M763.575 364.925C816.277 364.925 859 322.202 859 269.5C859 216.799 816.277 174.076 763.575 174.076C710.874 174.076 668.15 216.799 668.15 269.5C668.15 322.202 710.874 364.925 763.575 364.925Z" fill="#FE6E6F"/>
</svg>
