<svg width="512" height="512" viewBox="0 0 512 512" fill="none" xmlns="http://www.w3.org/2000/svg">
<rect width="512" height="512" rx="100" fill="#23244B"/>
<path d="M145.906 153.131L145.933 152.716V152.689L145.961 152.218C147.015 117.861 175.238 91 210.282 91C227.942 91 245.021 98.1647 257.192 110.668C257.441 110.917 257.691 111.194 257.913 111.471L258.301 111.886C260.408 114.182 262.182 116.367 263.735 118.58C267.311 123.698 270.111 129.286 271.997 135.205C273.965 141.291 274.963 147.654 274.963 154.21L274.936 195.096C274.908 240.657 274.908 244.391 275.213 245.719L275.296 246.079C276.072 249.924 277.043 254.71 291.903 252.718L295.84 252.192L295.895 252.552C306.708 253.188 315.302 262.179 315.302 273.133C315.302 282.068 309.48 289.869 301.246 292.636L301.274 293.051L296.782 293.632C293.15 294.102 289.602 294.323 286.219 294.323C266.313 294.323 250.649 286.439 241.527 271.584C236.814 263.921 234.18 255.844 233.681 247.296V154.155C233.654 141.347 223.756 134.071 213.942 132.578C204.016 131.028 192.178 135.15 188.186 147.737C187.52 149.812 187.187 151.969 187.187 154.155C187.187 165.524 177.927 174.764 166.533 174.764C155.138 174.764 145.878 165.524 145.878 154.155C145.85 153.823 145.878 153.463 145.906 153.131Z" fill="#F5C653"/>
<path d="M89.0475 270.602C91.724 265.279 96.2474 261.377 101.788 259.566L148.36 244.516C153.873 242.732 159.708 243.29 164.874 246.105C169.986 248.919 173.76 253.629 175.473 259.371C179.006 271.243 172.609 283.868 161.234 287.547L155.185 289.498C169.21 356.719 254.699 376.562 255.421 376.729C261.122 377.872 266.021 381.244 269.259 386.261C272.498 391.277 273.649 397.325 272.525 403.261C271.4 409.169 268.135 414.242 263.317 417.586C259.945 419.927 256.117 421.209 252.236 421.376C250.577 421.46 248.891 421.32 247.258 420.986C247.124 420.958 232.912 417.976 213.855 409.978C182.138 396.628 128.339 365.358 113.725 302.903C109.255 304.129 104.464 303.822 100.155 302.011C94.1062 299.475 89.5025 294.291 87.6022 287.797C85.8089 282.028 86.3709 275.925 89.0475 270.602Z" fill="#FE6E6F"/>
<path d="M378.842 184.19C404.575 184.19 425.437 163.329 425.437 137.595C425.437 111.861 404.575 91 378.842 91C353.108 91 332.247 111.861 332.247 137.595C332.247 163.329 353.108 184.19 378.842 184.19Z" fill="#FE6E6F"/>
</svg>
